<svg width="43" height="38" viewBox="0 0 43 38" fill="none" xmlns="http://www.w3.org/2000/svg">
<path fill-rule="evenodd" clip-rule="evenodd" d="M19.7632 29.7979L9.34787 19.8019C8.47237 18.8811 7.64929 16.5464 8.85629 15.4159C9.18212 15.1099 9.73179 14.6014 10.3934 13.9879C12.2511 12.2743 14.0952 10.5459 15.9255 8.80294C17.2005 7.57327 18.7701 7.14685 20.2845 8.51535C21.5259 9.64107 22.7449 10.7912 23.941 11.9649L21.0368 20.1887L18.2729 22.7699L21.0906 25.5295L19.7632 29.7979ZM12.6119 17.2859L18.3536 11.9508L21.0878 14.6311L15.414 20.0215L12.6119 17.2859Z" fill="white"/>
<path fill-rule="evenodd" clip-rule="evenodd" d="M18.1738 17.3991L23.8377 22.8858L19.6911 26.8185C19.1896 27.3186 18.4883 28.6134 19.6911 29.7992C20.891 30.9863 22.3402 29.9196 22.9154 29.2382L32.7329 19.7635C33.3704 19.024 34.5207 16.8494 32.9907 15.3378C31.5414 13.9202 30.0698 12.5256 28.5764 11.1544C27.8539 10.5764 25.8904 9.9276 23.8277 11.9662C21.9685 13.8034 20.0841 15.615 18.1752 17.4005M23.934 17.4033L26.7631 20.1743L29.5695 17.5493L26.6512 14.7924L23.934 17.4033Z" fill="white"/>
<path d="M23.9382 17.3936L21.0539 20.1391L18.1724 17.3936L21.0553 14.6594L23.9382 17.3936Z" fill="white"/>
</svg>
