<svg width="29" height="20" viewBox="0 0 29 20" fill="none" xmlns="http://www.w3.org/2000/svg">
<rect x="2.08398" y="0.487793" width="24.0649" height="15.6097" fill="white"/>
<rect x="0.132568" y="17.3984" width="27.9673" height="2.60161" fill="white"/>
<path d="M10.6129 7.73987H9.46427C9.44895 7.62194 9.41756 7.51551 9.37008 7.42056C9.32261 7.32561 9.25982 7.24444 9.18171 7.17706C9.10361 7.10967 9.01096 7.05837 8.90375 7.02314C8.79808 6.98639 8.68093 6.96801 8.55228 6.96801C8.3241 6.96801 8.1273 7.02391 7.96191 7.13571C7.79804 7.2475 7.6717 7.40907 7.58287 7.62041C7.49558 7.83175 7.45193 8.08751 7.45193 8.38767C7.45193 8.70009 7.49634 8.96197 7.58517 9.17331C7.67553 9.38312 7.80187 9.54163 7.9642 9.64883C8.12807 9.7545 8.3218 9.80733 8.54539 9.80733C8.67097 9.80733 8.78507 9.79125 8.88767 9.75909C8.99181 9.72693 9.08293 9.68022 9.16104 9.61896C9.24067 9.55617 9.30576 9.48037 9.3563 9.39154C9.40837 9.30119 9.44436 9.19934 9.46427 9.08602L10.6129 9.09291C10.593 9.30119 10.5325 9.5064 10.4314 9.70855C10.3318 9.91071 10.1948 10.0952 10.0202 10.2622C9.8456 10.4276 9.63273 10.5593 9.38157 10.6573C9.13194 10.7553 8.84556 10.8043 8.52242 10.8043C8.09668 10.8043 7.71534 10.7109 7.37842 10.5241C7.04303 10.3357 6.77809 10.0616 6.5836 9.70166C6.3891 9.34177 6.29185 8.90377 6.29185 8.38767C6.29185 7.87004 6.39063 7.43128 6.58819 7.07139C6.78575 6.71149 7.05299 6.43813 7.38991 6.25129C7.72683 6.06445 8.10433 5.97103 8.52242 5.97103C8.80727 5.97103 9.07068 6.01085 9.31265 6.09049C9.55462 6.16859 9.7675 6.28345 9.95127 6.43506C10.135 6.58515 10.2844 6.76969 10.3992 6.98869C10.5141 7.20768 10.5853 7.45808 10.6129 7.73987ZM11.2629 10.74V6.03535H13.2063C13.5585 6.03535 13.8625 6.09891 14.1183 6.22602C14.3756 6.3516 14.5739 6.53231 14.7133 6.76816C14.8526 7.00247 14.9223 7.28043 14.9223 7.60203C14.9223 7.92824 14.8511 8.20543 14.7087 8.43362C14.5662 8.66027 14.3641 8.83333 14.1022 8.95278C13.8403 9.0707 13.5302 9.12966 13.1719 9.12966H11.9429V8.23376H12.9605C13.132 8.23376 13.2752 8.21155 13.3901 8.16714C13.5065 8.1212 13.5945 8.05228 13.6543 7.9604C13.714 7.86698 13.7439 7.74752 13.7439 7.60203C13.7439 7.45655 13.714 7.33633 13.6543 7.24138C13.5945 7.1449 13.5065 7.07292 13.3901 7.02544C13.2737 6.97643 13.1305 6.95193 12.9605 6.95193H12.4V10.74H11.2629ZM13.9115 8.58982L15.0831 10.74H13.8426L12.694 8.58982H13.9115ZM15.5453 6.03535H16.9535L18.1481 8.94819H18.2032L19.3977 6.03535H20.8059V10.74H19.6987V7.85013H19.6596L18.5294 10.7101H17.8219L16.6916 7.83405H16.6526V10.74H15.5453V6.03535Z" fill="#0B0616"/>
</svg>
