<svg width="44" height="38" viewBox="0 0 44 38" fill="none" xmlns="http://www.w3.org/2000/svg">
<path d="M34.7156 27.7499C34.728 28.2992 34.631 28.8455 34.4306 29.3566C34.2301 29.8678 33.93 30.3335 33.5481 30.7264C33.1662 31.1194 32.71 31.4316 32.2064 31.6449C31.7028 31.8581 31.1619 31.968 30.6155 31.9681C30.069 31.9683 29.5281 31.8586 29.0244 31.6457C28.5206 31.4327 28.0643 31.1207 27.6822 30.7279C27.3001 30.3351 26.9998 29.8696 26.7991 29.3585C26.5983 28.8475 26.5011 28.3013 26.5132 27.7519C26.5369 26.6742 26.9793 25.6485 27.7456 24.8946C28.5119 24.1407 29.5413 23.7184 30.6134 23.7181C31.6855 23.7179 32.7151 24.1396 33.4818 24.8932C34.2485 25.6467 34.6914 26.6721 34.7156 27.7499Z" fill="white"/>
<path d="M29.998 36C28.3571 36 26.7162 35.5875 25.2804 34.5562L12.5636 27.75C11.538 26.925 10.7176 26.5125 9.89711 25.6875C7.43578 23.2125 6 19.7063 6 16.2C6 12.6938 7.43578 9.39375 9.89711 6.91875C12.3584 4.44375 15.6402 3 19.1271 3C22.614 3 25.8958 4.44375 28.5622 6.91875C29.3827 7.74375 29.7929 8.3625 30.6133 9.39375L37.7922 22.5938C39.8433 26.1 39.228 30.4312 36.3564 33.3188C34.5105 35.175 32.4593 36 29.998 36ZM19.1271 5.0625C16.2556 5.0625 13.384 6.3 11.3329 8.3625C9.28178 10.425 8.05111 13.3125 8.05111 16.2C8.05111 19.2938 9.28178 21.975 11.3329 24.0375C11.9482 24.6562 12.5636 25.0688 13.5891 25.6875L26.5111 32.7C27.7418 33.525 28.9724 33.7312 30.2031 33.7312C32.0491 33.7312 33.69 33.1125 34.9207 31.6687C37.1769 29.4 37.5871 26.1 35.9462 23.4187L28.7673 10.2188C28.152 9.39375 27.7418 8.775 27.1264 8.15625C24.8702 6.3 22.2038 5.0625 19.1271 5.0625Z" fill="white"/>
<path d="M28.5623 17.4375V15.375L25.6907 14.3438C25.4856 13.9313 25.4856 13.725 25.2805 13.3125L26.5112 10.6313L25.0754 9.1875L22.409 10.425C21.9987 10.2187 21.7936 10.2188 21.3834 10.0125L20.3579 7.125H18.3067L17.2812 10.0125C16.871 10.2188 16.6659 10.2187 16.2556 10.425L13.5892 9.1875L12.1534 10.6313L13.3841 13.3125C13.179 13.725 13.179 13.9313 12.9739 14.3438L10.1023 15.375V17.4375L12.9739 18.4688C13.179 18.8813 13.179 19.0875 13.3841 19.5L12.1534 22.1813L13.5892 23.625L16.2556 22.3875C16.6659 22.5937 16.871 22.8 17.2812 22.8L18.3067 25.6875H20.3579L21.3834 22.8C21.7936 22.5938 21.9987 22.5937 22.409 22.3875L25.0754 23.625L26.5112 22.1813L25.2805 19.5C25.4856 19.0875 25.6907 18.8813 25.6907 18.4688L28.5623 17.4375ZM19.3323 19.5C17.6914 19.5 16.2556 18.0562 16.2556 16.4062C16.2556 14.7562 17.6914 13.3125 19.3323 13.3125C20.9732 13.3125 22.409 14.7562 22.409 16.4062C22.409 18.0562 20.9732 19.5 19.3323 19.5Z" fill="white"/>
</svg>
