<svg width="30" height="30" viewBox="0 0 30 30" fill="none" xmlns="http://www.w3.org/2000/svg">
<g clip-path="url(#clip0_1618_9409)">
<path fill-rule="evenodd" clip-rule="evenodd" d="M15.0012 0L18.7512 3.75V5H16.5637V8.4375H21.5637V13.4375H25.0012V11.25H26.2512L30.0012 15L26.2512 18.75H25.0012V16.5625H21.5637V21.5625H16.5637V25H18.7512V26.25L15.0012 30L11.2512 26.25V25H13.4387V21.5625H8.43872V16.5625H5.00122V18.75H3.75122L0.0012207 15L3.75122 11.25H5.00122V13.4375H8.43872V8.4375H13.4387V5H11.2512V3.75L15.0012 0ZM11.5637 11.5625V18.4375H18.4387V11.5625H11.5637Z" fill="white"/>
</g>
<defs>
<clipPath id="clip0_1618_9409">
<rect width="30" height="30" fill="white"/>
</clipPath>
</defs>
</svg>
