<svg width="26" height="26" viewBox="0 0 26 26" fill="none" xmlns="http://www.w3.org/2000/svg">
<path d="M9.75008 2.16675H3.25008C2.96276 2.16675 2.68721 2.28088 2.48405 2.48405C2.28088 2.68721 2.16675 2.96276 2.16675 3.25008V9.75008C2.16675 10.0374 2.28088 10.3129 2.48405 10.5161C2.68721 10.7193 2.96276 10.8334 3.25008 10.8334H9.75008C10.0374 10.8334 10.3129 10.7193 10.5161 10.5161C10.7193 10.3129 10.8334 10.0374 10.8334 9.75008V3.25008C10.8334 2.96276 10.7193 2.68721 10.5161 2.48405C10.3129 2.28088 10.0374 2.16675 9.75008 2.16675ZM9.75008 15.1667H3.25008C2.96276 15.1667 2.68721 15.2809 2.48405 15.484C2.28088 15.6872 2.16675 15.9628 2.16675 16.2501V22.7501C2.16675 23.0374 2.28088 23.3129 2.48405 23.5161C2.68721 23.7193 2.96276 23.8334 3.25008 23.8334H9.75008C10.0374 23.8334 10.3129 23.7193 10.5161 23.5161C10.7193 23.3129 10.8334 23.0374 10.8334 22.7501V16.2501C10.8334 15.9628 10.7193 15.6872 10.5161 15.484C10.3129 15.2809 10.0374 15.1667 9.75008 15.1667ZM22.7501 2.16675H16.2501C15.9628 2.16675 15.6872 2.28088 15.484 2.48405C15.2809 2.68721 15.1667 2.96276 15.1667 3.25008V9.75008C15.1667 10.0374 15.2809 10.3129 15.484 10.5161C15.6872 10.7193 15.9628 10.8334 16.2501 10.8334H22.7501C23.0374 10.8334 23.3129 10.7193 23.5161 10.5161C23.7193 10.3129 23.8334 10.0374 23.8334 9.75008V3.25008C23.8334 2.96276 23.7193 2.68721 23.5161 2.48405C23.3129 2.28088 23.0374 2.16675 22.7501 2.16675Z" stroke="white" stroke-width="2" stroke-linejoin="round"/>
<path d="M15.1667 15.1667H23.8334M19.5001 19.5001H23.8334M15.1667 23.8334H23.8334" stroke="white" stroke-width="2" stroke-linecap="round" stroke-linejoin="round"/>
</svg>
