<svg width="35" height="35" viewBox="0 0 35 35" fill="none" xmlns="http://www.w3.org/2000/svg">
<path d="M5.83268 29.1663C5.0306 29.1663 4.34421 28.881 3.77352 28.3103C3.20282 27.7396 2.91699 27.0527 2.91602 26.2497V8.74967C2.91602 7.94759 3.20185 7.2612 3.77352 6.69051C4.34518 6.11981 5.03157 5.83398 5.83268 5.83301H29.166C29.9681 5.83301 30.655 6.11884 31.2266 6.69051C31.7983 7.26217 32.0837 7.94856 32.0827 8.74967V26.2497C32.0827 27.0518 31.7973 27.7386 31.2266 28.3103C30.6559 28.882 29.9691 29.1673 29.166 29.1663H5.83268ZM5.83268 26.2497H21.1452V21.1455H5.83268V26.2497ZM24.0618 26.2497H29.166V13.1247H24.0618V26.2497ZM5.83268 18.2288H21.1452V13.1247H5.83268V18.2288Z" fill="white"/>
</svg>
