<svg width="35" height="35" viewBox="0 0 35 35" fill="none" xmlns="http://www.w3.org/2000/svg">
<path d="M30.946 10.0535C30.4573 9.21622 29.752 8.52606 28.9043 8.0556L20.1543 3.22851C19.3407 2.7907 18.4313 2.56152 17.5074 2.56152C16.5835 2.56152 15.6741 2.7907 14.8605 3.22851L6.11055 8.0556C5.26286 8.52606 4.55759 9.21622 4.06888 10.0535C3.57304 10.8928 3.31118 11.8496 3.31055 12.8243V22.1723C3.31736 23.143 3.57973 24.0949 4.07127 24.932C4.5628 25.7691 5.26615 26.4621 6.11055 26.941L14.8605 31.7535C15.6703 32.203 16.5813 32.4388 17.5074 32.4388C18.4336 32.4388 19.3445 32.203 20.1543 31.7535L28.9043 26.9264C29.7509 26.455 30.4557 25.7654 30.9455 24.9293C31.4354 24.0932 31.6923 23.1412 31.6897 22.1723V12.8973C31.7144 11.8982 31.4566 10.9125 30.946 10.0535ZM29.4876 22.1723C29.4935 22.7523 29.342 23.323 29.0492 23.8238C28.7565 24.3245 28.3334 24.7366 27.8251 25.016L19.0751 29.8431C18.9215 29.9296 18.7611 29.9977 18.5939 30.0473V18.1181L29.2397 11.716C29.3739 12.0689 29.438 12.4452 29.4293 12.8243L29.4876 22.1723Z" fill="white"/>
</svg>
