<svg width="35" height="35" viewBox="0 0 35 35" fill="none" xmlns="http://www.w3.org/2000/svg">
<path d="M9.43706 16.0418C9.23223 16.2469 9.11719 16.5249 9.11719 16.8147C9.11719 17.1046 9.23223 17.3826 9.43706 17.5876C9.64214 17.7925 9.92013 17.9075 10.21 17.9075C10.4998 17.9075 10.7778 17.7925 10.9829 17.5876L12.4412 16.1293C12.6258 15.9528 12.8713 15.8543 13.1266 15.8543C13.382 15.8543 13.6275 15.9528 13.8121 16.1293C14.4122 16.7051 15.2117 17.0266 16.0433 17.0266C16.875 17.0266 17.6744 16.7051 18.2746 16.1293C18.4591 15.9528 18.7046 15.8543 18.96 15.8543C19.2153 15.8543 19.4608 15.9528 19.6454 16.1293C20.2455 16.7051 21.045 17.0266 21.8766 17.0266C22.7083 17.0266 23.5078 16.7051 24.1079 16.1293L25.5662 14.671C25.7594 14.4636 25.8646 14.1894 25.8596 13.906C25.8546 13.6227 25.7398 13.3523 25.5394 13.1519C25.339 12.9515 25.0687 12.8368 24.7853 12.8318C24.502 12.8268 24.2277 12.9319 24.0204 13.1251L22.5621 14.5835C22.3775 14.76 22.132 14.8585 21.8766 14.8585C21.6213 14.8585 21.3758 14.76 21.1912 14.5835C20.5911 14.0077 19.7916 13.6862 18.96 13.6862C18.1283 13.6862 17.3289 14.0077 16.7287 14.5835C16.5442 14.76 16.2987 14.8585 16.0433 14.8585C15.788 14.8585 15.5424 14.76 15.3579 14.5835C14.7578 14.0077 13.9583 13.6862 13.1266 13.6862C12.295 13.6862 11.4955 14.0077 10.8954 14.5835L9.43706 16.0418ZM16.7287 21.8751C16.5442 22.0516 16.2987 22.1501 16.0433 22.1501C15.788 22.1501 15.5424 22.0516 15.3579 21.8751C14.7578 21.2994 13.9583 20.9779 13.1266 20.9779C12.295 20.9779 11.4955 21.2994 10.8954 21.8751L9.43706 23.3335C9.23223 23.5385 9.11719 23.8165 9.11719 24.1064C9.11719 24.3962 9.23223 24.6742 9.43706 24.8793C9.64214 25.0841 9.92013 25.1992 10.21 25.1992C10.4998 25.1992 10.7778 25.0841 10.9829 24.8793L12.4412 23.421C12.6258 23.2445 12.8713 23.146 13.1266 23.146C13.382 23.146 13.6275 23.2445 13.8121 23.421C14.4122 23.9967 15.2117 24.3182 16.0433 24.3182C16.875 24.3182 17.6744 23.9967 18.2746 23.421C18.3639 23.3305 18.4708 23.2593 18.5887 23.2117C18.7065 23.164 18.8329 23.141 18.96 23.1439C19.2501 23.1439 19.5283 23.0287 19.7334 22.8235C19.9385 22.6184 20.0537 22.3402 20.0537 22.0501C20.0537 21.7601 19.9385 21.4819 19.7334 21.2767C19.5283 21.0716 19.2501 20.9564 18.96 20.9564C18.5457 20.9538 18.135 21.0337 17.752 21.1914C17.3689 21.3491 17.021 21.5816 16.7287 21.8751ZM14.585 9.4793H20.4183C20.8051 9.4793 21.176 9.32566 21.4495 9.05217C21.723 8.77868 21.8766 8.40774 21.8766 8.02097V4.37514C21.8756 3.70332 21.7198 3.04077 21.4213 2.43887C21.1229 1.83697 20.6899 1.31187 20.1558 0.904303C19.4991 0.402578 18.7136 0.0971338 17.8905 0.0233376C17.0673 -0.0504586 16.2401 0.110412 15.5046 0.487322C14.7691 0.864232 14.1554 1.44176 13.7345 2.15305C13.3137 2.86433 13.1029 3.68027 13.1266 4.50639V8.02097C13.1266 8.40774 13.2803 8.77868 13.5538 9.05217C13.8273 9.32566 14.1982 9.4793 14.585 9.4793ZM16.4079 4.01055C16.4079 3.79423 16.472 3.58276 16.5922 3.4029C16.7124 3.22303 16.8832 3.08284 17.0831 3.00006C17.2829 2.91728 17.5029 2.89562 17.715 2.93782C17.9272 2.98002 18.1221 3.08419 18.275 3.23715C18.428 3.39012 18.5322 3.58501 18.5744 3.79717C18.6166 4.00934 18.5949 4.22926 18.5121 4.42911C18.4294 4.62897 18.2892 4.79979 18.1093 4.91997C17.9294 5.04016 17.718 5.1043 17.5016 5.1043C17.2127 5.10053 16.9367 4.98408 16.7324 4.77977C16.5281 4.57547 16.4117 4.29946 16.4079 4.01055Z" fill="white"/>
<path d="M28.4362 4.375H24.4258C24.3291 4.375 24.2364 4.41341 24.168 4.48178C24.0996 4.55016 24.0612 4.64289 24.0612 4.73958V6.92708C24.0612 7.02378 24.0996 7.11651 24.168 7.18488C24.2364 7.25326 24.3291 7.29167 24.4258 7.29167H27.707C27.9004 7.29167 28.0859 7.36849 28.2226 7.50523C28.3594 7.64198 28.4362 7.82745 28.4362 8.02083V26.7458C28.4374 26.8415 28.4185 26.9363 28.3808 27.0242C28.3432 27.1121 28.2875 27.1911 28.2174 27.2563L23.6091 31.8646C23.544 31.9346 23.465 31.9903 23.3771 32.028C23.2891 32.0656 23.1943 32.0845 23.0987 32.0833H7.29036C7.09698 32.0833 6.91151 32.0065 6.77477 31.8698C6.63802 31.733 6.5612 31.5476 6.5612 31.3542V8.02083C6.5612 7.82745 6.63802 7.64198 6.77477 7.50523C6.91151 7.36849 7.09698 7.29167 7.29036 7.29167H10.5716C10.6683 7.29167 10.761 7.25326 10.8294 7.18488C10.8978 7.11651 10.9362 7.02378 10.9362 6.92708V4.73958C10.9362 4.64289 10.8978 4.55016 10.8294 4.48178C10.761 4.41341 10.6683 4.375 10.5716 4.375H6.5612C5.78765 4.375 5.04578 4.68229 4.4988 5.22927C3.95182 5.77625 3.64453 6.51812 3.64453 7.29167V32.0833C3.64453 32.8569 3.95182 33.5987 4.4988 34.1457C5.04578 34.6927 5.78765 35 6.5612 35H28.4362C29.2097 35 29.9516 34.6927 30.4986 34.1457C31.0456 33.5987 31.3529 32.8569 31.3529 32.0833V7.29167C31.3529 6.51812 31.0456 5.77625 30.4986 5.22927C29.9516 4.68229 29.2097 4.375 28.4362 4.375Z" fill="white"/>
</svg>
