<svg width="35" height="35" viewBox="0 0 35 35" fill="none" xmlns="http://www.w3.org/2000/svg">
<path d="M13.2811 7.94533C14.1532 5.39324 17.6794 5.31595 18.7134 7.71345L18.8009 7.94678L19.9777 11.3885C20.2474 12.1777 20.6833 12.9 21.2559 13.5066C21.8284 14.1131 22.5244 14.5898 23.2969 14.9045L23.6134 15.0226L27.055 16.198C29.6071 17.0701 29.6844 20.5964 27.2884 21.6303L27.055 21.7178L23.6134 22.8947C22.8238 23.1642 22.1012 23.6 21.4944 24.1726C20.8876 24.7452 20.4107 25.4413 20.0959 26.2139L19.9777 26.5289L18.8023 29.972C17.9302 32.5241 14.404 32.6014 13.3715 30.2053L13.2811 29.972L12.1057 26.5303C11.8361 25.7408 11.4004 25.0182 10.8278 24.4114C10.2552 23.8046 9.5591 23.3277 8.78649 23.0128L8.47149 22.8947L5.02982 21.7193C2.47628 20.8472 2.39899 17.321 4.79649 16.2885L5.02982 16.198L8.47149 15.0226C9.26079 14.7529 9.98307 14.3171 10.5896 13.7445C11.1961 13.1719 11.6728 12.4759 11.9875 11.7035L12.1057 11.3885L13.2811 7.94533ZM16.0417 8.88741L14.8663 12.3291C14.4556 13.5326 13.7875 14.6322 12.9085 15.5513C12.0295 16.4703 10.9608 17.1867 9.7767 17.6505L9.41211 17.7832L5.97045 18.9587L9.41211 20.1341C10.6157 20.5448 11.7153 21.2129 12.6343 22.0918C13.5533 22.9708 14.2697 24.0396 14.7336 25.2237L14.8663 25.5882L16.0417 29.0299L17.2171 25.5882C17.6278 24.3847 18.2959 23.2851 19.1749 22.3661C20.0539 21.447 21.1226 20.7306 22.3067 20.2668L22.6713 20.1355L26.1129 18.9587L22.6713 17.7832C21.4677 17.3726 20.3681 16.7045 19.4491 15.8255C18.5301 14.9465 17.8137 13.8777 17.3498 12.6937L17.2186 12.3291L16.0417 8.88741ZM27.7084 2.91699C27.9812 2.91699 28.2485 2.99352 28.48 3.13789C28.7115 3.28225 28.8979 3.48866 29.018 3.73366L29.0879 3.90428L29.5984 5.40053L31.0961 5.91095C31.3695 6.00384 31.6092 6.17581 31.7847 6.40506C31.9603 6.63431 32.0639 6.91052 32.0823 7.19869C32.1007 7.48686 32.0332 7.77402 31.8883 8.02377C31.7433 8.27351 31.5275 8.47461 31.2682 8.60158L31.0961 8.67158L29.5998 9.18199L29.0894 10.6797C28.9964 10.953 28.8243 11.1926 28.5949 11.368C28.3656 11.5435 28.0893 11.6469 27.8012 11.6651C27.513 11.6834 27.2259 11.6157 26.9763 11.4707C26.7266 11.3256 26.5256 11.1097 26.3988 10.8503L26.3288 10.6797L25.8184 9.18345L24.3207 8.67303C24.0472 8.58015 23.8076 8.40818 23.632 8.17893C23.4564 7.94968 23.3528 7.67347 23.3344 7.3853C23.316 7.09712 23.3835 6.80997 23.5285 6.56022C23.6734 6.31047 23.8892 6.10937 24.1486 5.98241L24.3207 5.91241L25.8169 5.40199L26.3273 3.90428C26.4257 3.61615 26.6117 3.36603 26.8594 3.18897C27.107 3.01191 27.4039 2.91681 27.7084 2.91699Z" fill="white"/>
</svg>
