<svg width="35" height="35" viewBox="0 0 35 35" fill="none" xmlns="http://www.w3.org/2000/svg">
<path d="M5.83203 18.9587H13.1237M17.4987 23.3337V11.667H21.8737C22.6472 11.667 23.3891 11.9743 23.9361 12.5213C24.4831 13.0682 24.7904 13.8101 24.7904 14.5837V16.042C24.7904 16.8155 24.4831 17.5574 23.9361 18.1044C23.3891 18.6514 22.6472 18.9587 21.8737 18.9587H17.4987M29.1654 11.667V23.3337M13.1237 23.3337V15.3128C13.1237 14.3459 12.7396 13.4186 12.0559 12.7348C11.3721 12.0511 10.4448 11.667 9.47786 11.667C8.51093 11.667 7.5836 12.0511 6.89987 12.7348C6.21614 13.4186 5.83203 14.3459 5.83203 15.3128V23.3337" stroke="white" stroke-width="2.91667" stroke-linecap="round" stroke-linejoin="round"/>
</svg>
