<svg width="36" height="36" viewBox="0 0 36 36" fill="none" xmlns="http://www.w3.org/2000/svg">
<g clip-path="url(#clip0_1461_8205)">
<path d="M18 6L9.1125 11.1375L18 16.275L26.8875 11.1375L18 6ZM4.5 23.9625V12.0375C4.5 11.4875 4.6315 10.9875 4.8945 10.5375C5.1575 10.0875 5.526 9.725 6 9.45L16.5 3.4125C16.75 3.2875 16.994 3.1875 17.232 3.1125C17.47 3.0375 17.726 3 18 3C18.274 3 18.5365 3.0375 18.7875 3.1125C19.0385 3.1875 19.276 3.2875 19.5 3.4125L30 9.45C30.475 9.725 30.844 10.0875 31.107 10.5375C31.37 10.9875 31.501 11.4875 31.5 12.0375V16.5C31.5 16.925 31.356 17.2815 31.068 17.5695C30.78 17.8575 30.424 18.001 30 18C29.576 17.999 29.22 17.855 28.932 17.568C28.644 17.281 28.5 16.925 28.5 16.5V13.65L19.4625 18.8625C18.9875 19.1375 18.4875 19.275 17.9625 19.275C17.4375 19.275 16.9375 19.1375 16.4625 18.8625L7.5 13.65V23.925L15.75 28.725C15.975 28.85 16.1565 29.025 16.2945 29.25C16.4325 29.475 16.501 29.725 16.5 30C16.5 30.575 16.25 31.0065 15.75 31.2945C15.25 31.5825 14.75 31.5885 14.25 31.3125L6 26.55C5.525 26.275 5.1565 25.9125 4.8945 25.4625C4.6325 25.0125 4.501 24.5125 4.5 23.9625ZM27 36C24.925 36 23.1565 35.2685 21.6945 33.8055C20.2325 32.3425 19.501 30.574 19.5 28.5C19.499 26.426 20.2305 24.6575 21.6945 23.1945C23.1585 21.7315 24.927 21 27 21C29.073 21 30.842 21.7315 32.307 23.1945C33.772 24.6575 34.503 26.426 34.5 28.5C34.497 30.574 33.7655 32.343 32.3055 33.807C30.8455 35.271 29.077 36.002 27 36ZM27.75 28.2V24.75C27.75 24.55 27.675 24.375 27.525 24.225C27.375 24.075 27.2 24 27 24C26.8 24 26.625 24.075 26.475 24.225C26.325 24.375 26.25 24.55 26.25 24.75V28.1625C26.25 28.3625 26.2875 28.5565 26.3625 28.7445C26.4375 28.9325 26.55 29.101 26.7 29.25L28.95 31.5C29.1 31.65 29.275 31.725 29.475 31.725C29.675 31.725 29.85 31.65 30 31.5C30.15 31.35 30.225 31.175 30.225 30.975C30.225 30.775 30.15 30.6 30 30.45L27.75 28.2Z" fill="white"/>
</g>
<defs>
<clipPath id="clip0_1461_8205">
<rect width="36" height="36" fill="white"/>
</clipPath>
</defs>
</svg>
