<svg width="36" height="36" viewBox="0 0 36 36" fill="none" xmlns="http://www.w3.org/2000/svg">
<path d="M4.5 10.5C4.5 9.70435 4.81607 8.94129 5.37868 8.37868C5.94129 7.81607 6.70435 7.5 7.5 7.5H28.5C29.2956 7.5 30.0587 7.81607 30.6213 8.37868C31.1839 8.94129 31.5 9.70435 31.5 10.5V25.5C31.5 26.2956 31.1839 27.0587 30.6213 27.6213C30.0587 28.1839 29.2956 28.5 28.5 28.5H7.5C6.70435 28.5 5.94129 28.1839 5.37868 27.6213C4.81607 27.0587 4.5 26.2956 4.5 25.5V10.5Z" stroke="white" stroke-width="3" stroke-linecap="round" stroke-linejoin="round"/>
<path d="M10.5 22.5V15.75C10.5 15.1533 10.7371 14.581 11.159 14.159C11.581 13.7371 12.1533 13.5 12.75 13.5C13.3467 13.5 13.919 13.7371 14.341 14.159C14.7629 14.581 15 15.1533 15 15.75V22.5M10.5 19.5H15M21 18H23.25C23.8467 18 24.419 17.7629 24.841 17.341C25.2629 16.919 25.5 16.3467 25.5 15.75C25.5 15.1533 25.2629 14.581 24.841 14.159C24.419 13.7371 23.8467 13.5 23.25 13.5H21V22.5M25.5 22.5L22.5 18" stroke="white" stroke-width="3" stroke-linecap="round" stroke-linejoin="round"/>
</svg>
