<svg width="35" height="35" viewBox="0 0 35 35" fill="none" xmlns="http://www.w3.org/2000/svg">
<path d="M5.83333 8.74967V23.333H13.125V17.4997C13.125 16.7261 13.4323 15.9843 13.9793 15.4373C14.5263 14.8903 15.2681 14.583 16.0417 14.583H23.3333C24.1069 14.583 24.8487 14.8903 25.3957 15.4373C25.9427 15.9843 26.25 16.7261 26.25 17.4997V23.333H29.1667V8.74967H5.83333ZM0 29.1663V26.2497H5.83333C5.05979 26.2497 4.31792 25.9424 3.77094 25.3954C3.22396 24.8484 2.91667 24.1066 2.91667 23.333V8.74967C2.91667 7.97613 3.22396 7.23426 3.77094 6.68728C4.31792 6.1403 5.05979 5.83301 5.83333 5.83301H29.1667C29.9402 5.83301 30.6821 6.1403 31.2291 6.68728C31.776 7.23426 32.0833 7.97613 32.0833 8.74967V23.333C32.0833 24.1066 31.776 24.8484 31.2291 25.3954C30.6821 25.9424 29.9402 26.2497 29.1667 26.2497H35V29.1663H26.25C26.25 29.9399 25.9427 30.6818 25.3957 31.2287C24.8487 31.7757 24.1069 32.083 23.3333 32.083H16.0417C15.2681 32.083 14.5263 31.7757 13.9793 31.2287C13.4323 30.6818 13.125 29.9399 13.125 29.1663H0ZM16.7708 29.1663C16.5774 29.1663 16.392 29.2432 16.2552 29.3799C16.1185 29.5167 16.0417 29.7021 16.0417 29.8955C16.0417 30.0889 16.1185 30.2744 16.2552 30.4111C16.392 30.5479 16.5774 30.6247 16.7708 30.6247C16.9642 30.6247 17.1497 30.5479 17.2864 30.4111C17.4232 30.2744 17.5 30.0889 17.5 29.8955C17.5 29.7021 17.4232 29.5167 17.2864 29.3799C17.1497 29.2432 16.9642 29.1663 16.7708 29.1663ZM22.6042 29.1663C22.4108 29.1663 22.2253 29.2432 22.0886 29.3799C21.9518 29.5167 21.875 29.7021 21.875 29.8955C21.875 30.0889 21.9518 30.2744 22.0886 30.4111C22.2253 30.5479 22.4108 30.6247 22.6042 30.6247C22.7976 30.6247 22.983 30.5479 23.1198 30.4111C23.2565 30.2744 23.3333 30.0889 23.3333 29.8955C23.3333 29.7021 23.2565 29.5167 23.1198 29.3799C22.983 29.2432 22.7976 29.1663 22.6042 29.1663ZM18.9583 29.1663V30.6247H20.4167V29.1663H18.9583ZM16.0417 17.4997V27.708H23.3333V17.4997H16.0417Z" fill="white"/>
</svg>
