<svg width="36" height="35" viewBox="0 0 36 35" fill="none" xmlns="http://www.w3.org/2000/svg">
<path d="M28.2083 4.375C28.9819 4.375 29.7237 4.68229 30.2707 5.22927C30.8177 5.77625 31.125 6.51812 31.125 7.29167V27.7083C31.125 28.4819 30.8177 29.2237 30.2707 29.7707C29.7237 30.3177 28.9819 30.625 28.2083 30.625H7.79167C7.01812 30.625 6.27625 30.3177 5.72927 29.7707C5.18229 29.2237 4.875 28.4819 4.875 27.7083V7.29167C4.875 6.51812 5.18229 5.77625 5.72927 5.22927C6.27625 4.68229 7.01812 4.375 7.79167 4.375H28.2083ZM28.2083 7.29167H7.79167V27.7083H28.2083V7.29167ZM18.054 11.2715C18.4492 10.0056 20.154 9.88604 20.7519 11.0031L20.8277 11.1635L23.3623 17.5H25.2917C25.6634 17.5004 26.0209 17.6427 26.2912 17.8979C26.5614 18.1531 26.7241 18.5018 26.7459 18.8729C26.7677 19.2439 26.6469 19.6093 26.4084 19.8943C26.1698 20.1794 25.8314 20.3626 25.4623 20.4065L25.2917 20.4167H22.3852C22.1211 20.4168 21.8618 20.346 21.6345 20.2115C21.4072 20.0771 21.2202 19.884 21.0931 19.6525L21.0173 19.4921L19.6275 16.0154L17.2154 23.7344C16.8377 24.9419 15.2394 25.1242 14.5802 24.1063L14.4927 23.9531L12.7223 20.4167H10.7083C10.3366 20.4163 9.97912 20.2739 9.70884 20.0188C9.43856 19.7636 9.27591 19.4149 9.25412 19.0438C9.23234 18.6727 9.35307 18.3074 9.59164 18.0223C9.83021 17.7373 10.1686 17.5541 10.5377 17.5102L10.7083 17.5H13.6163C14.1121 17.5 14.57 17.7479 14.8412 18.1548L14.9331 18.3152L15.499 19.4469L18.054 11.2715Z" fill="white"/>
</svg>
