<svg width="35" height="35" viewBox="0 0 35 35" fill="none" xmlns="http://www.w3.org/2000/svg">
<path d="M19.6875 29.5312C20.2916 29.5312 20.7812 29.0416 20.7812 28.4375C20.7812 27.8334 20.2916 27.3438 19.6875 27.3438C19.0834 27.3438 18.5938 27.8334 18.5938 28.4375C18.5938 29.0416 19.0834 29.5312 19.6875 29.5312Z" fill="white"/>
<path d="M30.625 21.875C31.8314 21.875 32.8125 20.8939 32.8125 19.6875V15.3125C32.8125 14.1072 31.8314 13.125 30.625 13.125H29.5312V7.65625C29.5312 6.45094 28.5502 5.46875 27.3438 5.46875H21.875V4.375C21.875 3.16969 20.8939 2.1875 19.6875 2.1875H15.3125C14.1061 2.1875 13.125 3.16969 13.125 4.375V5.46875H7.65625C6.44984 5.46875 5.46875 6.45094 5.46875 7.65625V13.2803C3.5875 13.7692 2.1875 15.4678 2.1875 17.5C2.1875 19.5322 3.5875 21.2297 5.46875 21.7197V27.3438C5.46875 28.5502 6.44984 29.5312 7.65625 29.5312H15.3125V30.625C15.3125 31.8314 16.2936 32.8125 17.5 32.8125H30.625C31.8314 32.8125 32.8125 31.8314 32.8125 30.625V26.25C32.8125 25.0447 31.8314 24.0625 30.625 24.0625H29.5312V21.875H30.625ZM30.625 19.6875H26.25V15.3125H30.625V19.6875ZM15.3125 4.375H19.6875V8.75H15.3125V4.375ZM13.125 7.65625V8.75C13.125 9.95641 14.1061 10.9375 15.3125 10.9375H19.6875C20.8939 10.9375 21.875 9.95641 21.875 8.75V7.65625H27.3438V13.125H26.25C25.0436 13.125 24.0625 14.1072 24.0625 15.3125V16.4062H10.7822C10.5856 15.6546 10.1925 14.9688 9.64308 14.4194C9.0937 13.87 8.40792 13.4769 7.65625 13.2803V7.65625H13.125ZM4.375 17.5C4.375 16.2947 5.35609 15.3125 6.5625 15.3125C7.76891 15.3125 8.75 16.2947 8.75 17.5C8.75 18.7053 7.76891 19.6875 6.5625 19.6875C5.35609 19.6875 4.375 18.7064 4.375 17.5ZM30.625 30.625H17.5V26.25H30.625V30.625ZM27.3438 24.0625H17.5C16.2936 24.0625 15.3125 25.0447 15.3125 26.25V27.3438H7.65625V21.7197C8.40792 21.5231 9.0937 21.13 9.64308 20.5806C10.1925 20.0312 10.5856 19.3454 10.7822 18.5938H24.0625V19.6875C24.0625 20.8939 25.0436 21.875 26.25 21.875H27.3438V24.0625Z" fill="white"/>
</svg>
