<svg width="35" height="35" viewBox="0 0 35 35" fill="none" xmlns="http://www.w3.org/2000/svg">
<g clip-path="url(#clip0_1461_8219)">
<path d="M29.1659 8.96387C28.8537 8.89108 28.537 8.83895 28.2179 8.80783C27.7793 6.58566 26.6608 4.55476 25.0173 2.99613C23.3737 1.4375 21.2864 0.428196 19.0441 0.107868C16.8018 -0.21246 14.5154 0.172025 12.5012 1.20812C10.487 2.24422 8.84462 3.88071 7.80128 5.89116C7.12889 5.97242 6.46822 6.13148 5.83253 6.36512C4.1277 6.96353 2.65083 8.07667 1.60601 9.55073C0.561188 11.0248 0 12.787 0 14.5938C0 16.4006 0.561188 18.1628 1.60601 19.6368C2.65083 21.1109 4.1277 22.224 5.83253 22.8224V19.6082C4.94614 19.1008 4.20953 18.3681 3.69723 17.4845C3.18494 16.6009 2.91514 15.5977 2.91514 14.5763C2.91514 13.5549 3.18494 12.5516 3.69723 11.668C4.20953 10.7844 4.94614 10.0518 5.83253 9.54429C6.52893 9.13525 7.30447 8.87923 8.10753 8.79325L9.66794 8.63283L10.3971 7.24741C11.159 5.77134 12.3615 4.56899 13.8376 3.80713C15.3137 3.04527 16.9903 2.76168 18.6349 2.99571C20.2794 3.22973 21.8104 3.96975 23.0154 5.11313C24.2204 6.25651 25.0397 7.74656 25.3596 9.37658L25.7971 11.5641L28.0284 11.7245C28.4169 11.7566 28.7995 11.8404 29.1659 11.9739C30.0169 12.2665 30.7554 12.8175 31.2782 13.5501C31.8009 14.2827 32.0819 15.1602 32.0819 16.0601C32.0819 16.9601 31.8009 17.8376 31.2782 18.5701C30.7554 19.3027 30.0169 19.8538 29.1659 20.1464V23.1855C30.8104 22.8576 32.2904 21.9698 33.354 20.6732C34.4175 19.3767 34.9987 17.7516 34.9987 16.0747C34.9987 14.3978 34.4175 12.7727 33.354 11.4762C32.2904 10.1796 30.8104 9.29181 29.1659 8.96387Z" fill="white"/>
<path d="M17.5 16.042C11.9321 16.042 8.75 17.1474 8.75 19.2022V31.8401C8.75 33.8949 13.2519 35.0003 17.5 35.0003C21.7481 35.0003 26.25 33.8949 26.25 31.8401V19.2022C26.25 17.1474 23.0679 16.042 17.5 16.042ZM17.5 17.5003C21.4535 17.5003 24.6604 18.6816 24.6604 19.9912C24.6604 21.3007 21.4521 22.361 17.5 22.361C13.5479 22.361 10.3396 21.3007 10.3396 19.9912C10.3396 18.6816 13.5479 17.5003 17.5 17.5003ZM10.3396 29.0562V27.3893C12.6095 28.3169 15.049 28.7571 17.5 28.6814C19.951 28.7571 22.3905 28.3169 24.6604 27.3893V29.1087C22.3739 29.9646 19.9396 30.3562 17.5 30.2607C15.0574 30.3318 12.6245 29.9225 10.3396 29.0562Z" fill="white"/>
</g>
<defs>
<clipPath id="clip0_1461_8219">
<rect width="35" height="35" fill="white"/>
</clipPath>
</defs>
</svg>
