<svg width="35" height="35" viewBox="0 0 35 35" fill="none" xmlns="http://www.w3.org/2000/svg">
<path d="M10.2109 14.583V17.4997C10.2109 18.4724 10.7943 20.4163 13.1276 20.4163C15.4609 20.4163 16.0443 18.4724 16.0443 17.4997V14.583M20.4193 14.583L22.6068 17.4997M22.6068 17.4997L24.7943 20.4163M22.6068 17.4997L24.7943 14.583M22.6068 17.4997L20.4193 20.4163" stroke="white" stroke-width="2.91667" stroke-linecap="round" stroke-linejoin="round"/>
<path d="M17.5013 32.0837C25.5555 32.0837 32.0846 25.5545 32.0846 17.5003C32.0846 9.44617 25.5555 2.91699 17.5013 2.91699C9.44715 2.91699 2.91797 9.44617 2.91797 17.5003C2.91797 25.5545 9.44715 32.0837 17.5013 32.0837Z" stroke="white" stroke-width="2.91667" stroke-linecap="round" stroke-linejoin="round"/>
</svg>
