<svg width="35" height="35" viewBox="0 0 35 35" fill="none" xmlns="http://www.w3.org/2000/svg">
<path d="M10.7906 25.1562C9.7698 26.0069 8.70667 26.3958 7.60126 26.3229C6.49584 26.25 5.52945 25.8733 4.70209 25.1927C3.87473 24.5122 3.30987 23.6192 3.00751 22.5138C2.70515 21.4083 2.90542 20.2718 3.60834 19.1042L6.34272 14.5833C5.73508 14.0486 5.25529 13.4045 4.90334 12.651C4.5514 11.8976 4.37494 11.0833 4.37397 10.2083C4.37397 8.60417 4.94515 7.2309 6.08751 6.08854C7.22987 4.94618 8.60313 4.375 10.2073 4.375C11.8115 4.375 13.1847 4.94618 14.3271 6.08854C15.4695 7.2309 16.0406 8.60417 16.0406 10.2083C16.0406 11.8125 15.4695 13.1858 14.3271 14.3281C13.1847 15.4705 11.8115 16.0417 10.2073 16.0417C9.98855 16.0417 9.7698 16.0295 9.55105 16.0052C9.3323 15.9809 9.1257 15.9444 8.93126 15.8958L6.12397 20.6354C5.8566 21.0729 5.77154 21.5046 5.86876 21.9304C5.96598 22.3563 6.17258 22.7024 6.48855 22.9688C6.80452 23.2351 7.18126 23.3873 7.61876 23.4252C8.05626 23.4631 8.4816 23.311 8.8948 22.9688L24.2073 9.80729C25.2281 8.9566 26.2976 8.57354 27.4156 8.65812C28.5337 8.74271 29.5059 9.12576 30.3323 9.80729C31.1587 10.4888 31.7177 11.3823 32.0094 12.4877C32.3011 13.5931 32.0945 14.7292 31.3896 15.8958L28.6552 20.4167C29.2629 20.9514 29.7431 21.5955 30.0961 22.349C30.449 23.1024 30.6249 23.9167 30.624 24.7917C30.624 26.3958 30.0528 27.7691 28.9104 28.9115C27.7681 30.0538 26.3948 30.625 24.7906 30.625C23.1865 30.625 21.8132 30.0538 20.6708 28.9115C19.5285 27.7691 18.9573 26.3958 18.9573 24.7917C18.9573 23.1875 19.5285 21.8142 20.6708 20.6719C21.8132 19.5295 23.1865 18.9583 24.7906 18.9583C25.0094 18.9583 25.2223 18.9705 25.4294 18.9948C25.6365 19.0191 25.8367 19.0556 26.0302 19.1042L28.874 14.3646C29.1413 13.9271 29.2264 13.4954 29.1292 13.0696C29.032 12.6438 28.8254 12.2976 28.5094 12.0312C28.1934 11.7649 27.8167 11.6132 27.3792 11.5763C26.9417 11.5393 26.5163 11.691 26.1031 12.0312L10.7906 25.1562Z" fill="white"/>
</svg>
