<svg width="35" height="35" viewBox="0 0 35 35" fill="none" xmlns="http://www.w3.org/2000/svg">
<path d="M17.4987 32.0837C14.1202 31.233 11.3309 29.2944 9.13078 26.2678C6.93064 23.2413 5.83106 19.8813 5.83203 16.1878V7.29199L17.4987 2.91699L29.1654 7.29199V16.1878C29.1654 19.8823 28.0658 23.2428 25.8666 26.2693C23.6674 29.2958 20.8781 31.2339 17.4987 32.0837ZM17.4987 29.0212C19.8563 28.292 21.8251 26.8516 23.4049 24.7001C24.9848 22.5486 25.9084 20.1487 26.1758 17.5003H17.4987V6.01595L8.7487 9.2972V16.8441C8.7487 17.0142 8.773 17.233 8.82162 17.5003H17.4987V29.0212Z" fill="#E1E0E3"/>
</svg>
