<svg width="34" height="34" viewBox="0 0 34 34" fill="none" xmlns="http://www.w3.org/2000/svg">
<path fill-rule="evenodd" clip-rule="evenodd" d="M20.1862 3.54167C20.1862 3.44774 20.1489 3.35765 20.0825 3.29123C20.016 3.22481 19.926 3.1875 19.832 3.1875H9.91536C8.88213 3.1875 7.8912 3.59795 7.16059 4.32856C6.42998 5.05917 6.01953 6.05009 6.01953 7.08333V26.9167C6.01953 27.9499 6.42998 28.9408 7.16059 29.6714C7.8912 30.402 8.88213 30.8125 9.91536 30.8125H24.082C25.1153 30.8125 26.1062 30.402 26.8368 29.6714C27.5674 28.9408 27.9779 27.9499 27.9779 26.9167V12.9583C27.9779 12.8643 27.9405 12.7742 27.8741 12.7078C27.8077 12.6414 27.7176 12.6041 27.6237 12.6041H21.2487C20.9669 12.6041 20.6967 12.4921 20.4974 12.2929C20.2981 12.0936 20.1862 11.8234 20.1862 11.5416V3.54167ZM21.2487 17.3542C21.5305 17.3542 21.8007 17.4661 22 17.6654C22.1993 17.8646 22.3112 18.1349 22.3112 18.4167C22.3112 18.6985 22.1993 18.9687 22 19.168C21.8007 19.3672 21.5305 19.4792 21.2487 19.4792H12.7487C12.4669 19.4792 12.1967 19.3672 11.9974 19.168C11.7981 18.9687 11.6862 18.6985 11.6862 18.4167C11.6862 18.1349 11.7981 17.8646 11.9974 17.6654C12.1967 17.4661 12.4669 17.3542 12.7487 17.3542H21.2487ZM21.2487 23.0208C21.5305 23.0208 21.8007 23.1328 22 23.332C22.1993 23.5313 22.3112 23.8015 22.3112 24.0833C22.3112 24.3651 22.1993 24.6354 22 24.8346C21.8007 25.0339 21.5305 25.1458 21.2487 25.1458H12.7487C12.4669 25.1458 12.1967 25.0339 11.9974 24.8346C11.7981 24.6354 11.6862 24.3651 11.6862 24.0833C11.6862 23.8015 11.7981 23.5313 11.9974 23.332C12.1967 23.1328 12.4669 23.0208 12.7487 23.0208H21.2487Z" fill="white"/>
<path d="M22.3125 4.00105C22.3125 3.74039 22.5859 3.57464 22.7885 3.73755C22.9604 3.87639 23.1129 4.03789 23.2461 4.22205L27.5145 10.1678C27.6108 10.3038 27.506 10.4795 27.3388 10.4795H22.6667C22.5727 10.4795 22.4827 10.4422 22.4162 10.3757C22.3498 10.3093 22.3125 10.2192 22.3125 10.1253V4.00105Z" fill="white"/>
</svg>
