<svg width="34" height="34" viewBox="0 0 34 34" fill="none" xmlns="http://www.w3.org/2000/svg">
<g clip-path="url(#clip0_1549_8626)">
<path d="M17.0016 11.333C16.0998 11.333 15.235 11.6912 14.5974 12.3288C13.9598 12.9665 13.6016 13.8313 13.6016 14.733C13.6016 15.6347 13.9598 16.4995 14.5974 17.1372C15.235 17.7748 16.0998 18.133 17.0016 18.133C17.9033 18.133 18.7681 17.7748 19.4057 17.1372C20.0433 16.4995 20.4016 15.6347 20.4016 14.733C20.4016 13.8313 20.0433 12.9665 19.4057 12.3288C18.7681 11.6912 17.9033 11.333 17.0016 11.333Z" fill="white"/>
<path fill-rule="evenodd" clip-rule="evenodd" d="M20.4 4.53333H18.1333V0H15.8667V4.53333H13.6C9.99306 4.53333 6.53384 5.96619 3.98335 8.51668C1.43285 11.0672 0 14.5264 0 18.1333C0 21.7403 1.43285 25.1995 3.98335 27.75C6.53384 30.3005 9.99306 31.7333 13.6 31.7333H20.4C20.6947 31.7333 20.9886 31.7235 21.2817 31.7039L30.3257 33.966C30.5155 34.0132 30.7142 34.0106 30.9026 33.9583C31.091 33.906 31.2627 33.8059 31.401 33.6676C31.5392 33.5294 31.6394 33.3577 31.6917 33.1693C31.7439 32.9809 31.7466 32.7821 31.6993 32.5924L30.3915 27.3587C32.1847 25.4163 33.3729 22.9935 33.8109 20.3865C34.2488 17.7795 33.9175 15.1014 32.8575 12.6797C31.7974 10.2581 30.0546 8.19782 27.8421 6.75102C25.6297 5.30421 23.0435 4.53357 20.4 4.53333ZM11.3333 14.7333C11.3333 13.2304 11.9304 11.7891 12.9931 10.7264C14.0558 9.66369 15.4971 9.06667 17 9.06667C18.5029 9.06667 19.9442 9.66369 21.0069 10.7264C22.0696 11.7891 22.6667 13.2304 22.6667 14.7333C22.6667 16.2362 22.0696 17.6776 21.0069 18.7403C19.9442 19.803 18.5029 20.4 17 20.4C15.4971 20.4 14.0558 19.803 12.9931 18.7403C11.9304 17.6776 11.3333 16.2362 11.3333 14.7333ZM17 27.2C14.6815 27.204 12.4315 26.4145 10.6239 24.9628L12.0428 23.1948C13.4005 24.2828 15.1232 24.9333 17 24.9333C18.8768 24.9333 20.5995 24.2828 21.9572 23.1948L23.3761 24.9628C21.5685 26.4145 19.3185 27.204 17 27.2Z" fill="white"/>
</g>
<defs>
<clipPath id="clip0_1549_8626">
<rect width="34" height="34" fill="white"/>
</clipPath>
</defs>
</svg>
