<svg width="35" height="35" viewBox="0 0 35 35" fill="none" xmlns="http://www.w3.org/2000/svg">
<path d="M2.91602 17.5C2.91602 20.981 4.29882 24.3194 6.76024 26.7808C9.22165 29.2422 12.56 30.625 16.041 30.625C19.5264 30.625 22.866 29.2542 25.3743 26.8333L23.1868 24.6458C22.2687 25.6181 21.1608 26.3916 19.9316 26.9184C18.7025 27.4452 17.3783 27.714 16.041 27.7083C6.94102 27.7083 2.39102 16.7125 8.82227 10.2813C15.2535 3.85 26.2493 8.41458 26.2493 17.5H21.8743L27.7077 23.3333H27.8535L33.541 17.5H29.166C29.166 14.019 27.7832 10.6806 25.3218 8.21922C22.8604 5.75781 19.522 4.375 16.041 4.375C12.56 4.375 9.22165 5.75781 6.76024 8.21922C4.29882 10.6806 2.91602 14.019 2.91602 17.5Z" fill="#EFEFEF"/>
</svg>
