<svg width="35" height="35" viewBox="0 0 35 35" fill="none" xmlns="http://www.w3.org/2000/svg">
<path d="M29.1667 24.792C29.9402 24.792 30.6821 24.4847 31.2291 23.9377C31.776 23.3907 32.0833 22.6489 32.0833 21.8753V5.83366C32.0833 5.06011 31.776 4.31825 31.2291 3.77126C30.6821 3.22428 29.9402 2.91699 29.1667 2.91699H13.7958C14.3062 3.80658 14.5833 4.81283 14.5833 5.83366H29.1667V21.8753H16.0417V24.792M21.875 10.2087V13.1253H13.125V32.0837H10.2083V23.3337H7.29167V32.0837H4.375V20.417H2.1875V13.1253C2.1875 12.3518 2.49479 11.6099 3.04177 11.0629C3.58875 10.5159 4.33062 10.2087 5.10417 10.2087H21.875ZM11.6667 5.83366C11.6667 6.60721 11.3594 7.34907 10.8124 7.89605C10.2654 8.44304 9.52355 8.75033 8.75 8.75033C7.97645 8.75033 7.23459 8.44304 6.6876 7.89605C6.14062 7.34907 5.83333 6.60721 5.83333 5.83366C5.83333 5.06011 6.14062 4.31825 6.6876 3.77126C7.23459 3.22428 7.97645 2.91699 8.75 2.91699C9.52355 2.91699 10.2654 3.22428 10.8124 3.77126C11.3594 4.31825 11.6667 5.06011 11.6667 5.83366Z" fill="white"/>
</svg>
