<svg width="35" height="35" viewBox="0 0 35 35" fill="none" xmlns="http://www.w3.org/2000/svg">
<path d="M10.2083 4.375H7.29167C6.51812 4.375 5.77625 4.68229 5.22927 5.22927C4.68229 5.77625 4.375 6.51812 4.375 7.29167V10.2083M4.375 24.7917V27.7083C4.375 28.4819 4.68229 29.2237 5.22927 29.7707C5.77625 30.3177 6.51812 30.625 7.29167 30.625H10.2083M24.7917 30.625H27.7083C28.4819 30.625 29.2237 30.3177 29.7707 29.7707C30.3177 29.2237 30.625 28.4819 30.625 27.7083V24.7917M30.625 10.2083V7.29167C30.625 6.51812 30.3177 5.77625 29.7707 5.22927C29.2237 4.68229 28.4819 4.375 27.7083 4.375H24.7917" stroke="white" stroke-width="2" stroke-linecap="round" stroke-linejoin="round"/>
<path d="M17.5 17.5C19.9162 17.5 21.875 15.5412 21.875 13.125C21.875 10.7088 19.9162 8.75 17.5 8.75C15.0838 8.75 13.125 10.7088 13.125 13.125C13.125 15.5412 15.0838 17.5 17.5 17.5Z" fill="white" stroke="white" stroke-width="2" stroke-linecap="round" stroke-linejoin="round"/>
<path d="M17.4987 17.5C13.4722 17.5 10.207 20.1104 10.207 23.3333H24.7904C24.7904 20.1104 21.5252 17.5 17.4987 17.5Z" fill="white" stroke="white" stroke-width="2" stroke-linecap="round" stroke-linejoin="round"/>
</svg>
