<svg width="35" height="35" viewBox="0 0 35 35" fill="none" xmlns="http://www.w3.org/2000/svg">
<path d="M2.99964 28.459L11.878 19.4903L16.6759 24.084L22.5398 18.958L25.8065 22.143M32.0846 8.02051C32.0846 7.44035 31.8542 6.88395 31.4439 6.47371C31.0337 6.06348 30.4773 5.83301 29.8971 5.83301H5.10547C4.52531 5.83301 3.96891 6.06348 3.55867 6.47371C3.14844 6.88395 2.91797 7.44035 2.91797 8.02051V14.583H32.0846V8.02051Z" stroke="white" stroke-width="2.91667" stroke-linecap="round" stroke-linejoin="round"/>
<path d="M32.0846 13.1247V26.9788C32.0846 27.559 31.8542 28.1154 31.4439 28.5256C31.0337 28.9359 30.4773 29.1663 29.8971 29.1663H8.7513M13.9371 10.208H27.0621M8.10234 10.208H9.56068M2.91797 13.1247V19.6872" stroke="white" stroke-width="2.91667" stroke-linecap="round" stroke-linejoin="round"/>
</svg>
