<svg width="35" height="35" viewBox="0 0 35 35" fill="none" xmlns="http://www.w3.org/2000/svg">
<path d="M13.9466 2.917C14.8976 2.91574 15.824 3.21934 16.5898 3.78325V11.4847H14.4388C14.2221 10.8259 13.7777 10.2659 13.1853 9.90512C12.593 9.54437 11.8915 9.4065 11.2067 9.51625C10.5219 9.626 9.89856 9.97618 9.44862 10.504C8.99868 11.0318 8.75154 11.7026 8.75154 12.3962C8.75154 13.0897 8.99868 13.7606 9.44862 14.2884C9.89856 14.8161 10.5219 15.1663 11.2067 15.2761C11.8915 15.3858 12.593 15.248 13.1853 14.8872C13.7777 14.5265 14.2221 13.9664 14.4388 13.3076H16.5898V30.8047C15.6374 31.6309 14.4185 32.0852 13.1577 32.0837C12.0548 32.0833 10.98 31.7361 10.0853 31.0913C9.19062 30.4464 8.5214 29.5365 8.17234 28.4903L7.89891 27.6671C6.52624 27.5032 5.26128 26.8418 4.3434 25.8081C3.42551 24.7743 2.91838 23.44 2.91797 22.0576C2.91797 20.5803 3.48672 19.2357 4.41495 18.2295H9.48047C10.1848 18.2295 10.7565 18.8012 10.7565 19.5055V19.8337C10.0977 20.0504 9.53767 20.4948 9.17692 21.0871C8.81617 21.6795 8.6783 22.381 8.78805 23.0658C8.8978 23.7506 9.24799 24.3739 9.77578 24.8238C10.3036 25.2738 10.9744 25.5209 11.668 25.5209C12.3615 25.5209 13.0324 25.2738 13.5602 24.8238C14.0879 24.3739 14.4381 23.7506 14.5479 23.0658C14.6576 22.381 14.5198 21.6795 14.159 21.0871C13.7983 20.4948 13.2382 20.0504 12.5794 19.8337V19.5055C12.5794 18.6836 12.2529 17.8954 11.6718 17.3142C11.0906 16.7331 10.3024 16.4066 9.48047 16.4066H5.77484C4.8735 15.4063 4.37518 14.1072 4.3763 12.7607C4.37658 11.3733 4.90423 10.0378 5.85237 9.02478C6.8005 8.01179 8.09823 7.39706 9.48266 7.30512C9.50273 6.13446 9.98187 5.01853 10.8168 4.19774C11.6518 3.37696 12.7758 2.91702 13.9466 2.917ZM21.056 2.917C22.2268 2.91702 23.3508 3.37696 24.1858 4.19774C25.0207 5.01853 25.4999 6.13446 25.5199 7.30512C26.9044 7.39706 28.2021 8.01179 29.1502 9.02478C30.0984 10.0378 30.626 11.3733 30.6263 12.7607C30.6267 13.5455 30.4577 14.3212 30.1309 15.0347C29.8041 15.7482 29.3272 16.3828 28.7327 16.8951C29.8621 17.3988 30.7951 18.259 31.3887 19.3439C31.9822 20.4288 32.2035 21.6784 32.0186 22.9012C31.8337 24.1239 31.2528 25.2523 30.365 26.1131C29.4772 26.974 28.3315 27.5199 27.1037 27.6671L26.8303 28.4911C26.4811 29.5371 25.8118 30.4468 24.9171 31.0916C24.0225 31.7363 22.9477 32.0834 21.8449 32.0837C20.5324 32.0837 19.3337 31.6002 18.4128 30.8047V23.516H21.1471C21.969 23.516 22.7573 23.1895 23.3384 22.6083C23.9196 22.0271 24.2461 21.2389 24.2461 20.417V20.2704C24.9049 20.0537 25.4649 19.6093 25.8257 19.017C26.1864 18.4246 26.3243 17.7231 26.2146 17.0383C26.1048 16.3535 25.7546 15.7302 25.2268 15.2803C24.699 14.8303 24.0282 14.5832 23.3346 14.5832C22.6411 14.5832 21.9702 14.8303 21.4424 15.2803C20.9147 15.7302 20.5645 16.3535 20.4547 17.0383C20.345 17.7231 20.4828 18.4246 20.8436 19.017C21.2043 19.6093 21.7644 20.0537 22.4232 20.2704V20.417C22.4232 20.7554 22.2887 21.08 22.0494 21.3193C21.8101 21.5586 21.4856 21.693 21.1471 21.693H18.4128V3.78325C19.1786 3.21934 20.105 2.91574 21.056 2.917ZM11.668 21.5107C11.958 21.5107 12.2362 21.626 12.4414 21.8311C12.6465 22.0362 12.7617 22.3144 12.7617 22.6045C12.7617 22.8946 12.6465 23.1728 12.4414 23.3779C12.2362 23.583 11.958 23.6982 11.668 23.6982C11.3779 23.6982 11.0997 23.583 10.8946 23.3779C10.6895 23.1728 10.5742 22.8946 10.5742 22.6045C10.5742 22.3144 10.6895 22.0362 10.8946 21.8311C11.0997 21.626 11.3779 21.5107 11.668 21.5107ZM23.3346 16.4066C23.6247 16.4066 23.9029 16.5218 24.108 16.7269C24.3132 16.9321 24.4284 17.2102 24.4284 17.5003C24.4284 17.7904 24.3132 18.0686 24.108 18.2737C23.9029 18.4788 23.6247 18.5941 23.3346 18.5941C23.0446 18.5941 22.7664 18.4788 22.5612 18.2737C22.3561 18.0686 22.2409 17.7904 22.2409 17.5003C22.2409 17.2102 22.3561 16.9321 22.5612 16.7269C22.7664 16.5218 23.0446 16.4066 23.3346 16.4066ZM11.668 11.3024C11.958 11.3024 12.2362 11.4176 12.4414 11.6228C12.6465 11.8279 12.7617 12.1061 12.7617 12.3962C12.7617 12.6862 12.6465 12.9644 12.4414 13.1696C12.2362 13.3747 11.958 13.4899 11.668 13.4899C11.3779 13.4899 11.0997 13.3747 10.8946 13.1696C10.6895 12.9644 10.5742 12.6862 10.5742 12.3962C10.5742 12.1061 10.6895 11.8279 10.8946 11.6228C11.0997 11.4176 11.3779 11.3024 11.668 11.3024Z" fill="white"/>
</svg>
