<svg width="35" height="35" viewBox="0 0 35 35" fill="none" xmlns="http://www.w3.org/2000/svg">
<path fill-rule="evenodd" clip-rule="evenodd" d="M13.7318 18.9582C13.3498 19.8325 13.1343 20.796 13.1253 21.8088L13.125 21.875V30.625H4.375V24.7917C4.375 21.6009 6.93349 19.0106 10.1119 18.9591L10.2083 18.9583L13.7318 18.9582ZM24.7916 16.0417C28.0134 16.0417 30.625 18.6534 30.625 21.875V30.625H14.5833V21.875C14.5833 18.6534 17.195 16.0417 20.4167 16.0417H24.7916ZM11.6667 8.75C14.0788 8.75 16.0417 10.7129 16.0417 13.125C16.0417 15.5371 14.0788 17.5 11.6667 17.5C9.25463 17.5 7.29169 15.5371 7.29169 13.125C7.29169 10.7129 9.25463 8.75 11.6667 8.75ZM22.6042 4.375C25.4188 4.375 27.7084 6.66456 27.7084 9.47919C27.7084 12.2938 25.4188 14.5833 22.6043 14.5833C19.7896 14.5833 17.5001 12.2938 17.5001 9.47919C17.5 6.66456 19.7896 4.375 22.6042 4.375Z" fill="white"/>
</svg>
