<svg width="35" height="35" viewBox="0 0 35 35" fill="none" xmlns="http://www.w3.org/2000/svg">
<path d="M8.75 7.29167C8.75 6.51812 9.05729 5.77625 9.60427 5.22927C10.1513 4.68229 10.8931 4.375 11.6667 4.375H23.3333C24.1069 4.375 24.8487 4.68229 25.3957 5.22927C25.9427 5.77625 26.25 6.51812 26.25 7.29167V27.7083C26.25 28.4819 25.9427 29.2237 25.3957 29.7707C24.8487 30.3177 24.1069 30.625 23.3333 30.625H11.6667C10.8931 30.625 10.1513 30.3177 9.60427 29.7707C9.05729 29.2237 8.75 28.4819 8.75 27.7083V7.29167ZM23.3333 7.29167H11.6667V27.7083H23.3333V7.29167Z" fill="white"/>
<path d="M18.9596 24.7913C18.9596 25.1781 18.806 25.549 18.5325 25.8225C18.259 26.096 17.8881 26.2497 17.5013 26.2497C17.1145 26.2497 16.7436 26.096 16.4701 25.8225C16.1966 25.549 16.043 25.1781 16.043 24.7913C16.043 24.4046 16.1966 24.0336 16.4701 23.7601C16.7436 23.4867 17.1145 23.333 17.5013 23.333C17.8881 23.333 18.259 23.4867 18.5325 23.7601C18.806 24.0336 18.9596 24.4046 18.9596 24.7913Z" fill="white"/>
</svg>
