<svg width="35" height="35" viewBox="0 0 35 35" fill="none" xmlns="http://www.w3.org/2000/svg">
<path d="M13.1243 18.9587V7.29199C13.1243 5.68783 14.4368 4.37533 16.041 4.37533H29.166C30.7702 4.37533 32.0827 5.68783 32.0827 7.29199V16.042H27.0806L25.2139 13.5045C25.1958 13.4743 25.1701 13.4493 25.1395 13.432C25.1088 13.4146 25.0742 13.4055 25.0389 13.4055C25.0037 13.4055 24.9691 13.4146 24.9384 13.432C24.9077 13.4493 24.8821 13.4743 24.8639 13.5045L21.9618 17.5003C21.8743 17.5878 21.6993 17.6024 21.6118 17.5003L19.5264 14.9482C19.5056 14.9242 19.4799 14.9049 19.4509 14.8916C19.422 14.8784 19.3905 14.8715 19.3587 14.8715C19.3269 14.8715 19.2955 14.8784 19.2665 14.8916C19.2376 14.9049 19.2118 14.9242 19.191 14.9482L16.1139 18.8274C15.9973 18.9587 16.0993 19.1774 16.2743 19.1774H25.5202V21.8753H16.041C14.4223 21.8753 13.1243 20.5774 13.1243 18.9587ZM8.74935 32.0837V30.6253H5.83268V32.0837H2.91602V2.91699H5.83268V4.37533H8.74935V2.91699H12.2348C10.9952 3.99616 10.2077 5.54199 10.2077 7.29199V18.9587C10.2077 22.1816 12.8181 24.792 16.041 24.792H22.8952C21.3931 26.0024 20.416 27.8253 20.416 29.8962C20.416 30.6691 20.5764 31.3982 20.8243 32.0837H8.74935ZM5.83268 10.2087H8.74935V7.29199H5.83268V10.2087ZM5.83268 16.042H8.74935V13.1253H5.83268V16.042ZM5.83268 21.8753H8.74935V18.9587H5.83268V21.8753ZM8.74935 27.7087V24.792H5.83268V27.7087H8.74935ZM33.541 18.9587V21.8753H30.6243V29.8962C30.6243 30.8631 30.2402 31.7904 29.5565 32.4742C28.8728 33.1579 27.9455 33.542 26.9785 33.542C26.0116 33.542 25.0842 33.1579 24.4005 32.4742C23.7168 31.7904 23.3327 30.8631 23.3327 29.8962C23.333 29.291 23.484 28.6953 23.772 28.1631C24.06 27.6308 24.476 27.1786 24.9824 26.8472C25.4888 26.5158 26.0698 26.3158 26.6729 26.265C27.2759 26.2143 27.8822 26.3145 28.4368 26.5566V18.9587H33.541Z" fill="white"/>
</svg>
