<svg width="35" height="35" viewBox="0 0 35 35" fill="none" xmlns="http://www.w3.org/2000/svg">
<path d="M28.8737 32.958L25.0091 29.1663H9.47786C7.24175 29.1663 5.34592 28.3886 3.79036 26.833C2.23481 25.2775 1.45703 23.3816 1.45703 21.1455C1.45703 19.2788 2.0355 17.6163 3.19245 16.158C4.34939 14.69 5.83689 13.7518 7.65495 13.3434C7.73273 13.149 7.80564 12.9594 7.8737 12.7747C7.97092 12.59 8.04384 12.3906 8.09245 12.1768L2.04036 6.12467L4.08203 4.08301L30.9154 30.9163M9.47786 26.2497H22.0924L10.3529 14.5101C10.3043 14.7823 10.2702 15.0497 10.2508 15.3122C10.2216 15.5358 10.207 15.7788 10.207 16.0413H9.47786C8.06814 16.0413 6.86745 16.542 5.87578 17.5434C4.87439 18.5351 4.3737 19.7358 4.3737 21.1455C4.3737 22.5552 4.87439 23.7705 5.87578 24.7913C6.86745 25.7636 8.06814 26.2497 9.47786 26.2497ZM31.4987 27.3434L29.3841 25.3018C29.8022 24.9615 30.1133 24.5677 30.3174 24.1205C30.5216 23.6733 30.6237 23.1677 30.6237 22.6038C30.6237 21.583 30.2688 20.7226 29.5591 20.0226C28.8591 19.3129 27.9987 18.958 26.9779 18.958H24.7904V16.0413C24.7904 14.0288 24.0806 12.308 22.6612 10.8788C21.2418 9.4594 19.5209 8.74967 17.4987 8.74967C16.8473 8.74967 16.2154 8.82745 15.6029 8.98301C14.9904 9.14829 14.407 9.40106 13.8529 9.74134L11.7383 7.62676C12.5938 7.04342 13.498 6.5962 14.4508 6.28509C15.4133 5.9837 16.4293 5.83301 17.4987 5.83301C20.3473 5.83301 22.7584 6.82467 24.732 8.80801C26.7154 10.7816 27.707 13.1927 27.707 16.0413C29.389 16.2358 30.7793 16.965 31.8779 18.2288C32.9862 19.4733 33.5404 20.9316 33.5404 22.6038C33.5404 23.5761 33.3605 24.4559 33.0008 25.2434C32.6313 26.0601 32.1306 26.7601 31.4987 27.3434Z" fill="white"/>
</svg>
