<svg width="35" height="35" viewBox="0 0 35 35" fill="none" xmlns="http://www.w3.org/2000/svg">
<path fill-rule="evenodd" clip-rule="evenodd" d="M30.625 16.042V23.3337C30.625 27.4578 30.625 29.5214 29.3431 30.8018C28.0627 32.0837 25.9992 32.0837 21.875 32.0837H13.125C9.00083 32.0837 6.93729 32.0837 5.65688 30.8018C4.375 29.5214 4.375 27.4578 4.375 23.3337V16.042C4.375 17.4012 4.375 18.0807 4.59667 18.616C4.74325 18.9701 4.95818 19.2918 5.22918 19.5628C5.50018 19.8338 5.82193 20.0487 6.17604 20.1953C6.71125 20.417 7.39083 20.417 8.75 20.417H9.73438C10.5817 20.417 11.006 20.417 11.3444 20.6124C11.4297 20.6615 11.5098 20.7192 11.5835 20.7845C11.8752 21.0441 12.0094 21.4451 12.2777 22.2501L12.46 22.7985C12.7808 23.761 12.9412 24.2422 13.3233 24.5164C13.7054 24.792 14.2129 24.792 15.2279 24.792H19.7735C20.7871 24.792 21.2946 24.792 21.6767 24.5164C22.0588 24.2407 22.2192 23.761 22.54 22.7985L22.7223 22.2501C22.9906 21.4451 23.1248 21.0441 23.4165 20.7845C23.4902 20.7192 23.5703 20.6615 23.6556 20.6124C23.994 20.417 24.4183 20.417 25.2656 20.417H26.25C27.6092 20.417 28.2887 20.417 28.824 20.1953C29.1781 20.0487 29.4998 19.8338 29.7708 19.5628C30.0418 19.2918 30.2568 18.9701 30.4033 18.616C30.625 18.0807 30.625 17.4012 30.625 16.042Z" fill="white"/>
<path d="M23.3333 8.75H24.7917C27.5421 8.75 28.9158 8.75 29.7704 9.60458C30.625 10.4592 30.625 11.8329 30.625 14.5833V26.25C30.625 29.0004 30.625 30.3742 29.7704 31.2288C28.9158 32.0833 27.5421 32.0833 24.7917 32.0833H10.2083C7.45792 32.0833 6.08417 32.0833 5.22958 31.2288C4.375 30.3742 4.375 29.0004 4.375 26.25V14.5833C4.375 11.8329 4.375 10.4592 5.22958 9.60458C6.08417 8.75 7.45792 8.75 10.2083 8.75H11.6667M11.6667 14.5833L17.5 18.9583M17.5 18.9583L23.3333 14.5833M17.5 18.9583V4.375" stroke="white" stroke-width="2.91667"/>
</svg>
