<svg width="35" height="35" viewBox="0 0 35 35" fill="none" xmlns="http://www.w3.org/2000/svg">
<path d="M17.5 26.2491C16.7359 26.2493 15.9957 25.9828 15.407 25.4956C14.8184 25.0084 14.4183 24.331 14.2756 23.5804C12.13 22.9172 10.2404 21.6097 8.86375 19.8354C7.82444 18.497 7.1103 16.9355 6.77768 15.2739C6.44506 13.6124 6.50304 11.8963 6.94706 10.261C7.39108 8.62566 8.20899 7.11588 9.33627 5.85073C10.4636 4.58558 11.8694 3.59965 13.4429 2.97072C15.0163 2.34179 16.7144 2.08706 18.4032 2.22661C20.0919 2.36617 21.7252 2.8962 23.1741 3.77489C24.6229 4.65358 25.8479 5.85691 26.7522 7.28995C27.6565 8.72299 28.2154 10.3465 28.385 12.0326C28.4441 12.6341 27.9475 13.1241 27.3438 13.1241C26.74 13.1241 26.2566 12.6319 26.1844 12.0326C25.9891 10.4856 25.3841 9.01896 24.4319 7.78431C23.4796 6.54967 22.2148 5.5919 20.7682 5.01011C19.3216 4.42832 17.7458 4.24363 16.2039 4.47517C14.662 4.70671 13.2099 5.34606 11.998 6.32706C10.7861 7.30806 9.85832 8.59508 9.31069 10.0549C8.76306 11.5148 8.61547 13.0945 8.88318 14.6305C9.1509 16.1666 9.8242 17.6032 10.8334 18.7917C11.8426 19.9802 13.1511 20.8775 14.6234 21.3907C14.9018 20.8829 15.3096 20.4578 15.8054 20.1586C16.3012 19.8593 16.8674 19.6967 17.4464 19.6871C18.0254 19.6775 18.5966 19.8213 19.1021 20.1039C19.6076 20.3865 20.0292 20.7979 20.3242 21.2962C20.6193 21.7945 20.7772 22.362 20.7819 22.9411C20.7866 23.5201 20.638 24.0902 20.3512 24.5932C20.0643 25.0963 19.6495 25.5145 19.1487 25.8053C18.6479 26.0961 18.0791 26.2493 17.5 26.2491ZM8.75 22.9679V22.9088C8.15187 22.3731 7.60415 21.7837 7.11375 21.1479C6.75438 21.6868 6.56257 22.3201 6.5625 22.9679V24.0616C6.5625 28.3732 10.6312 32.8116 17.5 32.8116C24.3687 32.8116 28.4375 28.3732 28.4375 24.0616V22.9679C28.4375 22.0976 28.0918 21.263 27.4764 20.6477C26.8611 20.0323 26.0265 19.6866 25.1562 19.6866H21.875C22.3541 20.321 22.6953 21.0647 22.8594 21.8741H25.1562C25.4463 21.8741 25.7245 21.9894 25.9296 22.1945C26.1348 22.3996 26.25 22.6778 26.25 22.9679V24.0616C26.25 27.2072 23.1175 30.6241 17.5 30.6241C11.8825 30.6241 8.75 27.2072 8.75 24.0616V22.9679ZM17.5 17.4991C16.2483 17.4991 15.0345 17.9284 14.0612 18.7154C13.1049 18.1294 12.3152 17.3074 11.7682 16.3283C11.2211 15.3491 10.9351 14.2457 10.9375 13.1241C10.9378 11.98 11.2373 10.8559 11.8061 9.86318C12.3749 8.8705 13.1934 8.04379 14.1803 7.46503C15.1673 6.88628 16.2883 6.5756 17.4324 6.56382C18.5764 6.55203 19.7037 6.83954 20.7023 7.39784C21.701 7.95614 22.5363 8.76582 23.1255 9.74656C23.7146 10.7273 24.0372 11.8451 24.0611 12.9889C24.085 14.1328 23.8094 15.263 23.2617 16.2675C22.714 17.272 21.9132 18.1159 20.9387 18.7154C19.9655 17.9284 18.7517 17.4991 17.5 17.4991ZM13.125 13.1241C13.125 14.2844 13.5859 15.3972 14.4064 16.2177C15.2269 17.0382 16.3397 17.4991 17.5 17.4991C18.6603 17.4991 19.7731 17.0382 20.5936 16.2177C21.4141 15.3972 21.875 14.2844 21.875 13.1241C21.875 11.9638 21.4141 10.851 20.5936 10.0305C19.7731 9.21005 18.6603 8.74912 17.5 8.74912C16.3397 8.74912 15.2269 9.21005 14.4064 10.0305C13.5859 10.851 13.125 11.9638 13.125 13.1241Z" fill="white"/>
</svg>
