<svg width="35" height="35" viewBox="0 0 35 35" fill="none" xmlns="http://www.w3.org/2000/svg">
<path d="M30.6237 11.667C28.5091 11.667 27.3279 13.767 27.8091 15.3274L22.632 20.5191C22.1945 20.3878 21.5529 20.3878 21.1154 20.5191L17.3966 16.8003C17.8924 15.2399 16.7112 13.1253 14.582 13.1253C12.4674 13.1253 11.2716 15.2253 11.7674 16.8003L5.11745 23.4357C3.55703 22.9545 1.45703 24.1357 1.45703 26.2503C1.45703 27.8545 2.76953 29.167 4.3737 29.167C6.48828 29.167 7.66953 27.067 7.18828 25.5066L13.8237 18.8566C14.2612 18.9878 14.9029 18.9878 15.3404 18.8566L19.0591 22.5753C18.5633 24.1357 19.7445 26.2503 21.8737 26.2503C23.9883 26.2503 25.1841 24.1503 24.6883 22.5753L29.8799 17.3982C31.4404 17.8795 33.5404 16.6982 33.5404 14.5837C33.5404 12.9795 32.2279 11.667 30.6237 11.667Z" fill="white"/>
<path d="M21.8737 13.125L23.2445 10.1062L26.2487 8.75L23.2445 7.39375L21.8737 4.375L20.532 7.39375L17.4987 8.75L20.532 10.1062L21.8737 13.125ZM5.10286 16.0417L5.83203 13.125L8.7487 12.3958L5.83203 11.6667L5.10286 8.75L4.3737 11.6667L1.45703 12.3958L4.3737 13.125L5.10286 16.0417Z" fill="white"/>
</svg>
