<svg width="35" height="35" viewBox="0 0 35 35" fill="none" xmlns="http://www.w3.org/2000/svg">
<path d="M17.5013 2.91699C24.9067 2.91699 31.023 8.43678 31.9607 15.5855C29.7163 13.8356 26.9097 12.9664 24.0691 13.1416C21.2285 13.3167 18.5499 14.5242 16.5375 16.5366C14.5251 18.549 13.3177 21.2275 13.1426 24.0681C12.9674 26.9087 13.8366 29.7153 15.5865 31.9597C8.43776 31.022 2.91797 24.9057 2.91797 17.5003C2.91797 9.44595 9.44693 2.91699 17.5013 2.91699ZM17.5013 5.59012C14.1223 5.59012 11.0701 6.99887 8.90297 9.25928C9.16109 9.43866 9.38568 9.69095 9.54026 10.038C9.83776 10.7045 9.83776 11.3914 9.83776 11.9995C9.83776 12.4778 9.83776 12.9328 9.99089 13.261C10.2009 13.7101 11.108 13.9026 11.9086 14.0689L11.9378 14.0762C12.2148 14.1345 12.4992 14.1928 12.7588 14.2657C13.4967 14.4699 14.0684 15.1335 14.5248 15.6657C14.7144 15.886 14.9959 16.2112 15.1373 16.2928C15.2103 16.2403 15.4451 15.9851 15.5603 15.5666C15.6507 15.2457 15.6244 14.9628 15.4946 14.8082C14.678 13.8457 14.7232 11.9937 14.9755 11.3097C15.3721 10.232 16.6117 10.3122 17.5188 10.3705H17.5276C17.863 10.3924 18.178 10.4143 18.4142 10.3837C19.1011 10.2962 19.4278 9.48533 19.6319 8.97783C19.6976 8.81595 19.7501 8.6847 19.7982 8.61908C20.224 8.03574 21.5278 7.15637 22.3357 6.61387C20.8144 5.9356 19.1669 5.58672 17.5013 5.59012ZM33.543 24.792C33.543 25.9411 33.3166 27.0789 32.8769 28.1405C32.4372 29.2021 31.7927 30.1667 30.9802 30.9792C30.1676 31.7917 29.203 32.4362 28.1414 32.8759C27.0799 33.3157 25.942 33.542 24.793 33.542C23.6439 33.542 22.5061 33.3157 21.4445 32.8759C20.3829 32.4362 19.4183 31.7917 18.6058 30.9792C17.7933 30.1667 17.1488 29.2021 16.709 28.1405C16.2693 27.0789 16.043 25.9411 16.043 24.792C16.043 22.4713 16.9648 20.2458 18.6058 18.6048C20.2467 16.9639 22.4723 16.042 24.793 16.042C27.1136 16.042 29.3392 16.9639 30.9802 18.6048C32.6211 20.2458 33.543 22.4713 33.543 24.792ZM23.3346 26.2503H29.168V23.3337H26.2513V20.417H23.3346V26.2503Z" fill="white"/>
</svg>
