<svg width="35" height="35" viewBox="0 0 35 35" fill="none" xmlns="http://www.w3.org/2000/svg">
<path d="M8.7487 27.708V14.583C8.7487 12.2624 9.67057 10.0368 11.3115 8.39582C12.9525 6.75488 15.1781 5.83301 17.4987 5.83301C19.8193 5.83301 22.0449 6.75488 23.6859 8.39582C25.3268 10.0368 26.2487 12.2624 26.2487 14.583V27.708M8.7487 27.708H26.2487M8.7487 27.708H5.83203M26.2487 27.708H29.1654M16.0404 32.083H18.957" stroke="white" stroke-width="2.91667" stroke-linecap="round" stroke-linejoin="round"/>
<path d="M17.4974 5.83366C18.3028 5.83366 18.9557 5.18074 18.9557 4.37533C18.9557 3.56991 18.3028 2.91699 17.4974 2.91699C16.692 2.91699 16.0391 3.56991 16.0391 4.37533C16.0391 5.18074 16.692 5.83366 17.4974 5.83366Z" stroke="white" stroke-width="2.91667"/>
</svg>
