<svg width="35" height="35" viewBox="0 0 35 35" fill="none" xmlns="http://www.w3.org/2000/svg">
<path d="M28.4375 2.1875H32.8125V6.5625H28.4375V2.1875ZM28.4375 8.75H32.8125V13.125H28.4375V8.75ZM21.875 2.1875H26.25V6.5625H21.875V2.1875ZM21.875 8.75H26.25V13.125H21.875V8.75Z" fill="white" stroke="white"/>
<path d="M30.625 17.5V24.0625H4.375V6.5625H17.5V4.375H4.375C3.79484 4.375 3.23844 4.60547 2.8282 5.0157C2.41797 5.42594 2.1875 5.98234 2.1875 6.5625V24.0625C2.1875 24.6427 2.41797 25.1991 2.8282 25.6093C3.23844 26.0195 3.79484 26.25 4.375 26.25H13.125V30.625H8.75V32.8125H26.25V30.625H21.875V26.25H30.625C31.2052 26.25 31.7616 26.0195 32.1718 25.6093C32.582 25.1991 32.8125 24.6427 32.8125 24.0625V17.5H30.625ZM19.6875 30.625H15.3125V26.25H19.6875V30.625Z" fill="white" stroke="white"/>
</svg>
