<svg width="36" height="35" viewBox="0 0 36 35" fill="none" xmlns="http://www.w3.org/2000/svg">
<path d="M18 30.625C20.9122 30.6246 23.7415 29.6557 26.0425 27.8707C28.3436 26.0858 29.9857 23.5864 30.7103 20.7658C31.4349 17.9452 31.2009 14.9637 30.045 12.2908C28.8892 9.61779 26.8772 7.40513 24.3259 6.00112C21.7745 4.59712 18.8286 4.08151 15.9521 4.53547C13.0755 4.98943 10.4316 6.38718 8.43662 8.50867C6.44162 10.6302 5.20884 13.3549 4.93235 16.2539C4.65586 19.1529 5.35137 22.0615 6.90938 24.5219L4.875 30.625L10.9781 28.5906C13.0775 29.9231 15.5135 30.6288 18 30.625Z" stroke="white" stroke-width="2.91667" stroke-linecap="round" stroke-linejoin="round"/>
</svg>
