<svg width="35" height="35" viewBox="0 0 35 35" fill="none" xmlns="http://www.w3.org/2000/svg">
<path d="M2.91797 7.29167C2.91797 6.51812 3.22526 5.77625 3.77224 5.22927C4.31922 4.68229 5.06109 4.375 5.83464 4.375H14.5846V30.625H5.83464C5.06109 30.625 4.31922 30.3177 3.77224 29.7707C3.22526 29.2237 2.91797 28.4819 2.91797 27.7083V7.29167ZM20.418 4.375H29.168C29.9415 4.375 30.6834 4.68229 31.2304 5.22927C31.7773 5.77625 32.0846 6.51812 32.0846 7.29167V14.5833H20.418V4.375ZM20.418 20.4167H32.0846V27.7083C32.0846 28.4819 31.7773 29.2237 31.2304 29.7707C30.6834 30.3177 29.9415 30.625 29.168 30.625H20.418V20.4167Z" stroke="white" stroke-width="2.91667" stroke-linecap="round" stroke-linejoin="round"/>
</svg>
