<svg width="35" height="35" viewBox="0 0 35 35" fill="none" xmlns="http://www.w3.org/2000/svg">
<path d="M12.8333 15.9689L15.9688 12.797L13.9271 10.7189L13.3438 11.3022C13.0764 11.5696 12.7424 11.7096 12.3419 11.7222C11.9413 11.7349 11.5947 11.5949 11.3021 11.3022C11.0094 11.0096 10.8636 10.6635 10.8646 10.2639C10.8656 9.86433 11.0114 9.51773 11.3021 9.22412L11.849 8.67724L10.2083 7.03662L7.03646 10.2085L12.8333 15.9689ZM24.7917 27.9637L27.9635 24.7918L26.3229 23.1512L25.7396 23.6981C25.4479 23.9897 25.1076 24.1356 24.7188 24.1356C24.3299 24.1356 23.9896 23.9897 23.6979 23.6981C23.4063 23.4064 23.2604 23.0661 23.2604 22.6772C23.2604 22.2884 23.4063 21.9481 23.6979 21.6564L24.2448 21.0731L22.1667 19.0314L19.0313 22.1668L24.7917 27.9637ZM5.83333 30.6252C5.42014 30.6252 5.07403 30.4852 4.795 30.2052C4.51597 29.9252 4.37597 29.5791 4.375 29.1668V25.047C4.375 24.8526 4.41146 24.6645 4.48438 24.4827C4.55729 24.3009 4.66667 24.1365 4.8125 23.9897L10.7552 18.047L4.44792 11.7397C4.03472 11.3265 3.82812 10.8161 3.82812 10.2085C3.82812 9.60085 4.03472 9.09044 4.44792 8.67724L8.67708 4.44808C9.09028 4.03488 9.60069 3.8346 10.2083 3.84724C10.816 3.85988 11.3264 4.07231 11.7396 4.48453L18.0833 10.7918L23.5885 5.25016C23.8802 4.95849 24.2083 4.73974 24.5729 4.59391C24.9375 4.44808 25.3142 4.37516 25.7031 4.37516C26.092 4.37516 26.4688 4.44808 26.8333 4.59391C27.1979 4.73974 27.526 4.95849 27.8177 5.25016L29.75 7.21891C30.0417 7.51058 30.2604 7.8387 30.4063 8.20328C30.5521 8.56787 30.625 8.9446 30.625 9.33349C30.625 9.72238 30.5521 10.0933 30.4063 10.4462C30.2604 10.7991 30.0417 11.1209 29.75 11.4116L24.2448 16.9533L30.5521 23.2606C30.9653 23.6738 31.1719 24.1842 31.1719 24.7918C31.1719 25.3995 30.9653 25.9099 30.5521 26.3231L26.3229 30.5522C25.9097 30.9654 25.3993 31.172 24.7917 31.172C24.184 31.172 23.6736 30.9654 23.2604 30.5522L16.9531 24.245L11.0104 30.1877C10.8646 30.3335 10.7008 30.4429 10.519 30.5158C10.3372 30.5887 10.1485 30.6252 9.95312 30.6252H5.83333ZM7.29167 27.7085H9.33333L23.625 13.4533L21.5469 11.3752L7.29167 25.6668V27.7085ZM22.6042 12.4325L21.5469 11.3752L23.625 13.4533L22.6042 12.4325Z" fill="#EFEFEF"/>
</svg>
