<svg width="35" height="35" viewBox="0 0 35 35" fill="none" xmlns="http://www.w3.org/2000/svg">
<path d="M33.5417 27.7083C33.5417 29.2554 32.9271 30.7392 31.8331 31.8331C30.7392 32.9271 29.2554 33.5417 27.7083 33.5417H24.7917V30.625H27.7083C28.4819 30.625 29.2237 30.3177 29.7707 29.7707C30.3177 29.2237 30.625 28.4819 30.625 27.7083C30.625 26.9348 30.3177 26.1929 29.7707 25.6459C29.2237 25.099 28.4819 24.7917 27.7083 24.7917H24.7917V21.875H27.7083C29.2554 21.875 30.7392 22.4896 31.8331 23.5835C32.9271 24.6775 33.5417 26.1612 33.5417 27.7083ZM13.125 27.7083C13.125 26.1612 13.7396 24.6775 14.8335 23.5835C15.9275 22.4896 17.4112 21.875 18.9583 21.875H21.875V24.7917H18.9583C18.1848 24.7917 17.4429 25.099 16.8959 25.6459C16.349 26.1929 16.0417 26.9348 16.0417 27.7083C16.0417 28.4819 16.349 29.2237 16.8959 29.7707C17.4429 30.3177 18.1848 30.625 18.9583 30.625H21.875V33.5417H18.9583C17.4112 33.5417 15.9275 32.9271 14.8335 31.8331C13.7396 30.7392 13.125 29.2554 13.125 27.7083Z" fill="white"/>
<path d="M20.4167 26.2503H26.25V29.167H20.4167V26.2503ZM13.125 7.29199C12.2597 7.29199 11.4138 7.54858 10.6944 8.02931C9.97492 8.51004 9.41416 9.19333 9.08303 9.99275C8.75189 10.7922 8.66525 11.6718 8.83406 12.5205C9.00288 13.3692 9.41955 14.1487 10.0314 14.7606C10.6433 15.3724 11.4228 15.7891 12.2715 15.9579C13.1201 16.1267 13.9998 16.0401 14.7992 15.709C15.5987 15.3778 16.2819 14.8171 16.7627 14.0976C17.2434 13.3781 17.5 12.5323 17.5 11.667C17.4962 10.5079 17.034 9.39729 16.2143 8.57765C15.3947 7.75801 14.2841 7.29584 13.125 7.29199ZM13.125 13.1253C12.8366 13.1253 12.5546 13.0398 12.3148 12.8796C12.075 12.7193 11.8881 12.4915 11.7777 12.2251C11.6673 11.9586 11.6384 11.6654 11.6947 11.3825C11.751 11.0996 11.8899 10.8397 12.0938 10.6358C12.2978 10.4318 12.5576 10.293 12.8405 10.2367C13.1234 10.1804 13.4166 10.2093 13.6831 10.3197C13.9496 10.43 14.1773 10.617 14.3376 10.8568C14.4978 11.0966 14.5833 11.3786 14.5833 11.667C14.5822 12.0534 14.4282 12.4237 14.1549 12.6969C13.8817 12.9702 13.5114 13.1242 13.125 13.1253ZM7.74375 21.8753C9.3492 20.8378 11.2137 20.2719 13.125 20.242C13.5048 20.2484 13.8838 20.2796 14.2596 20.3353C15.6619 19.4364 17.2926 18.9586 18.9583 18.9587H19.3287C17.4179 17.9363 15.2918 17.3815 13.125 17.3399C10.1646 17.3399 4.375 18.9003 4.375 22.5607V24.792H10.7173C11.099 23.7161 11.6875 22.7252 12.4498 21.8753H7.74375Z" fill="white"/>
<path d="M23.3333 2.91696H17.2375C16.9389 2.06448 16.3827 1.32586 15.646 0.803281C14.9092 0.280704 14.0283 0 13.125 0C12.2217 0 11.3408 0.280704 10.604 0.803281C9.86726 1.32586 9.31111 2.06448 9.0125 2.91696H2.91667C2.14383 2.91927 1.4033 3.2273 0.856822 3.77378C0.31034 4.32027 0.00230814 5.06079 0 5.83363L0 26.2503C0.00230814 27.0231 0.31034 27.7637 0.856822 28.3101C1.4033 28.8566 2.14383 29.1647 2.91667 29.167H10.414C10.1385 28.2143 10.1385 27.203 10.414 26.2503H2.91667V5.83363H23.3333V18.9586H26.25V5.83363C26.2477 5.06079 25.9397 4.32027 25.3932 3.77378C24.8467 3.2273 24.1062 2.91927 23.3333 2.91696ZM13.125 4.73988C12.8356 4.73759 12.5588 4.62162 12.3541 4.417C12.1495 4.21237 12.0335 3.9355 12.0312 3.64613C12.0312 3.35605 12.1465 3.07785 12.3516 2.87273C12.5567 2.66761 12.8349 2.55238 13.125 2.55238C13.4151 2.55238 13.6933 2.66761 13.8984 2.87273C14.1035 3.07785 14.2188 3.35605 14.2188 3.64613C14.2165 3.9355 14.1005 4.21237 13.8959 4.417C13.6912 4.62162 13.4144 4.73759 13.125 4.73988Z" fill="white"/>
</svg>
