<svg width="35" height="35" viewBox="0 0 35 35" fill="none" xmlns="http://www.w3.org/2000/svg">
<path d="M25.5195 22.6045C25.5195 24.2232 24.2216 25.5212 22.6029 25.5212C20.9841 25.5212 19.6862 24.2232 19.6862 22.6045C19.6862 20.9857 20.9987 19.6878 22.6029 19.6878C24.207 19.6878 25.5195 21.0003 25.5195 22.6045ZM12.3945 19.6878C10.7904 19.6878 9.47786 21.0003 9.47786 22.6045C9.47786 24.2087 10.7904 25.5212 12.3945 25.5212C13.9987 25.5212 15.3112 24.2232 15.3112 22.6045C15.3112 20.9857 14.0133 19.6878 12.3945 19.6878ZM33.5404 21.8753V26.2503C33.5404 27.0524 32.8841 27.7087 32.082 27.7087H30.6237V29.167C30.6237 30.7857 29.3258 32.0837 27.707 32.0837H7.29036C6.51682 32.0837 5.77495 31.7764 5.22797 31.2294C4.68099 30.6824 4.3737 29.9405 4.3737 29.167V27.7087H2.91536C2.11328 27.7087 1.45703 27.0524 1.45703 26.2503V21.8753C1.45703 21.0732 2.11328 20.417 2.91536 20.417H4.3737C4.3737 14.7732 8.93828 10.2087 14.582 10.2087H16.0404V8.35658C15.1654 7.86074 14.582 6.91283 14.582 5.83366C14.582 4.22949 15.8945 2.91699 17.4987 2.91699C19.1029 2.91699 20.4154 4.22949 20.4154 5.83366C20.4154 6.91283 19.832 7.86074 18.957 8.35658V10.2087H20.4154C26.0591 10.2087 30.6237 14.7732 30.6237 20.417H32.082C32.8841 20.417 33.5404 21.0732 33.5404 21.8753ZM30.6237 23.3337H27.707V20.417C27.707 16.392 24.4404 13.1253 20.4154 13.1253H14.582C10.557 13.1253 7.29036 16.392 7.29036 20.417V23.3337H4.3737V24.792H7.29036V29.167H27.707V24.792H30.6237V23.3337Z" fill="white"/>
</svg>
