<svg width="35" height="35" viewBox="0 0 35 35" fill="none" xmlns="http://www.w3.org/2000/svg">
<path d="M21.9833 13.125H20.7801C20.2 13.125 19.6436 13.3555 19.2333 13.7657C18.8231 14.176 18.5926 14.7324 18.5926 15.3125V19.6875C18.5926 20.8478 18.1317 21.9606 17.3112 22.7811C16.4908 23.6016 15.378 24.0625 14.2176 24.0625H13.0145C12.7435 25.3904 11.989 26.5703 10.8975 27.3735C9.80589 28.1767 8.45497 28.546 7.10659 28.4098C5.75821 28.2736 4.50844 27.6416 3.59958 26.6363C2.69071 25.631 2.1875 24.324 2.1875 22.9688C2.1875 21.6135 2.69071 20.3066 3.59958 19.3013C4.50844 18.2959 5.75821 17.6639 7.10659 17.5277C8.45497 17.3915 9.80589 17.7608 10.8975 18.564C11.989 19.3672 12.7435 20.5472 13.0145 21.875H14.2176C14.7978 21.875 15.3542 21.6445 15.7644 21.2343C16.1747 20.8241 16.4051 20.2677 16.4051 19.6875V15.3125C16.4051 14.1522 16.8661 13.0394 17.6865 12.2189C18.507 11.3984 19.6198 10.9375 20.7801 10.9375H21.9833C22.2543 9.60965 23.0087 8.42974 24.1003 7.62652C25.1919 6.82329 26.5428 6.45399 27.8912 6.59021C29.2396 6.72642 30.4893 7.35845 31.3982 8.36375C32.3071 9.36906 32.8103 10.676 32.8103 12.0313C32.8103 13.3865 32.3071 14.6935 31.3982 15.6988C30.4893 16.7041 29.2396 17.3361 27.8912 17.4723C26.5428 17.6085 25.1919 17.2392 24.1003 16.436C23.0087 15.6328 22.2543 14.4529 21.9833 13.125Z" fill="white"/>
</svg>
