<svg width="35" height="35" viewBox="0 0 35 35" fill="none" xmlns="http://www.w3.org/2000/svg">
<path d="M13.125 4.375H5.83333C5.44656 4.375 5.07563 4.52865 4.80214 4.80214C4.52865 5.07563 4.375 5.44656 4.375 5.83333V13.125C4.375 13.5118 4.52865 13.8827 4.80214 14.1562C5.07563 14.4297 5.44656 14.5833 5.83333 14.5833H13.125C13.5118 14.5833 13.8827 14.4297 14.1562 14.1562C14.4297 13.8827 14.5833 13.5118 14.5833 13.125V5.83333C14.5833 5.44656 14.4297 5.07563 14.1562 4.80214C13.8827 4.52865 13.5118 4.375 13.125 4.375ZM13.125 20.4167H5.83333C5.44656 20.4167 5.07563 20.5703 4.80214 20.8438C4.52865 21.1173 4.375 21.4882 4.375 21.875V29.1667C4.375 29.5534 4.52865 29.9244 4.80214 30.1979C5.07563 30.4714 5.44656 30.625 5.83333 30.625H13.125C13.5118 30.625 13.8827 30.4714 14.1562 30.1979C14.4297 29.9244 14.5833 29.5534 14.5833 29.1667V21.875C14.5833 21.4882 14.4297 21.1173 14.1562 20.8438C13.8827 20.5703 13.5118 20.4167 13.125 20.4167ZM25.5208 14.5833C26.1911 14.5833 26.8548 14.4513 27.4741 14.1948C28.0934 13.9383 28.6561 13.5623 29.13 13.0884C29.604 12.6144 29.98 12.0517 30.2365 11.4324C30.493 10.8132 30.625 10.1495 30.625 9.47917C30.625 8.80888 30.493 8.14515 30.2365 7.52589C29.98 6.90662 29.604 6.34394 29.13 5.86998C28.6561 5.39601 28.0934 5.02004 27.4741 4.76353C26.8548 4.50702 26.1911 4.375 25.5208 4.375C24.1671 4.375 22.8689 4.91276 21.9116 5.86998C20.9544 6.82719 20.4167 8.12546 20.4167 9.47917C20.4167 10.8329 20.9544 12.1311 21.9116 13.0884C22.8689 14.0456 24.1671 14.5833 25.5208 14.5833ZM29.1667 20.4167H21.875C21.4882 20.4167 21.1173 20.5703 20.8438 20.8438C20.5703 21.1173 20.4167 21.4882 20.4167 21.875V29.1667C20.4167 29.5534 20.5703 29.9244 20.8438 30.1979C21.1173 30.4714 21.4882 30.625 21.875 30.625H29.1667C29.5534 30.625 29.9244 30.4714 30.1979 30.1979C30.4714 29.9244 30.625 29.5534 30.625 29.1667V21.875C30.625 21.4882 30.4714 21.1173 30.1979 20.8438C29.9244 20.5703 29.5534 20.4167 29.1667 20.4167Z" stroke="#EFEFEF" stroke-width="2.91667" stroke-linejoin="round"/>
</svg>
