<svg width="35" height="35" viewBox="0 0 35 35" fill="none" xmlns="http://www.w3.org/2000/svg">
<path d="M17.5007 24.7913C16.7271 24.7913 15.9852 24.4841 15.4383 23.9371C14.8913 23.3901 14.584 22.6482 14.584 21.8747C14.584 20.2559 15.8819 18.958 17.5007 18.958C18.2742 18.958 19.0161 19.2653 19.563 19.8123C20.11 20.3593 20.4173 21.1011 20.4173 21.8747C20.4173 22.6482 20.11 23.3901 19.563 23.9371C19.0161 24.4841 18.2742 24.7913 17.5007 24.7913ZM26.2507 29.1663V14.583H8.75065V29.1663H26.2507ZM26.2507 11.6663C27.0242 11.6663 27.7661 11.9736 28.313 12.5206C28.86 13.0676 29.1673 13.8095 29.1673 14.583V29.1663C29.1673 29.9399 28.86 30.6818 28.313 31.2287C27.7661 31.7757 27.0242 32.083 26.2507 32.083H8.75065C7.9771 32.083 7.23524 31.7757 6.68826 31.2287C6.14128 30.6818 5.83398 29.9399 5.83398 29.1663V14.583C5.83398 12.9643 7.1319 11.6663 8.75065 11.6663H10.209V8.74967C10.209 6.8158 10.9772 4.96114 12.3447 3.59369C13.7121 2.22623 15.5668 1.45801 17.5007 1.45801C18.4582 1.45801 19.4064 1.64661 20.2911 2.01305C21.1757 2.37949 21.9795 2.91659 22.6566 3.59369C23.3337 4.27078 23.8708 5.07461 24.2373 5.95927C24.6037 6.84394 24.7923 7.79212 24.7923 8.74967V11.6663H26.2507ZM17.5007 4.37467C16.3403 4.37467 15.2275 4.83561 14.4071 5.65608C13.5866 6.47655 13.1257 7.58935 13.1257 8.74967V11.6663H21.8757V8.74967C21.8757 7.58935 21.4147 6.47655 20.5942 5.65608C19.7738 4.83561 18.661 4.37467 17.5007 4.37467Z" fill="white"/>
</svg>
