<svg width="35" height="35" viewBox="0 0 35 35" fill="none" xmlns="http://www.w3.org/2000/svg">
<g clip-path="url(#clip0_1457_36865)">
<path fill-rule="evenodd" clip-rule="evenodd" d="M4.375 3.75C4.20924 3.75 4.05027 3.81585 3.93306 3.93306C3.81585 4.05027 3.75 4.20924 3.75 4.375V8.125C3.75 8.62228 3.55246 9.09919 3.20083 9.45083C2.84919 9.80246 2.37228 10 1.875 10C1.37772 10 0.900805 9.80246 0.549175 9.45083C0.197544 9.09919 0 8.62228 0 8.125L0 4.375C0 3.21468 0.460936 2.10188 1.28141 1.28141C2.10188 0.460936 3.21468 0 4.375 0L8.125 0C8.62228 0 9.09919 0.197544 9.45083 0.549175C9.80246 0.900805 10 1.37772 10 1.875C10 2.37228 9.80246 2.84919 9.45083 3.20083C9.09919 3.55246 8.62228 3.75 8.125 3.75H4.375ZM19.375 11.25C19.375 10.7527 19.1775 10.2758 18.8258 9.92417C18.4742 9.57254 17.9973 9.375 17.5 9.375C17.0027 9.375 16.5258 9.57254 16.1742 9.92417C15.8225 10.2758 15.625 10.7527 15.625 11.25V18.125H13.75C13.2527 18.125 12.7758 18.3225 12.4242 18.6742C12.0725 19.0258 11.875 19.5027 11.875 20C11.875 20.4973 12.0725 20.9742 12.4242 21.3258C12.7758 21.6775 13.2527 21.875 13.75 21.875H17.5C17.9973 21.875 18.4742 21.6775 18.8258 21.3258C19.1775 20.9742 19.375 20.4973 19.375 20V11.25ZM35 26.875C35 26.3777 34.8025 25.9008 34.4508 25.5492C34.0992 25.1975 33.6223 25 33.125 25C32.6277 25 32.1508 25.1975 31.7992 25.5492C31.4475 25.9008 31.25 26.3777 31.25 26.875V30.625C31.25 30.7908 31.1842 30.9497 31.0669 31.0669C30.9497 31.1842 30.7908 31.25 30.625 31.25H26.875C26.3777 31.25 25.9008 31.4475 25.5492 31.7992C25.1975 32.1508 25 32.6277 25 33.125C25 33.6223 25.1975 34.0992 25.5492 34.4508C25.9008 34.8025 26.3777 35 26.875 35H30.625C31.7853 35 32.8981 34.5391 33.7186 33.7186C34.5391 32.8981 35 31.7853 35 30.625V26.875ZM3.75 26.875C3.75 26.3777 3.55246 25.9008 3.20083 25.5492C2.84919 25.1975 2.37228 25 1.875 25C1.37772 25 0.900805 25.1975 0.549175 25.5492C0.197544 25.9008 0 26.3777 0 26.875L0 30.625C0 31.7853 0.460936 32.8981 1.28141 33.7186C2.10188 34.5391 3.21468 35 4.375 35H8.125C8.62228 35 9.09919 34.8025 9.45083 34.4508C9.80246 34.0992 10 33.6223 10 33.125C10 32.6277 9.80246 32.1508 9.45083 31.7992C9.09919 31.4475 8.62228 31.25 8.125 31.25H4.375C4.20924 31.25 4.05027 31.1842 3.93306 31.0669C3.81585 30.9497 3.75 30.7908 3.75 30.625V26.875ZM25 1.875C25 1.37772 25.1975 0.900805 25.5492 0.549175C25.9008 0.197544 26.3777 0 26.875 0L30.625 0C31.7853 0 32.8981 0.460936 33.7186 1.28141C34.5391 2.10188 35 3.21468 35 4.375V8.125C35 8.62228 34.8025 9.09919 34.4508 9.45083C34.0992 9.80246 33.6223 10 33.125 10C32.6277 10 32.1508 9.80246 31.7992 9.45083C31.4475 9.09919 31.25 8.62228 31.25 8.125V4.375C31.25 4.20924 31.1842 4.05027 31.0669 3.93306C30.9497 3.81585 30.7908 3.75 30.625 3.75H26.875C26.3777 3.75 25.9008 3.55246 25.5492 3.20083C25.1975 2.84919 25 2.37228 25 1.875ZM12.5425 23.64C12.1818 23.2972 11.6997 23.1117 11.2023 23.1244C10.7048 23.1371 10.2328 23.3468 9.89 23.7075C9.54721 24.0682 9.36174 24.5503 9.3744 25.0477C9.38706 25.5452 9.59681 26.0172 9.9575 26.36C11.9926 28.2937 14.6927 29.3719 17.5 29.3719C20.3073 29.3719 23.0074 28.2937 25.0425 26.36C25.4032 26.0172 25.6129 25.5452 25.6256 25.0477C25.6383 24.5503 25.4528 24.0682 25.11 23.7075C24.7672 23.3468 24.2952 23.1371 23.7977 23.1244C23.3003 23.1117 22.8182 23.2972 22.4575 23.64C21.1195 24.9103 19.345 25.6186 17.5 25.6186C15.655 25.6186 13.8805 24.9103 12.5425 23.64ZM12.5 11.25C12.5 11.913 12.2366 12.5489 11.7678 13.0178C11.2989 13.4866 10.663 13.75 10 13.75C9.33696 13.75 8.70107 13.4866 8.23223 13.0178C7.76339 12.5489 7.5 11.913 7.5 11.25C7.5 10.587 7.76339 9.95107 8.23223 9.48223C8.70107 9.01339 9.33696 8.75 10 8.75C10.663 8.75 11.2989 9.01339 11.7678 9.48223C12.2366 9.95107 12.5 10.587 12.5 11.25ZM25 13.75C25.663 13.75 26.2989 13.4866 26.7678 13.0178C27.2366 12.5489 27.5 11.913 27.5 11.25C27.5 10.587 27.2366 9.95107 26.7678 9.48223C26.2989 9.01339 25.663 8.75 25 8.75C24.337 8.75 23.7011 9.01339 23.2322 9.48223C22.7634 9.95107 22.5 10.587 22.5 11.25C22.5 11.913 22.7634 12.5489 23.2322 13.0178C23.7011 13.4866 24.337 13.75 25 13.75Z" fill="white"/>
</g>
<defs>
<clipPath id="clip0_1457_36865">
<rect width="35" height="35" fill="white"/>
</clipPath>
</defs>
</svg>
