<svg width="35" height="35" viewBox="0 0 35 35" fill="none" xmlns="http://www.w3.org/2000/svg">
<path d="M10.2083 11.667H5.83333C5.44656 11.667 5.07563 11.8206 4.80214 12.0941C4.52865 12.3676 4.375 12.7386 4.375 13.1253V16.042C4.375 16.4288 4.52865 16.7997 4.80214 17.0732C5.07563 17.3467 5.44656 17.5003 5.83333 17.5003H8.75C9.13677 17.5003 9.50771 17.654 9.7812 17.9275C10.0547 18.201 10.2083 18.5719 10.2083 18.9587V21.8753C10.2083 22.2621 10.0547 22.633 9.7812 22.9065C9.50771 23.18 9.13677 23.3337 8.75 23.3337H4.375M20.4167 23.3337H14.5833V11.667H20.4167M16.0417 17.5003H18.9583M24.7917 13.1253C24.7917 12.7386 24.9453 12.3676 25.2188 12.0941C25.4923 11.8206 25.8632 11.667 26.25 11.667H29.1667C29.5534 11.667 29.9244 11.8206 30.1979 12.0941C30.4714 12.3676 30.625 12.7386 30.625 13.1253V21.8753C30.625 22.2621 30.4714 22.633 30.1979 22.9065C29.9244 23.18 29.5534 23.3337 29.1667 23.3337H26.25C25.8632 23.3337 25.4923 23.18 25.2188 22.9065C24.9453 22.633 24.7917 22.2621 24.7917 21.8753V13.1253Z" stroke="white" stroke-width="2.91667" stroke-linecap="round" stroke-linejoin="round"/>
</svg>
