<svg width="35" height="35" viewBox="0 0 35 35" fill="none" xmlns="http://www.w3.org/2000/svg">
<path d="M13.8542 13.1247H13.8688M21.1458 13.1247H21.1604M26.25 5.83301C27.4103 5.83301 28.5231 6.29394 29.3436 7.11442C30.1641 7.93489 30.625 9.04769 30.625 10.208V21.8747C30.625 23.035 30.1641 24.1478 29.3436 24.9683C28.5231 25.7887 27.4103 26.2497 26.25 26.2497H18.9583L11.6667 30.6247V26.2497H8.75C7.58968 26.2497 6.47688 25.7887 5.65641 24.9683C4.83594 24.1478 4.375 23.035 4.375 21.8747V10.208C4.375 9.04769 4.83594 7.93489 5.65641 7.11442C6.47688 6.29394 7.58968 5.83301 8.75 5.83301H26.25Z" stroke="white" stroke-width="2.91667" stroke-linecap="round" stroke-linejoin="round"/>
<path d="M13.8555 18.958C14.3307 19.443 14.898 19.8284 15.524 20.0914C16.15 20.3545 16.8222 20.49 17.5013 20.49C18.1804 20.49 18.8526 20.3545 19.4786 20.0914C20.1046 19.8284 20.6719 19.443 21.1471 18.958" stroke="white" stroke-width="2.91667" stroke-linecap="round" stroke-linejoin="round"/>
</svg>
