<svg width="34" height="34" viewBox="0 0 34 34" fill="none" xmlns="http://www.w3.org/2000/svg">
<path d="M1.41797 5.66699H32.5846V12.8084C31.5926 12.9741 30.6915 13.4863 30.0415 14.2538C29.3916 15.0214 29.0349 15.9946 29.0349 17.0003C29.0349 18.0061 29.3916 18.9793 30.0415 19.7468C30.6915 20.5144 31.5926 21.0265 32.5846 21.1922V28.3337H1.41797V21.1922C2.41089 21.0274 3.3131 20.5155 3.96393 19.7478C4.61476 18.98 4.97198 18.0061 4.97198 16.9996C4.97198 15.9931 4.61476 15.0193 3.96393 14.2515C3.3131 13.4837 2.41089 12.9718 1.41797 12.807V5.66699ZM22.668 15.5837V12.7503H11.3346V15.5837H22.668ZM22.668 21.2503V18.417H11.3346V21.2503H22.668Z" fill="white"/>
</svg>
