<svg width="35" height="35" viewBox="0 0 35 35" fill="none" xmlns="http://www.w3.org/2000/svg">
<path d="M17.4987 3.64551C18.0425 3.64553 18.5668 3.8481 18.9693 4.2137C19.3719 4.5793 19.6238 5.08173 19.676 5.62301L19.6862 5.83301V29.1663C19.6859 29.7281 19.4695 30.2682 19.0819 30.6748C18.6942 31.0814 18.1649 31.3232 17.6038 31.3502C17.0427 31.3772 16.4927 31.1873 16.0678 30.8198C15.6429 30.4524 15.3756 29.9355 15.3214 29.3763L15.3112 29.1663V5.83301C15.3112 5.25285 15.5417 4.69645 15.9519 4.28621C16.3621 3.87598 16.9185 3.64551 17.4987 3.64551ZM11.6654 8.02051C12.2455 8.02051 12.8019 8.25098 13.2122 8.66121C13.6224 9.07145 13.8529 9.62785 13.8529 10.208V24.7913C13.8529 25.3715 13.6224 25.9279 13.2122 26.3381C12.8019 26.7484 12.2455 26.9788 11.6654 26.9788C11.0852 26.9788 10.5288 26.7484 10.1186 26.3381C9.70833 25.9279 9.47786 25.3715 9.47786 24.7913V10.208C9.47786 9.62785 9.70833 9.07145 10.1186 8.66121C10.5288 8.25098 11.0852 8.02051 11.6654 8.02051ZM23.332 8.02051C23.9122 8.02051 24.4686 8.25098 24.8788 8.66121C25.2891 9.07145 25.5195 9.62785 25.5195 10.208V24.7913C25.5195 25.3715 25.2891 25.9279 24.8788 26.3381C24.4686 26.7484 23.9122 26.9788 23.332 26.9788C22.7519 26.9788 22.1955 26.7484 21.7852 26.3381C21.375 25.9279 21.1445 25.3715 21.1445 24.7913V10.208C21.1445 9.62785 21.375 9.07145 21.7852 8.66121C22.1955 8.25098 22.7519 8.02051 23.332 8.02051ZM5.83203 12.3955C6.41219 12.3955 6.96859 12.626 7.37883 13.0362C7.78906 13.4464 8.01953 14.0028 8.01953 14.583V20.4163C8.01953 20.9965 7.78906 21.5529 7.37883 21.9631C6.96859 22.3734 6.41219 22.6038 5.83203 22.6038C5.25187 22.6038 4.69547 22.3734 4.28524 21.9631C3.875 21.5529 3.64453 20.9965 3.64453 20.4163V14.583C3.64453 14.0028 3.875 13.4464 4.28524 13.0362C4.69547 12.626 5.25187 12.3955 5.83203 12.3955ZM29.1654 12.3955C29.7092 12.3955 30.2334 12.5981 30.636 12.9637C31.0385 13.3293 31.2905 13.8317 31.3427 14.373L31.3529 14.583V20.4163C31.3526 20.9781 31.1362 21.5182 30.7485 21.9248C30.3608 22.3314 29.8316 22.5732 29.2705 22.6002C28.7094 22.6272 28.1594 22.4373 27.7344 22.0698C27.3095 21.7024 27.0423 21.1855 26.9881 20.6263L26.9779 20.4163V14.583C26.9779 14.0028 27.2083 13.4464 27.6186 13.0362C28.0288 12.626 28.5852 12.3955 29.1654 12.3955Z" fill="white"/>
</svg>
