<svg width="35" height="35" viewBox="0 0 35 35" fill="none" xmlns="http://www.w3.org/2000/svg">
<g clip-path="url(#clip0_1461_8225)">
<path d="M30.6239 26.2497C30.6371 26.8323 30.5337 27.4117 30.3199 27.9538C30.1061 28.496 29.7861 28.9899 29.3787 29.4067C28.9714 29.8234 28.4849 30.1546 27.9478 30.3808C27.4107 30.6069 26.8339 30.7235 26.2511 30.7236C25.6683 30.7238 25.0914 30.6075 24.5542 30.3816C24.017 30.1557 23.5303 29.8248 23.1228 29.4082C22.7152 28.9917 22.395 28.4979 22.1809 27.9559C21.9668 27.4139 21.8632 26.8345 21.8761 26.2519C21.9013 25.1088 22.3731 24.021 23.1904 23.2214C24.0077 22.4218 25.1055 21.9739 26.2489 21.9736C27.3923 21.9733 28.4903 22.4207 29.308 23.2199C30.1257 24.0191 30.598 25.1066 30.6239 26.2497Z" fill="white"/>
<path d="M25.5938 35C23.8438 35 22.0938 34.5625 20.5625 33.4688L7 26.25C5.90625 25.375 5.03125 24.9375 4.15625 24.0625C1.53125 21.4375 0 17.7188 0 14C0 10.2812 1.53125 6.78125 4.15625 4.15625C6.78125 1.53125 10.2812 0 14 0C17.7188 0 21.2188 1.53125 24.0625 4.15625C24.9375 5.03125 25.375 5.6875 26.25 6.78125L33.9062 20.7812C36.0938 24.5 35.4375 29.0938 32.375 32.1562C30.4062 34.125 28.2188 35 25.5938 35ZM14 2.1875C10.9375 2.1875 7.875 3.5 5.6875 5.6875C3.5 7.875 2.1875 10.9375 2.1875 14C2.1875 17.2812 3.5 20.125 5.6875 22.3125C6.34375 22.9688 7 23.4062 8.09375 24.0625L21.875 31.5C23.1875 32.375 24.5 32.5938 25.8125 32.5938C27.7812 32.5938 29.5312 31.9375 30.8438 30.4062C33.25 28 33.6875 24.5 31.9375 21.6562L24.2812 7.65625C23.625 6.78125 23.1875 6.125 22.5312 5.46875C20.125 3.5 17.2812 2.1875 14 2.1875Z" fill="white"/>
<path d="M24.0625 15.3125V13.125L21 12.0312C20.7812 11.5938 20.7812 11.375 20.5625 10.9375L21.875 8.09375L20.3438 6.5625L17.5 7.875C17.0625 7.65625 16.8438 7.65625 16.4062 7.4375L15.3125 4.375H13.125L12.0312 7.4375C11.5938 7.65625 11.375 7.65625 10.9375 7.875L8.09375 6.5625L6.5625 8.09375L7.875 10.9375C7.65625 11.375 7.65625 11.5938 7.4375 12.0312L4.375 13.125V15.3125L7.4375 16.4062C7.65625 16.8438 7.65625 17.0625 7.875 17.5L6.5625 20.3438L8.09375 21.875L10.9375 20.5625C11.375 20.7812 11.5938 21 12.0312 21L13.125 24.0625H15.3125L16.4062 21C16.8438 20.7812 17.0625 20.7812 17.5 20.5625L20.3438 21.875L21.875 20.3438L20.5625 17.5C20.7812 17.0625 21 16.8438 21 16.4062L24.0625 15.3125ZM14.2188 17.5C12.4688 17.5 10.9375 15.9688 10.9375 14.2188C10.9375 12.4688 12.4688 10.9375 14.2188 10.9375C15.9688 10.9375 17.5 12.4688 17.5 14.2188C17.5 15.9688 15.9688 17.5 14.2188 17.5Z" fill="white"/>
</g>
<defs>
<clipPath id="clip0_1461_8225">
<rect width="35" height="35" fill="white"/>
</clipPath>
</defs>
</svg>
