<svg width="513" height="396" viewBox="0 0 513 396" fill="none" xmlns="http://www.w3.org/2000/svg">
<path d="M41.4039 320.344C42.6732 320.344 43.9426 320.026 45.1061 319.392L57.588 312.199C58.2226 311.776 58.6458 311.035 58.6458 310.189C58.6458 309.343 58.2226 308.602 57.588 308.179L45.1061 301.092C42.8848 299.717 40.0288 299.717 37.8074 301.092L25.3256 308.179C24.5851 308.602 24.162 309.343 24.162 310.189C24.162 311.035 24.5851 311.776 25.3256 312.199L37.8074 319.392C38.8652 320.026 40.1345 320.344 41.4039 320.344ZM41.4039 302.044C42.3559 302.044 43.3079 302.255 44.1541 302.784L56.5302 309.872C56.7417 309.977 56.7418 310.083 56.7418 310.189C56.7418 310.295 56.7417 310.4 56.5302 310.506L44.1541 317.699C42.4617 318.651 40.4519 318.651 38.7594 317.699L26.2776 310.506C26.1718 310.4 26.1718 310.295 26.1718 310.189C26.1718 310.083 26.1718 309.977 26.2776 309.872L38.7594 302.784C39.6057 302.255 40.5577 302.044 41.4039 302.044Z" fill="url(#paint0_linear_2001_71136)"/>
<path d="M76.9454 279.725C79.061 279.725 81.0708 279.196 82.9748 278.033L104.342 265.762C105.294 265.128 105.929 264.07 105.929 262.906C105.929 261.743 105.294 260.685 104.342 260.156L82.9748 247.78C79.2725 245.664 74.6183 245.664 70.9161 247.78L49.5488 260.156C48.5968 260.685 47.9621 261.743 47.9621 262.906C47.9621 264.07 48.5968 265.128 49.5488 265.762L70.9161 278.033C72.8201 279.196 74.8299 279.725 76.9454 279.725ZM81.917 276.34C78.8494 278.138 75.0414 278.138 71.9738 276.34L50.6066 264.07C49.9719 263.753 49.9719 263.118 49.9719 262.906C49.9719 262.695 49.9719 262.166 50.6066 261.849L71.9738 249.472C75.0414 247.674 78.8494 247.674 81.917 249.472L103.284 261.849C103.919 262.166 103.919 262.695 103.919 262.906C103.919 263.118 103.919 263.753 103.284 264.07L81.917 276.34Z" fill="url(#paint1_linear_2001_71136)"/>
<path d="M459.017 299.083C461.132 299.083 463.142 298.555 465.046 297.497L486.413 285.121C487.365 284.592 488 283.534 488 282.37C488 281.207 487.365 280.149 486.413 279.514L465.046 267.244C461.344 265.023 456.795 265.023 453.093 267.244L431.726 279.514C430.668 280.149 430.033 281.207 430.033 282.37C430.033 283.534 430.668 284.592 431.726 285.121L453.093 297.497C454.891 298.555 457.007 299.083 459.017 299.083ZM459.017 267.561C460.815 267.561 462.507 267.985 464.094 268.937L485.461 281.207C485.99 281.524 486.096 282.159 486.096 282.37C486.096 282.582 485.99 283.111 485.356 283.428L464.094 295.804C460.921 297.603 457.113 297.603 454.045 295.804L432.678 283.428C432.149 283.111 432.043 282.582 432.043 282.37C432.043 282.159 432.149 281.524 432.678 281.207L454.045 268.937C455.632 267.985 457.324 267.561 459.017 267.561Z" fill="url(#paint2_linear_2001_71136)"/>
<path opacity="0.6" d="M242.7 352.926L395.444 264.707C397.665 263.437 397.454 261.216 394.809 259.735L296.753 203.038C294.214 201.557 290.3 201.451 288.079 202.721L135.335 290.94C133.114 292.209 133.325 294.43 135.97 295.911L234.026 352.503C236.565 353.984 240.479 354.195 242.7 352.926Z" fill="#020230"/>
<path d="M239.209 368.792C241.007 368.792 242.7 368.474 243.969 367.734L418.398 267.033C419.773 266.187 420.513 265.023 420.513 263.648C420.513 262.167 419.456 260.686 417.657 259.628L298.762 189.92C295.483 188.122 290.723 187.911 287.867 189.603L113.544 290.198C112.064 291.045 111.323 292.208 111.323 293.583C111.323 295.064 112.381 296.545 114.179 297.603L233.074 367.311C234.872 368.263 237.094 368.792 239.209 368.792ZM292.627 190.449C294.426 190.449 296.33 190.872 297.81 191.719L416.6 261.321C417.869 262.061 418.609 262.908 418.609 263.648C418.609 264.494 417.975 265.023 417.34 265.34L243.017 366.042C240.796 367.311 236.671 367.099 234.026 365.618L115.237 295.91C113.968 295.276 113.227 294.324 113.227 293.583C113.227 292.843 113.968 292.208 114.497 291.891L288.819 191.296C289.877 190.661 291.252 190.449 292.627 190.449Z" fill="url(#paint3_linear_2001_71136)"/>
<path d="M94.7159 143.06L246.931 55.1582C247.989 54.6293 249.047 54.4177 249.999 54.735L252.855 55.687L251.797 56.0044C252.22 56.4275 252.537 56.9916 252.749 57.6968L287.233 169.399C288.079 172.255 286.809 175.534 284.377 176.909L132.267 264.811C131.844 265.022 131.456 265.164 131.104 265.234L131.527 266.08L128.777 265.128C127.719 264.705 126.767 263.753 126.344 262.272L91.9657 150.57C91.1194 147.82 92.283 144.435 94.7159 143.06Z" fill="url(#paint4_radial_2001_71136)"/>
<path d="M137.662 268.935V269.041L287.973 182.303C290.089 181.033 294.002 181.139 296.541 182.62L393.646 238.682L396.925 237.413L395.973 241.962C395.867 242.702 395.444 243.337 394.492 243.866L242.806 331.344C240.584 332.719 236.776 332.508 234.238 331.027L136.816 274.859C135.652 274.118 134.912 273.272 134.806 272.426L133.854 267.983L137.662 268.935Z" fill="url(#paint5_radial_2001_71136)"/>
<path d="M242.7 327.432L395.444 239.213C397.665 237.943 397.454 235.616 394.809 234.135L296.753 177.544C294.214 176.063 290.3 175.957 288.079 177.226L135.335 265.446C133.114 266.715 133.325 268.936 135.97 270.417L234.026 327.009C236.565 328.49 240.479 328.701 242.7 327.432Z" fill="url(#paint6_radial_2001_71136)"/>
<path d="M135.97 269.256L234.026 325.848C236.565 327.329 240.479 327.54 242.7 326.165L395.444 238.052C396.185 237.523 396.608 236.994 396.819 236.465C397.137 237.417 396.713 238.475 395.444 239.215L242.7 327.434C240.479 328.704 236.565 328.492 234.026 327.011L135.97 270.42C134.277 269.468 133.537 268.198 133.96 267.035C134.171 267.775 134.806 268.621 135.97 269.256Z" fill="white"/>
<g opacity="0.4">
<path d="M322.563 224.933L327.746 221.866C328.169 221.654 328.063 221.231 327.64 221.019L321.505 217.423C321.082 217.211 320.341 217.106 319.918 217.423L314.735 220.385C314.312 220.596 314.418 221.019 314.841 221.337L320.976 224.827C321.399 225.039 322.14 225.145 322.563 224.933Z" fill="#06033E"/>
<path d="M314.629 229.484L319.812 226.522C320.236 226.311 320.13 225.887 319.707 225.57L313.572 222.079C313.043 221.762 312.408 221.762 311.985 221.974L306.802 224.935C306.379 225.253 306.484 225.676 306.907 225.887L313.043 229.378C313.466 229.695 314.206 229.695 314.629 229.484Z" fill="#06033E"/>
<path d="M306.696 234.029L311.773 231.067C312.197 230.855 312.197 230.432 311.668 230.115L305.638 226.624C305.109 226.413 304.369 226.307 303.946 226.624L298.868 229.586C298.445 229.797 298.445 230.221 298.974 230.538L305.004 234.029C305.532 234.24 306.273 234.346 306.696 234.029Z" fill="#06033E"/>
<path d="M295.589 230.33L300.772 227.262C301.196 227.051 301.196 226.628 300.667 226.416L295.589 223.454C295.06 223.137 294.32 223.137 294.003 223.349L288.819 226.31C288.396 226.522 288.396 226.945 288.925 227.262L294.003 230.224C294.531 230.542 295.272 230.542 295.589 230.33Z" fill="#06033E"/>
<path d="M287.656 234.879L292.839 231.917C293.262 231.705 293.156 231.282 292.733 230.965L287.55 228.003C287.127 227.791 286.387 227.686 285.963 228.003L280.78 230.965C280.463 231.176 280.463 231.599 280.992 231.917L286.069 234.773C286.492 235.09 287.233 235.09 287.656 234.879Z" fill="#06033E"/>
<path d="M279.723 239.527L284.906 236.46C285.329 236.248 285.223 235.825 284.694 235.613L279.617 232.652C279.194 232.334 278.453 232.334 278.03 232.546L272.847 235.508C272.424 235.719 272.53 236.142 272.953 236.46L278.136 239.421C278.559 239.633 279.299 239.739 279.723 239.527Z" fill="#06033E"/>
<path d="M271.789 244.077L276.866 241.115C277.29 240.904 277.29 240.481 276.761 240.163L271.683 237.202C271.154 236.99 270.52 236.884 270.097 237.096L264.913 240.163C264.49 240.375 264.49 240.798 265.019 241.01L270.097 243.971C270.625 244.289 271.366 244.289 271.789 244.077Z" fill="#06033E"/>
<path d="M263.75 248.629L268.933 245.667C269.356 245.455 269.251 245.032 268.828 244.715L263.75 241.859C263.221 241.541 262.481 241.541 262.058 241.753L256.98 244.715C256.557 244.926 256.557 245.349 257.086 245.667L262.163 248.629C262.587 248.84 263.327 248.946 263.75 248.629Z" fill="#06033E"/>
<path d="M255.817 253.283L261 250.321C261.423 250.11 261.317 249.687 260.894 249.369L255.711 246.408C255.288 246.09 254.547 246.09 254.124 246.302L248.941 249.369C248.518 249.581 248.624 250.004 249.047 250.216L254.23 253.177C254.653 253.495 255.393 253.495 255.817 253.283Z" fill="#06033E"/>
<path d="M247.883 257.828L252.961 254.866C253.384 254.654 253.384 254.231 252.855 253.914L247.778 251.058C247.249 250.741 246.614 250.741 246.191 250.952L241.008 253.914C240.585 254.125 240.69 254.549 241.113 254.866L246.191 257.828C246.72 258.039 247.46 258.145 247.883 257.828Z" fill="#06033E"/>
<path d="M239.844 262.486L245.027 259.524C245.45 259.207 245.45 258.89 244.922 258.572L239.844 255.611C239.315 255.293 238.575 255.293 238.152 255.505L233.074 258.572C232.651 258.784 232.651 259.207 233.18 259.419L238.257 262.38C238.786 262.698 239.421 262.698 239.844 262.486Z" fill="#06033E"/>
<path d="M231.911 267.033L237.094 264.071C237.517 263.859 237.411 263.436 236.988 263.119L231.805 260.263C231.382 259.946 230.641 259.946 230.218 260.157L225.035 263.119C224.612 263.331 224.718 263.754 225.141 264.071L230.324 267.033C230.747 267.244 231.487 267.35 231.911 267.033Z" fill="#06033E"/>
<path d="M223.977 271.687L229.055 268.726C229.478 268.408 229.478 267.985 228.949 267.774L223.872 264.812C223.448 264.494 222.708 264.494 222.285 264.706L217.102 267.668C216.679 267.985 216.784 268.408 217.207 268.62L222.285 271.582C222.814 271.899 223.554 271.899 223.977 271.687Z" fill="#06033E"/>
<path d="M283.848 228.106L289.031 225.145C289.454 224.933 289.454 224.51 288.925 224.193L283.848 221.231C283.319 221.019 282.578 220.914 282.261 221.125L277.078 224.193C276.655 224.404 276.655 224.827 277.184 225.039L282.261 228.001C282.79 228.318 283.53 228.318 283.848 228.106Z" fill="#06033E"/>
<path d="M291.993 223.451L297.176 220.489C297.599 220.172 297.493 219.749 297.07 219.537L291.887 216.575C291.464 216.258 290.723 216.258 290.3 216.47L285.117 219.537C284.694 219.749 284.8 220.172 285.223 220.384L290.406 223.345C290.829 223.663 291.57 223.663 291.993 223.451Z" fill="#06033E"/>
<path d="M300.032 218.797L311.139 212.345C311.562 212.133 311.562 211.71 311.033 211.393L305.955 208.431C305.532 208.219 304.792 208.113 304.369 208.431L293.262 214.777C292.839 215.095 292.839 215.518 293.368 215.729L298.445 218.691C298.974 219.009 299.715 219.009 300.032 218.797Z" fill="#06033E"/>
<path d="M294.426 213.088L303.417 207.905C303.84 207.588 303.84 207.165 303.311 206.953L298.234 203.992C297.705 203.674 296.964 203.674 296.541 203.886L287.55 209.175C287.127 209.386 287.233 209.809 287.656 210.021L292.839 212.983C293.262 213.3 294.003 213.3 294.426 213.088Z" fill="#06033E"/>
<path d="M275.914 232.654L281.098 229.692C281.521 229.481 281.415 229.057 280.992 228.74L275.914 225.884C275.386 225.567 274.645 225.567 274.222 225.778L269.039 228.74C268.721 228.952 268.722 229.375 269.25 229.692L274.328 232.654C274.751 232.865 275.491 232.971 275.914 232.654Z" fill="#06033E"/>
<path d="M267.981 237.31L273.164 234.349C273.587 234.137 273.481 233.714 273.058 233.397L267.875 230.435C267.452 230.118 266.712 230.118 266.288 230.329L261.105 233.397C260.682 233.608 260.788 234.031 261.211 234.243L266.394 237.205C266.817 237.522 267.558 237.522 267.981 237.31Z" fill="#06033E"/>
<path d="M260.048 241.859L265.125 238.897C265.548 238.686 265.548 238.263 265.019 237.945L259.942 235.089C259.413 234.772 258.778 234.772 258.355 234.983L253.172 237.945C252.749 238.157 252.749 238.58 253.278 238.897L258.355 241.859C258.884 242.071 259.624 242.176 260.048 241.859Z" fill="#06033E"/>
<path d="M252.008 246.514L257.192 243.552C257.615 243.234 257.509 242.917 257.086 242.6L252.008 239.638C251.48 239.321 250.739 239.321 250.316 239.532L245.239 242.6C244.815 242.811 244.816 243.234 245.344 243.446L250.422 246.408C250.951 246.725 251.585 246.725 252.008 246.514Z" fill="#06033E"/>
<path d="M244.075 251.062L249.258 248.1C249.682 247.888 249.576 247.465 249.153 247.148L243.97 244.186C243.546 243.974 242.806 243.974 242.383 244.186L237.2 247.148C236.777 247.359 236.882 247.782 237.306 248.1L242.489 251.062C242.912 251.273 243.652 251.379 244.075 251.062Z" fill="#06033E"/>
<path d="M236.142 255.717L241.219 252.755C241.642 252.438 241.642 252.014 241.113 251.803L236.036 248.841C235.507 248.524 234.872 248.524 234.449 248.735L229.266 251.697C228.843 252.014 228.949 252.438 229.372 252.649L234.449 255.611C234.978 255.928 235.718 255.928 236.142 255.717Z" fill="#06033E"/>
<path d="M228.102 260.263L233.285 257.301C233.708 257.089 233.708 256.666 233.18 256.349L228.102 253.387C227.573 253.176 226.833 253.176 226.41 253.387L221.332 256.349C220.909 256.561 220.909 256.984 221.438 257.301L226.516 260.263C227.044 260.474 227.679 260.58 228.102 260.263Z" fill="#06033E"/>
<path d="M220.169 264.916L225.352 261.954C225.776 261.637 225.67 261.214 225.247 261.002L220.064 258.04C219.64 257.723 218.9 257.723 218.477 257.935L213.294 260.896C212.871 261.214 212.976 261.637 213.4 261.848L218.583 264.81C219.006 265.127 219.746 265.127 220.169 264.916Z" fill="#06033E"/>
<path d="M212.236 269.466L217.419 266.504C217.736 266.293 217.736 265.869 217.207 265.552L212.13 262.59C211.707 262.379 210.966 262.379 210.543 262.59L205.36 265.552C204.937 265.764 205.043 266.187 205.466 266.504L210.543 269.466C211.072 269.677 211.813 269.783 212.236 269.466Z" fill="#06033E"/>
<path d="M198.061 277.717L209.274 271.158C209.697 270.947 209.697 270.524 209.168 270.206L204.091 267.245C203.562 267.033 202.927 267.033 202.504 267.245L191.186 273.697C190.763 273.909 190.868 274.332 191.292 274.649L196.475 277.611C196.898 277.928 197.638 277.928 198.061 277.717Z" fill="#06033E"/>
<path d="M182.512 268.724L192.032 263.223C192.455 263.012 192.455 262.589 191.926 262.271L186.849 259.31C186.32 259.098 185.579 258.992 185.156 259.31L175.742 264.81C175.319 265.022 175.319 265.445 175.848 265.656L180.925 268.618C181.454 268.936 182.089 268.936 182.512 268.724Z" fill="#06033E"/>
<path d="M261.952 231.81L267.135 228.849C267.558 228.637 267.452 228.214 267.029 227.897L261.952 224.935C261.423 224.618 260.682 224.618 260.259 224.829L255.182 227.897C254.759 228.108 254.759 228.531 255.288 228.743L260.365 231.705C260.894 232.022 261.529 232.022 261.952 231.81Z" fill="#06033E"/>
<path d="M270.097 227.05L275.28 224.089C275.703 223.877 275.703 223.454 275.174 223.137L270.097 220.281C269.568 219.963 268.827 219.963 268.51 220.175L263.327 223.137C262.904 223.348 262.904 223.771 263.433 224.089L268.51 227.05C269.039 227.262 269.779 227.368 270.097 227.05Z" fill="#06033E"/>
<path d="M278.347 222.392L283.424 219.431C283.847 219.113 283.847 218.69 283.318 218.479L278.241 215.517C277.712 215.2 277.078 215.2 276.654 215.411L271.471 218.373C271.048 218.69 271.154 219.113 271.577 219.325L276.654 222.287C277.183 222.604 277.924 222.604 278.347 222.392Z" fill="#06033E"/>
<path d="M286.492 217.636L291.675 214.674C292.098 214.462 291.993 214.039 291.464 213.722L286.386 210.76C285.963 210.549 285.223 210.549 284.8 210.76L279.616 213.722C279.193 213.934 279.299 214.357 279.722 214.674L284.905 217.636C285.328 217.847 286.069 217.953 286.492 217.636Z" fill="#06033E"/>
<path d="M254.018 236.355L259.201 233.393C259.624 233.182 259.519 232.759 259.096 232.441L253.912 229.585C253.489 229.268 252.749 229.268 252.326 229.479L247.143 232.441C246.72 232.653 246.825 233.076 247.248 233.393L252.432 236.355C252.855 236.567 253.595 236.672 254.018 236.355Z" fill="#06033E"/>
<path d="M246.085 241.012L251.162 238.05C251.585 237.732 251.585 237.415 251.056 237.098L245.979 234.136C245.556 233.819 244.815 233.819 244.392 234.03L239.209 237.098C238.786 237.309 238.892 237.733 239.315 237.944L244.392 240.906C244.921 241.223 245.662 241.223 246.085 241.012Z" fill="#06033E"/>
<path d="M238.046 245.56L243.229 242.598C243.652 242.387 243.652 241.964 243.123 241.646L238.046 238.79C237.517 238.473 236.776 238.473 236.353 238.685L231.276 241.646C230.853 241.858 230.853 242.281 231.382 242.598L236.459 245.56C236.988 245.772 237.623 245.877 238.046 245.56Z" fill="#06033E"/>
<path d="M230.112 250.213L235.296 247.251C235.719 246.934 235.613 246.511 235.19 246.299L230.007 243.337C229.584 243.02 228.843 243.02 228.42 243.231L223.237 246.299C222.814 246.511 222.92 246.934 223.448 247.145L228.526 250.107C228.949 250.424 229.689 250.424 230.112 250.213Z" fill="#06033E"/>
<path d="M222.179 254.763L227.362 251.801C227.679 251.589 227.679 251.166 227.15 250.849L222.073 247.887C221.65 247.676 220.91 247.676 220.486 247.887L215.303 250.849C214.88 251.061 214.986 251.484 215.409 251.801L220.592 254.763C221.015 254.974 221.756 255.08 222.179 254.763Z" fill="#06033E"/>
<path d="M214.14 259.418L219.323 256.456C219.746 256.139 219.746 255.716 219.217 255.504L214.14 252.542C213.611 252.225 212.87 252.225 212.553 252.437L207.37 255.398C206.947 255.716 206.947 256.139 207.476 256.35L212.553 259.312C213.082 259.629 213.822 259.629 214.14 259.418Z" fill="#06033E"/>
<path d="M206.207 263.966L211.39 261.004C211.813 260.793 211.707 260.369 211.284 260.052L206.207 257.09C205.678 256.879 204.937 256.879 204.514 257.09L199.437 260.052C199.014 260.264 199.014 260.687 199.543 261.004L204.62 263.966C205.043 264.177 205.784 264.283 206.207 263.966Z" fill="#06033E"/>
<path d="M198.273 268.621L203.456 265.659C203.879 265.342 203.774 264.919 203.35 264.707L198.167 261.745C197.744 261.428 197.004 261.428 196.581 261.64L191.397 264.601C190.974 264.919 191.08 265.342 191.503 265.553L196.686 268.515C197.11 268.833 197.85 268.833 198.273 268.621Z" fill="#06033E"/>
<path d="M190.34 273.168L195.417 270.206C195.84 269.994 195.84 269.571 195.311 269.254L190.234 266.292C189.705 266.081 189.07 265.975 188.647 266.292L183.464 269.254C183.041 269.465 183.041 269.889 183.57 270.206L188.647 273.168C189.176 273.379 189.916 273.379 190.34 273.168Z" fill="#06033E"/>
<path d="M266.183 220.386L271.366 217.425C271.789 217.213 271.683 216.79 271.26 216.473L266.077 213.617C265.654 213.299 264.913 213.299 264.49 213.511L259.307 216.473C258.884 216.684 258.99 217.107 259.413 217.425L264.596 220.386C265.019 220.598 265.76 220.704 266.183 220.386Z" fill="#06033E"/>
<path d="M274.116 215.838L279.299 212.876C279.722 212.664 279.617 212.241 279.193 211.924L274.01 208.962C273.587 208.75 272.847 208.645 272.424 208.962L267.241 211.924C266.817 212.135 266.923 212.558 267.346 212.876L272.529 215.838C272.953 216.049 273.693 216.049 274.116 215.838Z" fill="#06033E"/>
<path d="M282.05 211.289L287.233 208.327C287.55 208.01 287.55 207.693 287.021 207.375L281.944 204.413C281.521 204.096 280.78 204.096 280.357 204.308L275.174 207.375C274.751 207.587 274.857 208.01 275.28 208.221L280.463 211.183C280.886 211.501 281.626 211.501 282.05 211.289Z" fill="#06033E"/>
<path d="M289.983 206.74L295.166 203.673C295.484 203.461 295.484 203.038 294.955 202.826L289.877 199.865C289.454 199.547 288.714 199.547 288.291 199.759L283.108 202.721C282.684 203.038 282.79 203.355 283.213 203.673L288.291 206.634C288.82 206.952 289.56 206.952 289.983 206.74Z" fill="#06033E"/>
<path d="M281.838 201.98L286.915 199.019C287.338 198.807 287.338 198.384 286.809 198.067L285.117 197.115C284.694 196.797 283.953 196.797 283.53 197.009L278.347 199.971C277.924 200.288 278.03 200.711 278.453 200.923L280.145 201.98C280.674 202.192 281.415 202.192 281.838 201.98Z" fill="#06033E"/>
<path d="M271.472 208.007L276.655 204.94C277.078 204.728 276.972 204.305 276.549 204.093L274.857 203.036C274.328 202.824 273.587 202.824 273.164 203.036L268.087 205.997C267.664 206.209 267.664 206.632 268.193 206.949L269.885 207.901C270.308 208.219 271.049 208.219 271.472 208.007Z" fill="#06033E"/>
<path d="M263.538 212.558L268.721 209.596C269.144 209.279 269.039 208.856 268.616 208.644L266.923 207.586C266.394 207.375 265.76 207.375 265.336 207.586L260.153 210.548C259.73 210.76 259.836 211.183 260.259 211.5L261.952 212.452C262.48 212.77 263.115 212.77 263.538 212.558Z" fill="#06033E"/>
<path d="M255.711 217.107L260.788 214.146C261.211 213.828 261.211 213.405 260.682 213.194L258.99 212.242C258.567 211.924 257.826 211.924 257.403 212.136L252.22 215.098C251.797 215.309 251.903 215.732 252.326 216.05L254.018 217.002C254.547 217.319 255.288 217.319 255.711 217.107Z" fill="#06033E"/>
<path d="M247.777 221.654L252.961 218.692C253.384 218.375 253.278 217.952 252.855 217.74L251.162 216.788C250.633 216.471 249.893 216.471 249.47 216.683L244.393 219.644C243.969 219.856 243.969 220.279 244.498 220.596L246.191 221.548C246.614 221.866 247.354 221.866 247.777 221.654Z" fill="#06033E"/>
<path d="M203.668 247.043L208.851 244.081C209.274 243.869 209.274 243.446 208.745 243.129L207.053 242.177C206.629 241.965 205.889 241.86 205.466 242.177L200.283 245.139C199.86 245.35 199.965 245.773 200.389 245.985L202.081 247.043C202.61 247.254 203.35 247.36 203.668 247.043Z" fill="#06033E"/>
<path d="M195.84 251.591L201.023 248.63C201.446 248.418 201.341 247.995 200.918 247.678L199.225 246.726C198.696 246.514 197.956 246.408 197.533 246.726L192.455 249.687C192.032 249.899 192.032 250.322 192.561 250.639L194.254 251.591C194.677 251.803 195.417 251.909 195.84 251.591Z" fill="#06033E"/>
<path d="M187.907 256.244L193.09 253.177C193.513 252.965 193.407 252.542 192.984 252.33L191.292 251.273C190.763 251.061 190.128 250.955 189.705 251.273L184.522 254.234C184.099 254.446 184.099 254.869 184.628 255.186L186.32 256.138C186.849 256.35 187.484 256.456 187.907 256.244Z" fill="#06033E"/>
<path d="M180.079 260.795L185.156 257.727C185.579 257.516 185.579 257.093 185.05 256.881L183.358 255.823C182.935 255.612 182.194 255.506 181.771 255.823L176.588 258.785C176.165 258.997 176.271 259.42 176.694 259.737L178.386 260.689C178.915 261.006 179.656 261.006 180.079 260.795Z" fill="#06033E"/>
<path d="M258.249 225.041L263.327 222.079C263.75 221.762 263.75 221.444 263.221 221.127L258.143 218.165C257.615 217.848 256.98 217.848 256.557 218.06L251.374 221.127C250.951 221.339 251.056 221.762 251.479 221.973L256.557 224.935C257.086 225.252 257.826 225.252 258.249 225.041Z" fill="#06033E"/>
<path d="M250.21 229.589L255.393 226.627C255.816 226.416 255.816 225.992 255.287 225.675L250.21 222.713C249.681 222.502 248.941 222.502 248.518 222.713L243.44 225.675C243.017 225.887 243.017 226.31 243.546 226.627L248.623 229.589C249.152 229.801 249.787 229.906 250.21 229.589Z" fill="#06033E"/>
<path d="M242.277 234.242L247.46 231.28C247.883 230.963 247.777 230.54 247.354 230.328L242.171 227.367C241.748 227.049 241.008 227.049 240.585 227.261L235.401 230.223C234.978 230.54 235.084 230.963 235.507 231.175L240.69 234.136C241.113 234.454 241.854 234.454 242.277 234.242Z" fill="#06033E"/>
<path d="M234.343 238.79L239.527 235.828C239.844 235.617 239.844 235.194 239.315 234.876L234.238 231.915C233.815 231.703 233.074 231.703 232.651 231.915L227.468 234.876C227.045 235.088 227.151 235.511 227.574 235.828L232.651 238.79C233.18 239.002 233.92 239.107 234.343 238.79Z" fill="#06033E"/>
<path d="M226.305 243.445L231.488 240.483C231.911 240.166 231.911 239.743 231.382 239.531L226.305 236.57C225.776 236.252 225.035 236.252 224.718 236.464L219.535 239.426C219.112 239.743 219.112 240.166 219.641 240.378L224.718 243.339C225.247 243.657 225.987 243.657 226.305 243.445Z" fill="#06033E"/>
<path d="M218.371 247.995L223.554 245.033C223.977 244.822 223.871 244.399 223.448 244.081L218.265 241.12C217.842 240.908 217.102 240.908 216.679 241.12L211.495 244.081C211.178 244.293 211.178 244.716 211.707 245.033L216.784 247.995C217.207 248.207 217.948 248.313 218.371 247.995Z" fill="#06033E"/>
<path d="M210.437 252.648L215.621 249.687C216.044 249.369 215.938 248.946 215.515 248.735L210.332 245.773C209.908 245.455 209.168 245.455 208.745 245.667L203.562 248.629C203.139 248.946 203.244 249.369 203.668 249.581L208.851 252.543C209.274 252.86 210.014 252.86 210.437 252.648Z" fill="#06033E"/>
<path d="M202.504 257.197L207.582 254.235C208.005 254.024 208.005 253.601 207.476 253.283L202.398 250.321C201.869 250.11 201.235 250.004 200.812 250.321L195.629 253.283C195.205 253.495 195.205 253.918 195.734 254.235L200.812 257.197C201.341 257.409 202.081 257.409 202.504 257.197Z" fill="#06033E"/>
<path d="M194.465 261.85L199.648 258.888C200.071 258.57 199.965 258.147 199.542 257.936L194.465 254.974C193.936 254.657 193.195 254.657 192.772 254.868L187.695 257.83C187.272 258.147 187.272 258.57 187.801 258.782L192.878 261.744C193.301 262.061 194.042 262.061 194.465 261.85Z" fill="#06033E"/>
<path d="M303.734 225.567L318.966 216.788C319.39 216.576 319.284 216.153 318.861 215.942L313.678 212.98C313.254 212.662 312.514 212.662 312.091 212.874L296.859 221.654C296.541 221.865 296.541 222.288 297.07 222.606L302.148 225.567C302.571 225.779 303.311 225.885 303.734 225.567Z" fill="#06033E"/>
<path d="M205.889 282.054L221.121 273.274C221.544 273.063 221.438 272.639 221.015 272.428L215.832 269.466C215.409 269.149 214.669 269.149 214.245 269.36L199.013 278.14C198.59 278.352 198.696 278.775 199.119 279.092L204.302 282.054C204.725 282.265 205.466 282.371 205.889 282.054Z" fill="#06033E"/>
<path d="M237.728 273.91L242.912 270.842C243.335 270.631 243.229 270.208 242.806 269.996L236.671 266.399C236.248 266.188 235.507 266.082 235.084 266.399L229.901 269.361C229.478 269.573 229.583 269.996 230.007 270.313L236.142 273.804C236.565 274.121 237.305 274.121 237.728 273.91Z" fill="#06033E"/>
<path d="M295.589 240.485L303.84 235.725C304.263 235.514 304.157 235.091 303.734 234.773L297.599 231.283C297.176 230.965 296.435 230.965 296.012 231.177L287.761 235.937C287.338 236.148 287.444 236.571 287.867 236.889L294.002 240.379C294.425 240.697 295.166 240.697 295.589 240.485Z" fill="#06033E"/>
<path d="M245.45 269.466L253.701 264.706C254.124 264.388 254.018 263.965 253.595 263.754L247.46 260.263C247.037 259.946 246.296 259.946 245.873 260.157L237.623 264.917C237.199 265.129 237.199 265.552 237.728 265.869L243.758 269.36C244.287 269.677 245.027 269.677 245.45 269.466Z" fill="#06033E"/>
<path d="M284.059 247.149L292.31 242.389C292.733 242.071 292.733 241.648 292.204 241.437L286.175 237.84C285.646 237.629 284.906 237.629 284.482 237.84L276.232 242.6C275.914 242.812 275.914 243.235 276.443 243.552L282.473 247.043C283.002 247.36 283.636 247.36 284.059 247.149Z" fill="#06033E"/>
<path d="M284.483 237.842L248.624 258.574C248.201 258.786 248.201 259.209 248.624 259.526L254.865 263.123C255.288 263.334 256.028 263.334 256.451 263.123L292.31 242.39L284.483 237.842Z" fill="#06033E"/>
<path d="M215.515 282.159L209.697 285.544C209.38 285.756 209.485 286.073 209.803 286.285L212.341 287.766C212.765 287.977 213.293 287.977 213.611 287.766L219.429 284.486C219.746 284.275 219.746 283.958 219.323 283.64L216.784 282.265C216.467 282.054 215.832 282.054 215.515 282.159Z" fill="#06033E"/>
<path d="M223.554 277.61L217.736 280.889C217.419 281.101 217.525 281.418 217.842 281.629L220.381 283.11C220.804 283.322 221.333 283.322 221.65 283.11L227.468 279.831C227.785 279.62 227.68 279.302 227.362 279.091L224.824 277.61C224.4 277.398 223.872 277.398 223.554 277.61Z" fill="#06033E"/>
<path d="M231.487 272.958L225.775 276.237C225.352 276.449 225.458 276.766 225.881 277.083L228.314 278.458C228.737 278.67 229.266 278.776 229.689 278.564L235.401 275.179C235.719 275.074 235.719 274.65 235.295 274.439L232.757 273.064C232.439 272.746 231.805 272.746 231.487 272.958Z" fill="#06033E"/>
<path d="M219.111 275.073L213.399 278.352C213.082 278.563 213.082 278.881 213.505 279.092L215.938 280.573C216.361 280.785 216.996 280.785 217.313 280.573L223.025 277.294C223.342 277.082 223.342 276.765 222.919 276.554L220.486 275.073C220.063 274.861 219.429 274.861 219.111 275.073Z" fill="#06033E"/>
</g>
<g opacity="0.4">
<path d="M322.563 224.933L327.746 221.866C328.169 221.654 328.063 221.231 327.64 221.019L321.505 217.423C321.082 217.211 320.341 217.106 319.918 217.423L314.735 220.385C314.312 220.596 314.418 221.019 314.841 221.337L320.976 224.827C321.399 225.039 322.14 225.145 322.563 224.933Z" fill="#06033E"/>
<path d="M314.629 229.484L319.812 226.522C320.236 226.311 320.13 225.887 319.707 225.57L313.572 222.079C313.043 221.762 312.408 221.762 311.985 221.974L306.802 224.935C306.379 225.253 306.484 225.676 306.907 225.887L313.043 229.378C313.466 229.695 314.206 229.695 314.629 229.484Z" fill="#06033E"/>
<path d="M306.696 234.029L311.773 231.067C312.197 230.855 312.197 230.432 311.668 230.115L305.638 226.624C305.109 226.413 304.369 226.307 303.946 226.624L298.868 229.586C298.445 229.797 298.445 230.221 298.974 230.538L305.004 234.029C305.532 234.24 306.273 234.346 306.696 234.029Z" fill="#06033E"/>
<path d="M295.589 230.33L300.772 227.262C301.196 227.051 301.196 226.628 300.667 226.416L295.589 223.454C295.06 223.137 294.32 223.137 294.003 223.349L288.819 226.31C288.396 226.522 288.396 226.945 288.925 227.262L294.003 230.224C294.531 230.542 295.272 230.542 295.589 230.33Z" fill="#06033E"/>
<path d="M287.656 234.879L292.839 231.917C293.262 231.705 293.156 231.282 292.733 230.965L287.55 228.003C287.127 227.791 286.387 227.686 285.963 228.003L280.78 230.965C280.463 231.176 280.463 231.599 280.992 231.917L286.069 234.773C286.492 235.09 287.233 235.09 287.656 234.879Z" fill="#06033E"/>
<path d="M279.723 239.527L284.906 236.46C285.329 236.248 285.223 235.825 284.694 235.613L279.617 232.652C279.194 232.334 278.453 232.334 278.03 232.546L272.847 235.508C272.424 235.719 272.53 236.142 272.953 236.46L278.136 239.421C278.559 239.633 279.299 239.739 279.723 239.527Z" fill="#06033E"/>
<path d="M271.789 244.077L276.866 241.115C277.29 240.904 277.29 240.481 276.761 240.163L271.683 237.202C271.154 236.99 270.52 236.884 270.097 237.096L264.913 240.163C264.49 240.375 264.49 240.798 265.019 241.01L270.097 243.971C270.625 244.289 271.366 244.289 271.789 244.077Z" fill="#06033E"/>
<path d="M263.75 248.629L268.933 245.667C269.356 245.455 269.251 245.032 268.828 244.715L263.75 241.859C263.221 241.541 262.481 241.541 262.058 241.753L256.98 244.715C256.557 244.926 256.557 245.349 257.086 245.667L262.163 248.629C262.587 248.84 263.327 248.946 263.75 248.629Z" fill="#06033E"/>
<path d="M255.817 253.283L261 250.321C261.423 250.11 261.317 249.687 260.894 249.369L255.711 246.408C255.288 246.09 254.547 246.09 254.124 246.302L248.941 249.369C248.518 249.581 248.624 250.004 249.047 250.216L254.23 253.177C254.653 253.495 255.393 253.495 255.817 253.283Z" fill="#06033E"/>
<path d="M247.883 257.828L252.961 254.866C253.384 254.654 253.384 254.231 252.855 253.914L247.778 251.058C247.249 250.741 246.614 250.741 246.191 250.952L241.008 253.914C240.585 254.125 240.69 254.549 241.113 254.866L246.191 257.828C246.72 258.039 247.46 258.145 247.883 257.828Z" fill="#06033E"/>
<path d="M239.844 262.486L245.027 259.524C245.45 259.207 245.45 258.89 244.922 258.572L239.844 255.611C239.315 255.293 238.575 255.293 238.152 255.505L233.074 258.572C232.651 258.784 232.651 259.207 233.18 259.419L238.257 262.38C238.786 262.698 239.421 262.698 239.844 262.486Z" fill="#06033E"/>
<path d="M231.911 267.033L237.094 264.071C237.517 263.859 237.411 263.436 236.988 263.119L231.805 260.263C231.382 259.946 230.641 259.946 230.218 260.157L225.035 263.119C224.612 263.331 224.718 263.754 225.141 264.071L230.324 267.033C230.747 267.244 231.487 267.35 231.911 267.033Z" fill="#06033E"/>
<path d="M223.977 271.687L229.055 268.726C229.478 268.408 229.478 267.985 228.949 267.774L223.872 264.812C223.448 264.494 222.708 264.494 222.285 264.706L217.102 267.668C216.679 267.985 216.784 268.408 217.207 268.62L222.285 271.582C222.814 271.899 223.554 271.899 223.977 271.687Z" fill="#06033E"/>
<path d="M283.848 228.106L289.031 225.145C289.454 224.933 289.454 224.51 288.925 224.193L283.848 221.231C283.319 221.019 282.578 220.914 282.261 221.125L277.078 224.193C276.655 224.404 276.655 224.827 277.184 225.039L282.261 228.001C282.79 228.318 283.53 228.318 283.848 228.106Z" fill="#06033E"/>
<path d="M291.993 223.451L297.176 220.489C297.599 220.172 297.493 219.749 297.07 219.537L291.887 216.575C291.464 216.258 290.723 216.258 290.3 216.47L285.117 219.537C284.694 219.749 284.8 220.172 285.223 220.384L290.406 223.345C290.829 223.663 291.57 223.663 291.993 223.451Z" fill="#06033E"/>
<path d="M300.032 218.797L311.139 212.345C311.562 212.133 311.562 211.71 311.033 211.393L305.955 208.431C305.532 208.219 304.792 208.113 304.369 208.431L293.262 214.777C292.839 215.095 292.839 215.518 293.368 215.729L298.445 218.691C298.974 219.009 299.715 219.009 300.032 218.797Z" fill="#06033E"/>
<path d="M294.426 213.088L303.417 207.905C303.84 207.588 303.84 207.165 303.311 206.953L298.234 203.992C297.705 203.674 296.964 203.674 296.541 203.886L287.55 209.175C287.127 209.386 287.233 209.809 287.656 210.021L292.839 212.983C293.262 213.3 294.003 213.3 294.426 213.088Z" fill="#06033E"/>
<path d="M275.914 232.654L281.098 229.692C281.521 229.481 281.415 229.057 280.992 228.74L275.914 225.884C275.386 225.567 274.645 225.567 274.222 225.778L269.039 228.74C268.721 228.952 268.722 229.375 269.25 229.692L274.328 232.654C274.751 232.865 275.491 232.971 275.914 232.654Z" fill="#06033E"/>
<path d="M267.981 237.31L273.164 234.349C273.587 234.137 273.481 233.714 273.058 233.397L267.875 230.435C267.452 230.118 266.712 230.118 266.288 230.329L261.105 233.397C260.682 233.608 260.788 234.031 261.211 234.243L266.394 237.205C266.817 237.522 267.558 237.522 267.981 237.31Z" fill="#06033E"/>
<path d="M260.048 241.859L265.125 238.897C265.548 238.686 265.548 238.263 265.019 237.945L259.942 235.089C259.413 234.772 258.778 234.772 258.355 234.983L253.172 237.945C252.749 238.157 252.749 238.58 253.278 238.897L258.355 241.859C258.884 242.071 259.624 242.176 260.048 241.859Z" fill="#06033E"/>
<path d="M252.008 246.514L257.192 243.552C257.615 243.234 257.509 242.917 257.086 242.6L252.008 239.638C251.48 239.321 250.739 239.321 250.316 239.532L245.239 242.6C244.815 242.811 244.816 243.234 245.344 243.446L250.422 246.408C250.951 246.725 251.585 246.725 252.008 246.514Z" fill="#06033E"/>
<path d="M244.075 251.062L249.258 248.1C249.682 247.888 249.576 247.465 249.153 247.148L243.97 244.186C243.546 243.974 242.806 243.974 242.383 244.186L237.2 247.148C236.777 247.359 236.882 247.782 237.306 248.1L242.489 251.062C242.912 251.273 243.652 251.379 244.075 251.062Z" fill="#06033E"/>
<path d="M236.142 255.717L241.219 252.755C241.642 252.438 241.642 252.014 241.113 251.803L236.036 248.841C235.507 248.524 234.872 248.524 234.449 248.735L229.266 251.697C228.843 252.014 228.949 252.438 229.372 252.649L234.449 255.611C234.978 255.928 235.718 255.928 236.142 255.717Z" fill="#06033E"/>
<path d="M228.102 260.263L233.285 257.301C233.708 257.089 233.708 256.666 233.18 256.349L228.102 253.387C227.573 253.176 226.833 253.176 226.41 253.387L221.332 256.349C220.909 256.561 220.909 256.984 221.438 257.301L226.516 260.263C227.044 260.474 227.679 260.58 228.102 260.263Z" fill="#06033E"/>
<path d="M220.169 264.916L225.352 261.954C225.776 261.637 225.67 261.214 225.247 261.002L220.064 258.04C219.64 257.723 218.9 257.723 218.477 257.935L213.294 260.896C212.871 261.214 212.976 261.637 213.4 261.848L218.583 264.81C219.006 265.127 219.746 265.127 220.169 264.916Z" fill="#06033E"/>
<path d="M212.236 269.466L217.419 266.504C217.736 266.293 217.736 265.869 217.207 265.552L212.13 262.59C211.707 262.379 210.966 262.379 210.543 262.59L205.36 265.552C204.937 265.764 205.043 266.187 205.466 266.504L210.543 269.466C211.072 269.677 211.813 269.783 212.236 269.466Z" fill="#06033E"/>
<path d="M198.061 277.717L209.274 271.158C209.697 270.947 209.697 270.524 209.168 270.206L204.091 267.245C203.562 267.033 202.927 267.033 202.504 267.245L191.186 273.697C190.763 273.909 190.868 274.332 191.292 274.649L196.475 277.611C196.898 277.928 197.638 277.928 198.061 277.717Z" fill="#06033E"/>
<path d="M182.512 268.724L192.032 263.223C192.455 263.012 192.455 262.589 191.926 262.271L186.849 259.31C186.32 259.098 185.579 258.992 185.156 259.31L175.742 264.81C175.319 265.022 175.319 265.445 175.848 265.656L180.925 268.618C181.454 268.936 182.089 268.936 182.512 268.724Z" fill="#06033E"/>
<path d="M261.952 231.81L267.135 228.849C267.558 228.637 267.452 228.214 267.029 227.897L261.952 224.935C261.423 224.618 260.682 224.618 260.259 224.829L255.182 227.897C254.759 228.108 254.759 228.531 255.288 228.743L260.365 231.705C260.894 232.022 261.529 232.022 261.952 231.81Z" fill="#06033E"/>
<path d="M270.097 227.05L275.28 224.089C275.703 223.877 275.703 223.454 275.174 223.137L270.097 220.281C269.568 219.963 268.827 219.963 268.51 220.175L263.327 223.137C262.904 223.348 262.904 223.771 263.433 224.089L268.51 227.05C269.039 227.262 269.779 227.368 270.097 227.05Z" fill="#06033E"/>
<path d="M278.347 222.392L283.424 219.431C283.847 219.113 283.847 218.69 283.318 218.479L278.241 215.517C277.712 215.2 277.078 215.2 276.654 215.411L271.471 218.373C271.048 218.69 271.154 219.113 271.577 219.325L276.654 222.287C277.183 222.604 277.924 222.604 278.347 222.392Z" fill="#06033E"/>
<path d="M286.492 217.636L291.675 214.674C292.098 214.462 291.993 214.039 291.464 213.722L286.386 210.76C285.963 210.549 285.223 210.549 284.8 210.76L279.616 213.722C279.193 213.934 279.299 214.357 279.722 214.674L284.905 217.636C285.328 217.847 286.069 217.953 286.492 217.636Z" fill="#06033E"/>
<path d="M254.018 236.355L259.201 233.393C259.624 233.182 259.519 232.759 259.096 232.441L253.912 229.585C253.489 229.268 252.749 229.268 252.326 229.479L247.143 232.441C246.72 232.653 246.825 233.076 247.248 233.393L252.432 236.355C252.855 236.567 253.595 236.672 254.018 236.355Z" fill="#06033E"/>
<path d="M246.085 241.012L251.162 238.05C251.585 237.732 251.585 237.415 251.056 237.098L245.979 234.136C245.556 233.819 244.815 233.819 244.392 234.03L239.209 237.098C238.786 237.309 238.892 237.733 239.315 237.944L244.392 240.906C244.921 241.223 245.662 241.223 246.085 241.012Z" fill="#06033E"/>
<path d="M238.046 245.56L243.229 242.598C243.652 242.387 243.652 241.964 243.123 241.646L238.046 238.79C237.517 238.473 236.776 238.473 236.353 238.685L231.276 241.646C230.853 241.858 230.853 242.281 231.382 242.598L236.459 245.56C236.988 245.772 237.623 245.877 238.046 245.56Z" fill="#06033E"/>
<path d="M230.112 250.213L235.296 247.251C235.719 246.934 235.613 246.511 235.19 246.299L230.007 243.337C229.584 243.02 228.843 243.02 228.42 243.231L223.237 246.299C222.814 246.511 222.92 246.934 223.448 247.145L228.526 250.107C228.949 250.424 229.689 250.424 230.112 250.213Z" fill="#06033E"/>
<path d="M222.179 254.763L227.362 251.801C227.679 251.589 227.679 251.166 227.15 250.849L222.073 247.887C221.65 247.676 220.91 247.676 220.486 247.887L215.303 250.849C214.88 251.061 214.986 251.484 215.409 251.801L220.592 254.763C221.015 254.974 221.756 255.08 222.179 254.763Z" fill="#06033E"/>
<path d="M214.14 259.418L219.323 256.456C219.746 256.139 219.746 255.716 219.217 255.504L214.14 252.542C213.611 252.225 212.87 252.225 212.553 252.437L207.37 255.398C206.947 255.716 206.947 256.139 207.476 256.35L212.553 259.312C213.082 259.629 213.822 259.629 214.14 259.418Z" fill="#06033E"/>
<path d="M206.207 263.966L211.39 261.004C211.813 260.793 211.707 260.369 211.284 260.052L206.207 257.09C205.678 256.879 204.937 256.879 204.514 257.09L199.437 260.052C199.014 260.264 199.014 260.687 199.543 261.004L204.62 263.966C205.043 264.177 205.784 264.283 206.207 263.966Z" fill="#06033E"/>
<path d="M198.273 268.621L203.456 265.659C203.879 265.342 203.774 264.919 203.35 264.707L198.167 261.745C197.744 261.428 197.004 261.428 196.581 261.64L191.397 264.601C190.974 264.919 191.08 265.342 191.503 265.553L196.686 268.515C197.11 268.833 197.85 268.833 198.273 268.621Z" fill="#06033E"/>
<path d="M190.34 273.168L195.417 270.206C195.84 269.994 195.84 269.571 195.311 269.254L190.234 266.292C189.705 266.081 189.07 265.975 188.647 266.292L183.464 269.254C183.041 269.465 183.041 269.889 183.57 270.206L188.647 273.168C189.176 273.379 189.916 273.379 190.34 273.168Z" fill="#06033E"/>
<path d="M266.183 220.386L271.366 217.425C271.789 217.213 271.683 216.79 271.26 216.473L266.077 213.617C265.654 213.299 264.913 213.299 264.49 213.511L259.307 216.473C258.884 216.684 258.99 217.107 259.413 217.425L264.596 220.386C265.019 220.598 265.76 220.704 266.183 220.386Z" fill="#06033E"/>
<path d="M274.116 215.838L279.299 212.876C279.722 212.664 279.617 212.241 279.193 211.924L274.01 208.962C273.587 208.75 272.847 208.645 272.424 208.962L267.241 211.924C266.817 212.135 266.923 212.558 267.346 212.876L272.529 215.838C272.953 216.049 273.693 216.049 274.116 215.838Z" fill="#06033E"/>
<path d="M282.05 211.289L287.233 208.327C287.55 208.01 287.55 207.693 287.021 207.375L281.944 204.413C281.521 204.096 280.78 204.096 280.357 204.308L275.174 207.375C274.751 207.587 274.857 208.01 275.28 208.221L280.463 211.183C280.886 211.501 281.626 211.501 282.05 211.289Z" fill="#06033E"/>
<path d="M289.983 206.74L295.166 203.673C295.484 203.461 295.484 203.038 294.955 202.826L289.877 199.865C289.454 199.547 288.714 199.547 288.291 199.759L283.108 202.721C282.684 203.038 282.79 203.355 283.213 203.673L288.291 206.634C288.82 206.952 289.56 206.952 289.983 206.74Z" fill="#06033E"/>
<path d="M281.838 201.98L286.915 199.019C287.338 198.807 287.338 198.384 286.809 198.067L285.117 197.115C284.694 196.797 283.953 196.797 283.53 197.009L278.347 199.971C277.924 200.288 278.03 200.711 278.453 200.923L280.145 201.98C280.674 202.192 281.415 202.192 281.838 201.98Z" fill="#06033E"/>
<path d="M271.472 208.007L276.655 204.94C277.078 204.728 276.972 204.305 276.549 204.093L274.857 203.036C274.328 202.824 273.587 202.824 273.164 203.036L268.087 205.997C267.664 206.209 267.664 206.632 268.193 206.949L269.885 207.901C270.308 208.219 271.049 208.219 271.472 208.007Z" fill="#06033E"/>
<path d="M263.538 212.558L268.721 209.596C269.144 209.279 269.039 208.856 268.616 208.644L266.923 207.586C266.394 207.375 265.76 207.375 265.336 207.586L260.153 210.548C259.73 210.76 259.836 211.183 260.259 211.5L261.952 212.452C262.48 212.77 263.115 212.77 263.538 212.558Z" fill="#06033E"/>
<path d="M255.711 217.107L260.788 214.146C261.211 213.828 261.211 213.405 260.682 213.194L258.99 212.242C258.567 211.924 257.826 211.924 257.403 212.136L252.22 215.098C251.797 215.309 251.903 215.732 252.326 216.05L254.018 217.002C254.547 217.319 255.288 217.319 255.711 217.107Z" fill="#06033E"/>
<path d="M247.777 221.654L252.961 218.692C253.384 218.375 253.278 217.952 252.855 217.74L251.162 216.788C250.633 216.471 249.893 216.471 249.47 216.683L244.393 219.644C243.969 219.856 243.969 220.279 244.498 220.596L246.191 221.548C246.614 221.866 247.354 221.866 247.777 221.654Z" fill="#06033E"/>
<path d="M203.668 247.043L208.851 244.081C209.274 243.869 209.274 243.446 208.745 243.129L207.053 242.177C206.629 241.965 205.889 241.86 205.466 242.177L200.283 245.139C199.86 245.35 199.965 245.773 200.389 245.985L202.081 247.043C202.61 247.254 203.35 247.36 203.668 247.043Z" fill="#06033E"/>
<path d="M195.84 251.591L201.023 248.63C201.446 248.418 201.341 247.995 200.918 247.678L199.225 246.726C198.696 246.514 197.956 246.408 197.533 246.726L192.455 249.687C192.032 249.899 192.032 250.322 192.561 250.639L194.254 251.591C194.677 251.803 195.417 251.909 195.84 251.591Z" fill="#06033E"/>
<path d="M187.907 256.244L193.09 253.177C193.513 252.965 193.407 252.542 192.984 252.33L191.292 251.273C190.763 251.061 190.128 250.955 189.705 251.273L184.522 254.234C184.099 254.446 184.099 254.869 184.628 255.186L186.32 256.138C186.849 256.35 187.484 256.456 187.907 256.244Z" fill="#06033E"/>
<path d="M180.079 260.795L185.156 257.727C185.579 257.516 185.579 257.093 185.05 256.881L183.358 255.823C182.935 255.612 182.194 255.506 181.771 255.823L176.588 258.785C176.165 258.997 176.271 259.42 176.694 259.737L178.386 260.689C178.915 261.006 179.656 261.006 180.079 260.795Z" fill="#06033E"/>
<path d="M258.249 225.041L263.327 222.079C263.75 221.762 263.75 221.444 263.221 221.127L258.143 218.165C257.615 217.848 256.98 217.848 256.557 218.06L251.374 221.127C250.951 221.339 251.056 221.762 251.479 221.973L256.557 224.935C257.086 225.252 257.826 225.252 258.249 225.041Z" fill="#06033E"/>
<path d="M250.21 229.589L255.393 226.627C255.816 226.416 255.816 225.992 255.287 225.675L250.21 222.713C249.681 222.502 248.941 222.502 248.518 222.713L243.44 225.675C243.017 225.887 243.017 226.31 243.546 226.627L248.623 229.589C249.152 229.801 249.787 229.906 250.21 229.589Z" fill="#06033E"/>
<path d="M242.277 234.242L247.46 231.28C247.883 230.963 247.777 230.54 247.354 230.328L242.171 227.367C241.748 227.049 241.008 227.049 240.585 227.261L235.401 230.223C234.978 230.54 235.084 230.963 235.507 231.175L240.69 234.136C241.113 234.454 241.854 234.454 242.277 234.242Z" fill="#06033E"/>
<path d="M234.343 238.79L239.527 235.828C239.844 235.617 239.844 235.194 239.315 234.876L234.238 231.915C233.815 231.703 233.074 231.703 232.651 231.915L227.468 234.876C227.045 235.088 227.151 235.511 227.574 235.828L232.651 238.79C233.18 239.002 233.92 239.107 234.343 238.79Z" fill="#06033E"/>
<path d="M226.305 243.445L231.488 240.483C231.911 240.166 231.911 239.743 231.382 239.531L226.305 236.57C225.776 236.252 225.035 236.252 224.718 236.464L219.535 239.426C219.112 239.743 219.112 240.166 219.641 240.378L224.718 243.339C225.247 243.657 225.987 243.657 226.305 243.445Z" fill="#06033E"/>
<path d="M218.371 247.995L223.554 245.033C223.977 244.822 223.871 244.399 223.448 244.081L218.265 241.12C217.842 240.908 217.102 240.908 216.679 241.12L211.495 244.081C211.178 244.293 211.178 244.716 211.707 245.033L216.784 247.995C217.207 248.207 217.948 248.313 218.371 247.995Z" fill="#06033E"/>
<path d="M210.437 252.648L215.621 249.687C216.044 249.369 215.938 248.946 215.515 248.735L210.332 245.773C209.908 245.455 209.168 245.455 208.745 245.667L203.562 248.629C203.139 248.946 203.244 249.369 203.668 249.581L208.851 252.543C209.274 252.86 210.014 252.86 210.437 252.648Z" fill="#06033E"/>
<path d="M202.504 257.197L207.582 254.235C208.005 254.024 208.005 253.601 207.476 253.283L202.398 250.321C201.869 250.11 201.235 250.004 200.812 250.321L195.629 253.283C195.205 253.495 195.205 253.918 195.734 254.235L200.812 257.197C201.341 257.409 202.081 257.409 202.504 257.197Z" fill="#06033E"/>
<path d="M194.465 261.85L199.648 258.888C200.071 258.57 199.965 258.147 199.542 257.936L194.465 254.974C193.936 254.657 193.195 254.657 192.772 254.868L187.695 257.83C187.272 258.147 187.272 258.57 187.801 258.782L192.878 261.744C193.301 262.061 194.042 262.061 194.465 261.85Z" fill="#06033E"/>
<path d="M303.734 225.567L318.966 216.788C319.39 216.576 319.284 216.153 318.861 215.942L313.678 212.98C313.254 212.662 312.514 212.662 312.091 212.874L296.859 221.654C296.541 221.865 296.541 222.288 297.07 222.606L302.148 225.567C302.571 225.779 303.311 225.885 303.734 225.567Z" fill="#06033E"/>
<path d="M205.889 282.054L221.121 273.274C221.544 273.063 221.438 272.639 221.015 272.428L215.832 269.466C215.409 269.149 214.669 269.149 214.245 269.36L199.013 278.14C198.59 278.352 198.696 278.775 199.119 279.092L204.302 282.054C204.725 282.265 205.466 282.371 205.889 282.054Z" fill="#06033E"/>
<path d="M237.728 273.91L242.912 270.842C243.335 270.631 243.229 270.208 242.806 269.996L236.671 266.399C236.248 266.188 235.507 266.082 235.084 266.399L229.901 269.361C229.478 269.573 229.583 269.996 230.007 270.313L236.142 273.804C236.565 274.121 237.305 274.121 237.728 273.91Z" fill="#06033E"/>
<path d="M295.589 240.485L303.84 235.725C304.263 235.514 304.157 235.091 303.734 234.773L297.599 231.283C297.176 230.965 296.435 230.965 296.012 231.177L287.761 235.937C287.338 236.148 287.444 236.571 287.867 236.889L294.002 240.379C294.425 240.697 295.166 240.697 295.589 240.485Z" fill="#06033E"/>
<path d="M245.45 269.466L253.701 264.706C254.124 264.388 254.018 263.965 253.595 263.754L247.46 260.263C247.037 259.946 246.296 259.946 245.873 260.157L237.623 264.917C237.199 265.129 237.199 265.552 237.728 265.869L243.758 269.36C244.287 269.677 245.027 269.677 245.45 269.466Z" fill="#06033E"/>
<path d="M284.059 247.149L292.31 242.389C292.733 242.071 292.733 241.648 292.204 241.437L286.175 237.84C285.646 237.629 284.906 237.629 284.482 237.84L276.232 242.6C275.914 242.812 275.914 243.235 276.443 243.552L282.473 247.043C283.002 247.36 283.636 247.36 284.059 247.149Z" fill="#06033E"/>
<path d="M284.483 237.842L248.624 258.574C248.201 258.786 248.201 259.209 248.624 259.526L254.865 263.123C255.288 263.334 256.028 263.334 256.451 263.123L292.31 242.39L284.483 237.842Z" fill="#06033E"/>
<path d="M215.515 282.159L209.697 285.544C209.38 285.756 209.485 286.073 209.803 286.285L212.341 287.766C212.765 287.977 213.293 287.977 213.611 287.766L219.429 284.486C219.746 284.275 219.746 283.958 219.323 283.64L216.784 282.265C216.467 282.054 215.832 282.054 215.515 282.159Z" fill="#06033E"/>
<path d="M223.554 277.61L217.736 280.889C217.419 281.101 217.525 281.418 217.842 281.629L220.381 283.11C220.804 283.322 221.333 283.322 221.65 283.11L227.468 279.831C227.785 279.62 227.68 279.302 227.362 279.091L224.824 277.61C224.4 277.398 223.872 277.398 223.554 277.61Z" fill="#06033E"/>
<path d="M231.487 272.958L225.775 276.237C225.352 276.449 225.458 276.766 225.881 277.083L228.314 278.458C228.737 278.67 229.266 278.776 229.689 278.564L235.401 275.179C235.719 275.074 235.719 274.65 235.295 274.439L232.757 273.064C232.439 272.746 231.805 272.746 231.487 272.958Z" fill="#06033E"/>
<path d="M219.111 275.073L213.399 278.352C213.082 278.563 213.082 278.881 213.505 279.092L215.938 280.573C216.361 280.785 216.996 280.785 217.313 280.573L223.025 277.294C223.342 277.082 223.342 276.765 222.919 276.554L220.486 275.073C220.063 274.861 219.429 274.861 219.111 275.073Z" fill="#06033E"/>
</g>
<path d="M134.806 265.765L287.021 177.863C289.348 176.488 290.617 173.103 289.771 170.352L255.393 58.6505C254.547 55.7945 251.902 54.7367 249.47 56.1118L97.3602 143.908C94.9273 145.283 93.658 148.668 94.5042 151.418L128.988 263.226C129.834 265.976 132.479 267.14 134.806 265.765Z" fill="url(#paint7_radial_2001_71136)"/>
<path d="M136.287 261.852L283.848 176.489C286.175 175.22 287.338 171.941 286.492 169.296L253.595 62.46C252.855 59.8156 250.316 58.7578 247.989 60.1329L100.428 145.39C98.1008 146.66 96.9372 149.939 97.7835 152.583L130.681 259.419C131.421 262.064 133.96 263.122 136.287 261.852Z" fill="url(#paint8_linear_2001_71136)"/>
<path opacity="0.4" d="M136.287 261.852L283.848 176.489C286.175 175.22 287.338 171.941 286.492 169.296L253.595 62.46C252.855 59.8156 250.316 58.7578 247.989 60.1329L100.428 145.39C98.1008 146.66 96.9372 149.939 97.7835 152.583L130.681 259.419C131.421 262.064 133.96 263.122 136.287 261.852Z" fill="#06033E"/>
<path opacity="0.4" d="M136.287 261.852L283.848 176.489C286.175 175.22 287.338 171.941 286.492 169.296L253.595 62.46C252.855 59.8156 250.316 58.7578 247.989 60.1329L100.428 145.39C98.1008 146.66 96.9372 149.939 97.7835 152.583L130.681 259.419C131.421 262.064 133.96 263.122 136.287 261.852Z" fill="#06033E"/>
<path opacity="0.5" d="M144.22 229.166L244.075 171.516C245.662 170.564 246.508 168.343 245.979 166.545L223.342 93.1345C222.814 91.3363 221.015 90.5959 219.429 91.5479L119.574 149.197C117.987 150.149 117.141 152.37 117.776 154.169L140.306 227.473C140.835 229.377 142.634 230.118 144.22 229.166Z" fill="#06033E"/>
<path d="M157.654 230.961L257.614 173.206C259.201 172.36 260.047 170.139 259.413 168.341L236.882 94.9304C236.247 93.1321 234.555 92.3917 232.968 93.2379L133.113 150.993C131.526 151.839 130.68 154.061 131.209 155.965L153.846 229.269C154.375 231.067 156.067 231.808 157.654 230.961Z" fill="url(#paint9_radial_2001_71136)"/>
<g opacity="0.5">
<path d="M157.654 230.961L257.614 173.206C259.201 172.36 260.047 170.139 259.413 168.341L236.882 94.9304C236.247 93.1321 234.555 92.3917 232.968 93.2379L133.113 150.993C131.526 151.839 130.68 154.061 131.209 155.965L153.846 229.269C154.375 231.067 156.067 231.808 157.654 230.961Z" fill="#06033E"/>
</g>
<path d="M133.113 150.997L232.968 93.2423C233.92 92.7134 234.978 92.8191 235.824 93.348C235.331 93.348 234.837 93.4891 234.343 93.7711L134.383 151.42C132.902 152.372 132.056 154.594 132.584 156.392L155.221 229.696C155.433 230.437 155.75 230.966 156.279 231.283C155.221 231.283 154.163 230.543 153.846 229.273L131.209 155.969C130.68 154.065 131.527 151.843 133.113 150.997Z" fill="white"/>
<path opacity="0.4" d="M283.742 290.831C285.117 290.831 286.387 290.514 287.444 289.985L327.429 266.819C328.486 266.29 329.121 265.338 329.121 264.386C329.121 263.223 328.275 262.165 326.9 261.319L306.273 249.472C303.734 247.991 300.032 247.885 297.811 249.154L257.826 272.214C256.769 272.849 256.134 273.695 256.134 274.647C256.134 275.81 256.98 276.974 258.355 277.714L278.982 289.667C280.357 290.408 282.05 290.831 283.742 290.831ZM301.513 249.366C302.994 249.366 304.475 249.789 305.744 250.424L326.265 262.376C327.323 262.905 327.958 263.646 327.958 264.386C327.958 265.127 327.323 265.55 326.9 265.867L286.81 288.927C285.012 289.985 281.732 289.879 279.617 288.61L258.99 276.762C257.932 276.128 257.298 275.387 257.298 274.647C257.298 274.012 257.932 273.483 258.355 273.272L298.445 250.106C299.292 249.683 300.349 249.366 301.513 249.366Z" fill="#06033E"/>
<path d="M208.639 131.743L214.775 128.253C215.409 127.935 215.727 127.089 215.515 126.454C215.303 125.82 214.669 125.502 214.14 125.82L207.899 129.416C207.37 129.734 207.053 130.58 207.264 131.214C207.476 131.849 208.111 132.061 208.639 131.743Z" fill="white"/>
<path d="M193.936 140.311L203.033 135.022C203.562 134.704 203.879 133.858 203.774 133.224C203.562 132.589 202.927 132.377 202.293 132.695L193.196 137.878C192.667 138.301 192.35 139.041 192.561 139.676C192.773 140.311 193.407 140.628 193.936 140.311Z" fill="white"/>
<path d="M221.122 159.243L227.257 155.753C227.891 155.435 228.209 154.589 227.997 153.954C227.786 153.32 227.151 153.002 226.622 153.32L220.381 156.916C219.852 157.234 219.535 158.08 219.747 158.714C219.958 159.349 220.487 159.561 221.122 159.243Z" fill="white"/>
<path d="M208.005 166.859L217.102 161.571C217.631 161.253 217.948 160.513 217.736 159.772C217.631 159.138 216.996 158.926 216.361 159.243L207.264 164.532C206.736 164.85 206.418 165.59 206.63 166.225C206.841 166.965 207.37 167.177 208.005 166.859Z" fill="white"/>
<path d="M227.151 126.874L230.959 124.653C231.593 124.335 231.911 123.489 231.699 122.854C231.488 122.22 230.853 122.008 230.324 122.325L226.41 124.547C225.881 124.864 225.564 125.605 225.776 126.345C225.987 126.98 226.622 127.191 227.151 126.874Z" fill="white"/>
<path d="M215.515 139.355L227.362 132.585C227.891 132.267 228.209 131.421 227.997 130.787C227.785 130.152 227.151 129.834 226.622 130.152L214.88 137.027C214.246 137.345 213.928 138.085 214.14 138.826C214.352 139.46 214.986 139.672 215.515 139.355Z" fill="white"/>
<path d="M226.41 144.647L230.218 142.426C230.853 142.109 231.17 141.262 230.959 140.628C230.747 139.993 230.112 139.782 229.584 140.099L225.67 142.32C225.141 142.638 224.824 143.378 225.035 144.118C225.247 144.753 225.881 144.965 226.41 144.647Z" fill="white"/>
<path d="M206.524 179.234L216.89 173.311C217.419 172.993 217.737 172.147 217.525 171.513C217.313 170.878 216.785 170.561 216.15 170.984L205.889 176.907C205.255 177.225 204.937 177.965 205.149 178.705C205.361 179.34 205.995 179.552 206.524 179.234Z" fill="white"/>
<path d="M230.747 153.743L233.18 152.262C233.815 151.945 234.132 151.204 233.92 150.464C233.709 149.829 233.074 149.618 232.545 149.935L230.007 151.416C229.478 151.733 229.16 152.474 229.372 153.108C229.583 153.743 230.112 154.06 230.747 153.743Z" fill="white"/>
<path d="M233.074 163.898L236.142 162.206C236.777 161.783 236.988 161.042 236.882 160.408C236.671 159.773 236.036 159.456 235.507 159.773L232.334 161.571C231.805 161.888 231.488 162.735 231.699 163.369C231.911 164.004 232.546 164.216 233.074 163.898Z" fill="white"/>
<path d="M221.121 170.88L229.266 166.12C229.795 165.803 230.113 165.063 229.901 164.428C229.689 163.687 229.055 163.476 228.526 163.793L220.381 168.447C219.852 168.765 219.535 169.611 219.746 170.246C219.958 170.88 220.593 171.198 221.121 170.88Z" fill="white"/>
<path d="M231.805 170.455L237.623 167.071C238.152 166.753 238.469 166.013 238.364 165.272C238.152 164.638 237.517 164.426 236.883 164.743L231.065 168.128C230.536 168.446 230.219 169.186 230.43 169.927C230.642 170.561 231.276 170.773 231.805 170.455Z" fill="white"/>
<path d="M197.744 184.419L201.446 182.198C202.081 181.88 202.398 181.034 202.187 180.399C201.975 179.765 201.34 179.553 200.812 179.87L197.004 181.986C196.475 182.303 196.157 183.15 196.369 183.784C196.475 184.419 197.109 184.736 197.744 184.419Z" fill="white"/>
<path d="M212.024 152.898L222.391 146.975C222.92 146.658 223.237 145.811 223.025 145.177C222.814 144.542 222.285 144.33 221.65 144.648L211.39 150.571C210.755 150.889 210.438 151.735 210.649 152.37C210.861 153.004 211.495 153.322 212.024 152.898Z" fill="white"/>
<path d="M210.861 147.821L228.843 137.454C229.372 137.137 229.689 136.397 229.478 135.762C229.266 135.021 228.632 134.81 228.103 135.127L210.12 145.493C209.592 145.811 209.274 146.657 209.486 147.292C209.592 147.926 210.226 148.244 210.861 147.821Z" fill="#E8975B"/>
<path d="M221.438 153.321L231.699 147.397C232.334 146.974 232.651 146.234 232.439 145.599C232.228 144.964 231.593 144.647 231.064 144.964L220.698 150.994C220.169 151.311 219.852 152.051 220.063 152.686C220.275 153.427 220.909 153.638 221.438 153.321Z" fill="#E8975B"/>
<path d="M204.197 157.444L208.005 155.329C208.534 154.906 208.851 154.165 208.64 153.531C208.428 152.896 207.899 152.579 207.264 152.896L203.562 155.117C202.927 155.435 202.61 156.175 202.822 156.916C203.033 157.55 203.668 157.762 204.197 157.444Z" fill="#E8975B"/>
<path d="M166.117 156.284L188.33 143.485C188.859 143.167 189.176 142.427 188.965 141.686C188.859 141.052 188.224 140.84 187.59 141.158L165.482 153.957C164.847 154.274 164.53 155.12 164.741 155.755C164.953 156.39 165.588 156.601 166.117 156.284Z" fill="#E8975B"/>
<path d="M222.285 164.428L234.661 157.235C235.295 156.917 235.613 156.071 235.401 155.436C235.19 154.802 234.555 154.484 234.026 154.908L221.544 161.995C221.015 162.312 220.698 163.158 220.91 163.793C221.121 164.428 221.756 164.745 222.285 164.428Z" fill="#F8359E"/>
<path d="M220.381 124.97L229.584 119.681C230.113 119.364 230.43 118.623 230.218 117.988C230.007 117.248 229.372 117.036 228.843 117.354L219.746 122.643C219.112 122.96 218.794 123.7 219.006 124.441C219.217 125.076 219.852 125.287 220.381 124.97Z" fill="#F8359E"/>
<path d="M233.709 175.11L244.287 169.081C244.815 168.763 245.133 167.917 244.921 167.283C244.71 166.648 244.075 166.331 243.546 166.648L232.968 172.783C232.439 173.1 232.122 173.947 232.334 174.581C232.545 175.216 233.18 175.428 233.709 175.11Z" fill="#E8975B"/>
<path d="M163.684 144.859L168.126 142.32C168.549 142.109 168.867 141.474 168.655 141.051C168.549 140.522 168.126 140.31 167.703 140.628L163.155 143.166C162.732 143.484 162.52 144.013 162.626 144.436C162.837 144.965 163.26 145.176 163.684 144.859Z" fill="white"/>
<path d="M155.01 149.828L159.558 147.289C159.981 147.077 160.193 146.443 160.087 146.019C159.876 145.491 159.452 145.279 159.029 145.596L154.481 148.135C154.163 148.452 153.846 148.981 154.058 149.404C154.163 149.933 154.587 150.145 155.01 149.828Z" fill="white"/>
<path d="M146.442 154.908L150.99 152.263C151.413 152.052 151.625 151.417 151.413 150.994C151.307 150.465 150.884 150.254 150.461 150.571L145.913 153.11C145.489 153.427 145.278 153.956 145.384 154.485C145.595 154.908 146.018 155.119 146.442 154.908Z" fill="white"/>
<path d="M142.211 157.338L142.316 157.232C142.74 157.021 142.951 156.386 142.845 155.963C142.74 155.434 142.211 155.222 141.788 155.54H141.682C141.259 155.857 141.047 156.386 141.153 156.915C141.364 157.338 141.788 157.55 142.211 157.338Z" fill="#F8359E"/>
<path d="M375.24 210.125C378.096 210.125 380.952 209.384 383.491 207.903L413.744 190.45C415.119 189.709 415.859 188.334 415.859 186.853C415.859 185.372 415.119 183.997 413.744 183.257L383.491 165.803C378.414 162.842 372.067 162.842 366.99 165.803L336.737 183.257C335.468 183.997 334.622 185.372 334.622 186.853C334.622 188.334 335.468 189.709 336.737 190.45L366.99 207.903C369.528 209.384 372.384 210.125 375.24 210.125ZM382.539 206.211C377.991 208.855 372.49 208.855 367.942 206.211L337.689 188.757C337.054 188.334 336.631 187.7 336.631 186.853C336.631 186.007 337.054 185.372 337.689 184.949L367.942 167.496C372.49 164.851 377.991 164.851 382.539 167.496L412.792 184.949C413.426 185.372 413.85 186.007 413.85 186.853C413.85 187.7 413.426 188.334 412.792 188.757L382.539 206.211Z" fill="url(#paint10_linear_2001_71136)"/>
<path opacity="0.6" d="M360.749 195.737C368.788 200.391 382.01 200.391 390.049 195.737C398.194 191.083 398.194 183.466 390.049 178.812C382.01 174.052 368.788 174.052 360.749 178.812C352.604 183.466 352.604 191.083 360.749 195.737Z" fill="#020230"/>
<path d="M344.565 101.807H403.801L398.3 165.803C398.3 169.399 395.867 172.995 391.213 175.64C381.799 181.14 366.567 181.14 357.152 175.64C352.498 172.995 350.065 169.399 350.065 165.803L344.565 101.807Z" fill="url(#paint11_radial_2001_71136)"/>
<path opacity="0.4" d="M344.565 101.807H403.801L402.849 112.279C401.473 114.077 399.675 115.664 397.348 117.25C386.03 124.761 367.413 126.136 354.719 120.741L356.623 167.601C356.729 169.716 357.47 171.726 358.739 173.207C360.643 175.534 364.345 178.179 371.432 179.66C366.249 179.342 361.172 177.967 357.152 175.64C352.498 172.995 350.065 169.399 350.065 165.803L345.728 114.5L344.565 101.807Z" fill="#06033E"/>
<path opacity="0.4" d="M353.239 113.868C364.768 120.532 383.597 120.532 395.127 113.868C406.657 107.204 406.657 96.4143 395.127 89.6445C383.597 82.9805 364.768 82.9805 353.239 89.6445C341.709 96.4143 341.709 107.204 353.239 113.868Z" fill="#06033E"/>
<path opacity="0.4" d="M356.2 106.144C366.143 111.856 382.222 111.856 392.165 106.144C402.108 100.432 402.108 91.1233 392.165 85.3055C382.222 79.5935 366.143 79.5935 356.2 85.3055C346.257 91.1233 346.257 100.432 356.2 106.144Z" fill="#06033E"/>
<path d="M342.872 100.961C342.872 100.89 342.872 100.855 342.872 100.855L343.401 95.1429C343.718 90.8059 346.68 86.469 352.392 83.1899C364.451 76.3143 383.914 76.3143 395.973 83.1899C401.791 86.5748 404.858 91.0175 404.964 95.4602L405.493 100.538C405.493 100.679 405.493 100.82 405.493 100.961V101.066C405.81 105.932 402.848 110.798 396.396 114.606C384.126 121.587 364.239 121.587 351.969 114.606C345.517 110.798 342.449 105.826 342.872 100.961Z" fill="url(#paint12_linear_2001_71136)"/>
<path d="M356.2 106.144C366.143 111.856 382.222 111.856 392.165 106.144C402.108 100.432 402.108 91.1233 392.165 85.3055C382.222 79.5935 366.143 79.5935 356.2 85.3055C346.257 91.1233 346.257 100.432 356.2 106.144Z" fill="url(#paint13_linear_2001_71136)"/>
<path d="M357.364 106.144C367.307 111.856 383.491 111.856 393.434 106.144C403.377 100.432 403.377 91.1233 393.434 85.3055C383.491 79.5935 367.307 79.5935 357.364 85.3055C347.42 91.1233 347.42 100.432 357.364 106.144Z" fill="url(#paint14_linear_2001_71136)"/>
<path opacity="0.4" d="M389.203 87.5269C379.26 81.8148 363.076 81.8148 353.133 87.5269C352.992 87.5974 352.886 87.6679 352.815 87.7384C353.732 86.8922 354.86 86.0812 356.2 85.3055C366.143 79.5935 382.222 79.5935 392.165 85.3055C402.002 91.0175 402.108 100.114 392.588 105.932C398.935 100.22 397.877 92.4984 389.203 87.5269Z" fill="#06033E"/>
<path d="M392.165 87.8442C382.221 82.1322 366.143 82.1322 356.2 87.8442C351.757 90.4886 349.324 93.662 348.795 97.0469C348.161 92.8158 350.594 88.5846 356.2 85.3055C366.143 79.5935 382.221 79.5935 392.165 85.3055C397.771 88.5846 400.204 92.8158 399.569 97.0469C399.04 93.662 396.607 90.4886 392.165 87.8442Z" fill="url(#paint15_linear_2001_71136)"/>
<path d="M352.287 83.2944C364.24 76.3131 383.809 76.1015 395.867 82.9771C408.032 89.8527 408.138 101.065 396.079 108.152C384.126 115.24 364.557 115.345 352.498 108.575C340.334 101.7 340.228 90.3816 352.287 83.2944ZM356.2 106.143C359.479 108.047 363.499 109.316 367.73 109.951L368.259 108.47C368.365 107.835 369 107.412 369.634 107.412H378.731C379.366 107.412 380 107.835 380.106 108.47L380.635 109.951C384.866 109.316 388.886 108.047 392.165 106.143C402.108 100.431 402.108 91.122 392.165 85.3042C382.222 79.5922 366.144 79.5922 356.2 85.3042C346.257 91.122 346.257 100.431 356.2 106.143Z" fill="url(#paint16_radial_2001_71136)"/>
<path d="M356.2 84.245C366.143 78.5329 382.222 78.5329 392.165 84.245C397.454 87.3125 399.887 91.2263 399.675 95.2459C399.464 91.6494 396.925 88.053 392.165 85.3027C382.222 79.5907 366.143 79.5907 356.2 85.3027C351.44 88.053 348.901 91.6494 348.69 95.2459C348.478 91.2263 350.911 87.3125 356.2 84.245Z" fill="white"/>
<path d="M352.498 107.413C364.557 114.289 384.126 114.183 396.079 107.096C401.791 103.711 404.752 99.374 405.07 95.0371C405.281 99.7971 402.32 104.557 396.079 108.154C384.126 115.241 364.557 115.347 352.498 108.577C346.151 104.98 343.084 100.114 343.295 95.3544C343.507 99.7971 346.574 104.134 352.498 107.413Z" fill="white"/>
<path d="M371.432 110.797H376.933C377.356 110.797 377.567 110.48 377.567 110.057V109.951C377.567 109.634 377.356 109.316 376.933 109.316H371.432C371.115 109.316 370.798 109.634 370.798 109.951V110.057C370.798 110.48 371.115 110.797 371.432 110.797Z" fill="#0C0A78"/>
<path d="M371.432 109.316H376.933C377.356 109.316 377.567 109.634 377.567 109.951V110.057C377.567 110.127 377.567 110.198 377.567 110.268C377.462 109.951 377.25 109.74 376.933 109.74H371.432C371.115 109.74 370.903 109.951 370.798 110.268C370.798 110.198 370.798 110.127 370.798 110.057V109.951C370.798 109.634 371.115 109.316 371.432 109.316Z" fill="url(#paint17_linear_2001_71136)"/>
<path d="M373.336 159.245C373.971 161.784 376.615 163.265 379.154 162.63C381.693 161.89 383.174 159.351 382.539 156.813C381.799 154.274 379.471 153.639 376.933 154.274C374.394 154.909 372.702 156.707 373.336 159.245Z" fill="#E8975B"/>
<path d="M369.634 154.272C370.586 155.224 371.749 155.119 372.596 154.272C373.442 153.426 373.548 152.263 372.596 151.311C371.644 150.359 369.74 149.935 368.999 150.676C368.153 151.522 368.682 153.32 369.634 154.272Z" fill="#E8975B"/>
<path d="M374.606 150.355C374.817 151.625 375.875 152.259 377.039 152.048C378.096 151.836 378.943 150.884 378.731 149.615C378.414 148.24 377.25 146.865 376.087 147.076C375.029 147.288 374.288 148.98 374.606 150.355Z" fill="#E8975B"/>
<path d="M380.635 149.725C380.212 150.995 380.741 152.052 381.799 152.476C382.856 152.899 384.02 152.581 384.549 151.312C385.078 150.043 384.76 148.244 383.703 147.821C382.645 147.398 381.164 148.456 380.635 149.725Z" fill="#E8975B"/>
<path opacity="0.5" d="M372.278 110.056C372.278 110.056 355.671 104.45 362.441 85.5158C369.105 66.4757 382.116 60.6579 376.933 45.4258C376.933 45.4258 385.078 57.8019 377.462 74.4091C369.74 91.1221 368.047 89.218 368.153 97.1514C368.259 106.566 375.875 110.056 375.875 110.056H372.278Z" fill="white"/>
<path opacity="0.5" d="M370.798 48.0708C370.798 48.0708 372.49 36.7525 361.806 25.2227C361.806 25.2227 371.221 46.3783 368.153 56.7446C368.153 56.7446 370.692 50.0806 370.798 48.0708Z" fill="white"/>
<defs>
<linearGradient id="paint0_linear_2001_71136" x1="58.6891" y1="300.064" x2="24.1937" y2="300.064" gradientUnits="userSpaceOnUse">
<stop stop-color="#E39A65"/>
<stop offset="1" stop-color="#E95F8D"/>
</linearGradient>
<linearGradient id="paint1_linear_2001_71136" x1="105.92" y1="246.186" x2="47.9769" y2="246.186" gradientUnits="userSpaceOnUse">
<stop stop-color="#E39A65"/>
<stop offset="1" stop-color="#E95F8D"/>
</linearGradient>
<linearGradient id="paint2_linear_2001_71136" x1="488.016" y1="265.599" x2="430.073" y2="265.599" gradientUnits="userSpaceOnUse">
<stop stop-color="#E39A65"/>
<stop offset="1" stop-color="#E95F8D"/>
</linearGradient>
<linearGradient id="paint3_linear_2001_71136" x1="420.557" y1="188.427" x2="111.305" y2="188.427" gradientUnits="userSpaceOnUse">
<stop stop-color="#E39A65"/>
<stop offset="1" stop-color="#E95F8D"/>
</linearGradient>
<radialGradient id="paint4_radial_2001_71136" cx="0" cy="0" r="1" gradientUnits="userSpaceOnUse" gradientTransform="translate(249.738 49.6651) rotate(180) scale(236.199 236.199)">
<stop stop-color="#E39A65"/>
<stop offset="0.474" stop-color="#A92FFB"/>
<stop offset="0.742" stop-color="#6507FA"/>
<stop offset="0.802" stop-color="#0D0C6F"/>
</radialGradient>
<radialGradient id="paint5_radial_2001_71136" cx="0" cy="0" r="1" gradientUnits="userSpaceOnUse" gradientTransform="translate(394.203 239.349) rotate(180) scale(258.281 258.281)">
<stop stop-color="#E39A65"/>
<stop offset="0.474" stop-color="#A92FFB"/>
<stop offset="0.683" stop-color="#6507FA"/>
<stop offset="0.738" stop-color="#0D0C6F"/>
</radialGradient>
<radialGradient id="paint6_radial_2001_71136" cx="0" cy="0" r="1" gradientUnits="userSpaceOnUse" gradientTransform="translate(370.447 187.509) rotate(180) scale(231.611 231.611)">
<stop stop-color="#E39A65"/>
<stop offset="0.474" stop-color="#A92FFB"/>
<stop offset="0.726" stop-color="#6507FA"/>
<stop offset="1" stop-color="#3919BB"/>
</radialGradient>
<radialGradient id="paint7_radial_2001_71136" cx="0" cy="0" r="1" gradientUnits="userSpaceOnUse" gradientTransform="translate(312.748 98.9362) rotate(180) scale(236.245 236.245)">
<stop stop-color="#E39A65"/>
<stop offset="0.474" stop-color="#A92FFB"/>
<stop offset="0.726" stop-color="#6507FA"/>
<stop offset="1" stop-color="#3919BB"/>
</radialGradient>
<linearGradient id="paint8_linear_2001_71136" x1="286.782" y1="59.5331" x2="97.4746" y2="59.5331" gradientUnits="userSpaceOnUse">
<stop stop-color="#3919BB"/>
<stop offset="1" stop-color="#6507FA"/>
</linearGradient>
<radialGradient id="paint9_radial_2001_71136" cx="0" cy="0" r="1" gradientUnits="userSpaceOnUse" gradientTransform="translate(398.99 48.4852) rotate(152.228) scale(367.946 367.946)">
<stop stop-color="#E39A65"/>
<stop offset="0.474" stop-color="#A92FFB"/>
<stop offset="0.726" stop-color="#6507FA"/>
<stop offset="1" stop-color="#3919BB"/>
</radialGradient>
<linearGradient id="paint10_linear_2001_71136" x1="415.849" y1="163.55" x2="334.637" y2="163.55" gradientUnits="userSpaceOnUse">
<stop stop-color="#E39A65"/>
<stop offset="1" stop-color="#E95F8D"/>
</linearGradient>
<radialGradient id="paint11_radial_2001_71136" cx="0" cy="0" r="1" gradientUnits="userSpaceOnUse" gradientTransform="translate(408.649 120.6) rotate(180) scale(174.9 174.9)">
<stop stop-color="#E39A65"/>
<stop offset="0.153" stop-color="#A92FFB"/>
<stop offset="0.409" stop-color="#3919BB"/>
<stop offset="0.931" stop-color="#3919BB"/>
</radialGradient>
<linearGradient id="paint12_linear_2001_71136" x1="405.553" y1="78.0025" x2="342.817" y2="78.0025" gradientUnits="userSpaceOnUse">
<stop stop-color="#E39A65"/>
<stop offset="0.252" stop-color="#A92FFB"/>
<stop offset="0.556" stop-color="#3919BB"/>
</linearGradient>
<linearGradient id="paint13_linear_2001_71136" x1="399.666" y1="81.0363" x2="348.708" y2="81.0363" gradientUnits="userSpaceOnUse">
<stop stop-color="#4F1FEC"/>
<stop offset="1" stop-color="#A92FFB"/>
</linearGradient>
<linearGradient id="paint14_linear_2001_71136" x1="400.875" y1="81.0363" x2="349.917" y2="81.0363" gradientUnits="userSpaceOnUse">
<stop stop-color="#4F1FEC"/>
<stop offset="1" stop-color="#A92FFB"/>
</linearGradient>
<linearGradient id="paint15_linear_2001_71136" x1="399.666" y1="81.0363" x2="335.404" y2="81.0363" gradientUnits="userSpaceOnUse">
<stop stop-color="#131060"/>
<stop offset="0.607" stop-color="#740DF8"/>
<stop offset="1" stop-color="#E8975B"/>
</linearGradient>
<radialGradient id="paint16_radial_2001_71136" cx="0" cy="0" r="1" gradientUnits="userSpaceOnUse" gradientTransform="translate(413.38 81.1841) rotate(180) scale(114.405 114.405)">
<stop stop-color="#E39A65"/>
<stop offset="0.252" stop-color="#A92FFB"/>
<stop offset="0.736" stop-color="#3919BB"/>
</radialGradient>
<linearGradient id="paint17_linear_2001_71136" x1="378.22" y1="109.283" x2="369.329" y2="109.283" gradientUnits="userSpaceOnUse">
<stop stop-color="#131060"/>
<stop offset="0.607" stop-color="#740DF8"/>
<stop offset="1" stop-color="#E8975B"/>
</linearGradient>
</defs>
</svg>
