<svg width="487" height="455" viewBox="0 0 487 455" fill="none" xmlns="http://www.w3.org/2000/svg">
<g style="mix-blend-mode:screen">
<path d="M391.056 210.962C390.859 211.014 390.635 210.969 390.464 210.803C390.207 210.555 390.205 210.154 390.459 209.917L392.216 208.114C392.47 207.877 392.866 207.856 393.103 208.109C393.359 208.358 393.361 208.759 393.108 208.996L391.35 210.798C391.272 210.875 391.174 210.93 391.056 210.962ZM394.596 207.371C394.379 207.429 394.155 207.384 393.984 207.218C393.747 206.965 393.745 206.564 393.979 206.332L395.736 204.529C395.99 204.292 396.386 204.271 396.623 204.524C396.879 204.773 396.881 205.174 396.647 205.405L394.87 207.213C394.792 207.29 394.701 207.343 394.596 207.371ZM398.116 203.786C397.918 203.839 397.675 203.799 397.524 203.628C397.267 203.38 397.265 202.979 397.499 202.747L399.276 200.939C399.505 200.688 399.906 200.686 400.162 200.934C400.399 201.188 400.401 201.589 400.167 201.82L398.41 203.623C398.319 203.704 398.221 203.758 398.116 203.786ZM401.636 200.201C401.438 200.254 401.215 200.208 401.044 200.043C400.787 199.795 400.785 199.393 401.039 199.156L402.796 197.354C403.05 197.117 403.426 197.101 403.682 197.349C403.939 197.597 403.941 197.998 403.687 198.235L401.93 200.038C401.839 200.119 401.741 200.173 401.636 200.201ZM405.175 196.611C404.958 196.669 404.73 196.603 404.564 196.458C404.327 196.204 404.305 195.808 404.559 195.571L406.316 193.769C406.564 193.512 406.965 193.511 407.202 193.764C407.459 194.012 407.461 194.413 407.207 194.65L405.45 196.453C405.372 196.53 405.281 196.583 405.175 196.611ZM408.695 193.026C408.478 193.084 408.25 193.018 408.084 192.873C407.847 192.619 407.845 192.218 408.073 191.967L409.836 190.184C410.084 189.927 410.485 189.925 410.742 190.174C410.979 190.427 410.976 190.809 410.747 191.06L408.99 192.862C408.899 192.943 408.801 192.998 408.695 193.026ZM412.215 189.441C412.018 189.494 411.77 189.433 411.623 189.282C411.367 189.034 411.365 188.633 411.613 188.376L413.376 186.594C413.604 186.342 414.005 186.34 414.262 186.589C414.514 186.817 414.515 187.218 414.267 187.475L412.504 189.258C412.417 189.352 412.32 189.413 412.215 189.441ZM415.755 185.85C415.538 185.909 415.309 185.843 415.143 185.697C414.887 185.449 414.885 185.048 415.133 184.791L416.896 183.009C417.144 182.752 417.545 182.75 417.782 183.004C418.033 183.232 418.035 183.633 417.787 183.89L416.024 185.673C415.95 185.763 415.86 185.822 415.755 185.85ZM419.275 182.265C419.058 182.323 418.829 182.258 418.658 182.093C418.426 181.859 418.425 181.458 418.653 181.206L420.416 179.424C420.664 179.167 421.065 179.165 421.322 179.413C421.553 179.647 421.555 180.048 421.327 180.3L419.564 182.082C419.477 182.176 419.38 182.237 419.275 182.265ZM422.795 178.68C422.598 178.733 422.349 178.673 422.198 178.502C421.946 178.274 421.945 177.873 422.193 177.616L423.955 175.833C424.184 175.582 424.585 175.58 424.842 175.828C425.093 176.057 425.095 176.458 424.847 176.715L423.084 178.497C422.997 178.591 422.9 178.652 422.795 178.68ZM426.329 175.07C426.113 175.128 425.889 175.083 425.718 174.917C425.466 174.689 425.465 174.288 425.713 174.031L427.475 172.248C427.724 171.991 428.105 171.995 428.362 172.243C428.613 172.472 428.615 172.873 428.367 173.129L426.604 174.912C426.53 175.003 426.438 175.055 426.329 175.07ZM429.849 171.485C429.633 171.543 429.409 171.498 429.238 171.332C429.006 171.098 429.004 170.697 429.233 170.446L430.995 168.663C431.244 168.406 431.645 168.405 431.876 168.638C432.133 168.887 432.135 169.288 431.907 169.539L430.124 171.327C430.046 171.404 429.955 171.457 429.849 171.485ZM433.369 167.9C433.172 167.953 432.929 167.913 432.778 167.742C432.526 167.513 432.524 167.112 432.753 166.861L434.535 165.073C434.764 164.821 435.165 164.82 435.416 165.048C435.653 165.302 435.675 165.697 435.426 165.954L433.664 167.737C433.573 167.818 433.475 167.872 433.369 167.9ZM435.775 164.022C435.44 164.112 435.09 163.91 435 163.574L434.35 161.149C434.26 160.814 434.463 160.464 434.798 160.374C435.133 160.284 435.483 160.486 435.573 160.821L436.223 163.247C436.313 163.582 436.11 163.932 435.775 164.022ZM434.475 159.171C434.14 159.261 433.79 159.059 433.7 158.723L433.051 156.298C432.961 155.963 433.163 155.613 433.498 155.523C433.833 155.433 434.183 155.635 434.273 155.97L434.923 158.396C435.013 158.731 434.811 159.081 434.475 159.171ZM433.17 154.3C432.835 154.39 432.485 154.188 432.395 153.853L431.745 151.427C431.656 151.092 431.858 150.742 432.193 150.652C432.528 150.562 432.878 150.765 432.968 151.1L433.618 153.525C433.708 153.86 433.506 154.211 433.17 154.3ZM431.871 149.449C431.535 149.539 431.185 149.337 431.096 149.002L430.446 146.576C430.356 146.241 430.558 145.891 430.893 145.801C431.228 145.712 431.578 145.914 431.668 146.249L432.318 148.674C432.408 149.01 432.206 149.36 431.871 149.449ZM430.566 144.579C430.23 144.669 429.886 144.486 429.796 144.151L429.141 141.706C429.051 141.371 429.258 141.04 429.593 140.95C429.929 140.861 430.273 141.043 430.363 141.378L431.018 143.823C431.108 144.159 430.901 144.489 430.566 144.579ZM429.266 139.728C428.93 139.818 428.58 139.616 428.491 139.28L427.841 136.855C427.751 136.52 427.953 136.17 428.288 136.08C428.623 135.99 428.973 136.192 429.063 136.527L429.713 138.953C429.803 139.288 429.601 139.638 429.266 139.728ZM427.966 134.877C427.631 134.967 427.281 134.765 427.191 134.429L426.541 132.004C426.451 131.669 426.653 131.319 426.988 131.229C427.324 131.139 427.674 131.341 427.764 131.676L428.413 134.102C428.503 134.437 428.301 134.787 427.966 134.877ZM426.661 130.006C426.326 130.096 425.976 129.894 425.886 129.559L425.236 127.133C425.146 126.798 425.348 126.448 425.683 126.358C426.019 126.268 426.369 126.471 426.458 126.806L427.108 129.231C427.198 129.566 426.996 129.917 426.661 130.006ZM425.361 125.155C425.026 125.245 424.676 125.043 424.586 124.708L424.475 124.294L423.157 123.95C422.814 123.851 422.615 123.503 422.718 123.179C422.797 122.841 423.145 122.642 423.483 122.721L425.15 123.183C425.373 123.229 425.55 123.414 425.608 123.631L425.809 124.38C425.898 124.716 425.696 125.066 425.361 125.155ZM421.056 123.287C420.951 123.315 420.845 123.315 420.739 123.287L418.302 122.63C417.958 122.532 417.759 122.183 417.863 121.86C417.941 121.522 418.289 121.323 418.633 121.421L421.065 122.058C421.389 122.162 421.588 122.51 421.509 122.848C421.438 123.057 421.273 123.229 421.056 123.287ZM416.201 121.967C416.096 121.995 415.99 121.995 415.884 121.967L413.446 121.31C413.108 121.232 412.909 120.883 413.007 120.54C413.086 120.202 413.434 120.003 413.777 120.101L416.195 120.764C416.533 120.842 416.732 121.19 416.654 121.528C416.588 121.757 416.418 121.909 416.201 121.967ZM411.345 120.647C411.24 120.675 411.128 120.677 411.009 120.653L408.591 119.99C408.253 119.912 408.054 119.564 408.152 119.22C408.23 118.882 408.579 118.683 408.922 118.781L411.34 119.444C411.678 119.522 411.877 119.871 411.798 120.209C411.733 120.438 411.562 120.589 411.345 120.647ZM406.495 119.347C406.39 119.375 406.276 119.371 406.153 119.333L403.741 118.69C403.397 118.592 403.198 118.244 403.297 117.901C403.38 117.582 403.729 117.383 404.067 117.462L406.485 118.124C406.828 118.222 407.027 118.571 406.923 118.894C406.878 119.118 406.692 119.294 406.495 119.347ZM401.64 118.027C401.535 118.056 401.422 118.057 401.303 118.033L398.885 117.371C398.542 117.272 398.343 116.924 398.447 116.6C398.525 116.262 398.873 116.063 399.211 116.142L401.629 116.804C401.972 116.903 402.172 117.251 402.068 117.575C402.022 117.798 401.837 117.975 401.64 118.027ZM396.784 116.708C396.679 116.736 396.567 116.738 396.448 116.713L394.03 116.051C393.687 115.953 393.493 115.624 393.591 115.281C393.67 114.943 394.018 114.744 394.361 114.842L396.779 115.504C397.117 115.583 397.316 115.931 397.218 116.274C397.172 116.498 396.982 116.655 396.784 116.708ZM391.929 115.388C391.824 115.416 391.712 115.418 391.592 115.394L389.175 114.731C388.837 114.653 388.638 114.304 388.716 113.966C388.814 113.623 389.163 113.424 389.506 113.522L391.924 114.185C392.262 114.263 392.461 114.611 392.363 114.955C392.317 115.178 392.126 115.335 391.929 115.388ZM387.074 114.068C386.972 114.11 386.86 114.111 386.737 114.074L384.319 113.411C383.981 113.333 383.782 112.985 383.861 112.647C383.964 112.323 384.312 112.124 384.651 112.202L387.068 112.865C387.412 112.963 387.605 113.292 387.507 113.635C387.461 113.859 387.271 114.015 387.074 114.068ZM382.224 112.768C382.118 112.796 382.006 112.798 381.887 112.774L379.469 112.111C379.126 112.013 378.927 111.665 379.011 111.346C379.109 111.003 379.457 110.804 379.795 110.883L382.213 111.545C382.556 111.643 382.755 111.992 382.652 112.315C382.606 112.539 382.421 112.715 382.224 112.768ZM377.368 111.448C377.25 111.48 377.138 111.482 377.032 111.454L374.614 110.792C374.27 110.693 374.072 110.345 374.155 110.027C374.254 109.683 374.602 109.484 374.925 109.588L377.358 110.225C377.701 110.324 377.9 110.672 377.802 111.015C377.731 111.224 377.565 111.396 377.368 111.448ZM372.513 110.129C372.395 110.16 372.282 110.162 372.176 110.134L369.758 109.472C369.42 109.393 369.221 109.045 369.3 108.707C369.398 108.364 369.746 108.165 370.07 108.268L372.508 108.925C372.846 109.004 373.045 109.352 372.946 109.696C372.881 109.924 372.71 110.076 372.513 110.129ZM367.638 108.814C367.533 108.842 367.427 108.843 367.321 108.815L364.883 108.157C364.565 108.074 364.366 107.725 364.445 107.387C364.543 107.044 364.896 106.865 365.215 106.948L367.652 107.606C367.99 107.684 368.189 108.032 368.091 108.376C368.026 108.605 367.855 108.756 367.638 108.814ZM362.788 107.514C362.683 107.542 362.575 107.536 362.466 107.495L360.033 106.857C359.71 106.754 359.511 106.406 359.589 106.068C359.693 105.744 360.041 105.545 360.359 105.629L362.797 106.286C363.14 106.384 363.339 106.732 363.236 107.056C363.17 107.285 363.005 107.456 362.788 107.514ZM357.932 106.194C357.827 106.223 357.722 106.223 357.615 106.195L355.178 105.538C354.854 105.434 354.655 105.086 354.739 104.768C354.837 104.424 355.186 104.225 355.504 104.309L357.941 104.966C358.265 105.07 358.464 105.418 358.386 105.756C358.315 105.965 358.149 106.136 357.932 106.194ZM353.077 104.875C352.972 104.903 352.866 104.903 352.76 104.875L350.323 104.218C350.004 104.134 349.805 103.786 349.884 103.448C349.982 103.104 350.33 102.905 350.654 103.009L353.091 103.666C353.41 103.75 353.609 104.098 353.53 104.436C353.465 104.665 353.294 104.817 353.077 104.875ZM348.222 103.555C348.117 103.583 348.011 103.583 347.905 103.555L345.467 102.898C345.129 102.82 344.93 102.471 345.028 102.128C345.127 101.785 345.475 101.586 345.798 101.689L348.236 102.346C348.554 102.43 348.753 102.778 348.675 103.117C348.609 103.345 348.439 103.497 348.222 103.555ZM343.366 102.235C343.265 102.277 343.159 102.277 343.049 102.236L340.612 101.578C340.274 101.5 340.075 101.152 340.173 100.808C340.251 100.47 340.605 100.291 340.943 100.369L343.381 101.027C343.704 101.13 343.898 101.459 343.819 101.797C343.754 102.026 343.583 102.177 343.366 102.235ZM338.516 100.935C338.411 100.963 338.305 100.964 338.199 100.936L335.762 100.278C335.418 100.18 335.219 99.8319 335.323 99.5083C335.401 99.1702 335.75 98.9712 336.088 99.0497L338.525 99.707C338.849 99.8105 339.048 100.159 338.964 100.477C338.899 100.706 338.733 100.877 338.516 100.935Z" fill="#45108A"/>
</g>
<g style="mix-blend-mode:screen">
<path d="M77.1212 300.892L74.6783 300.215C74.36 300.132 74.161 299.783 74.2395 299.445C74.3377 299.102 74.6913 298.923 75.0293 299.001L77.4524 299.683C77.7708 299.767 77.9698 300.115 77.8913 300.454C77.8258 300.682 77.655 300.834 77.4381 300.892C77.3329 300.92 77.2273 300.92 77.1212 300.892ZM72.2605 299.553L69.8374 298.871C69.4994 298.792 69.3004 298.444 69.3986 298.101C69.4968 297.757 69.845 297.558 70.1687 297.662L72.5918 298.344C72.9298 298.422 73.1288 298.771 73.0306 299.114C72.9849 299.338 72.7944 299.494 72.5972 299.547C72.492 299.575 72.3798 299.577 72.2605 299.553ZM67.4196 298.208L64.9965 297.526C64.6584 297.447 64.4594 297.099 64.5577 296.756C64.6559 296.412 64.9844 296.219 65.3278 296.317L67.7509 296.999C68.0889 297.078 68.2879 297.426 68.1897 297.769C68.1189 297.978 67.9534 298.15 67.7562 298.202C67.6379 298.234 67.5257 298.236 67.4196 298.208ZM62.5787 296.863L60.1358 296.186C59.8122 296.083 59.6185 295.754 59.7167 295.411C59.7952 295.073 60.1435 294.874 60.4868 294.972L62.9047 295.635C63.2283 295.738 63.4273 296.087 63.3488 296.425C63.278 296.634 63.1125 296.805 62.8956 296.863C62.7904 296.891 62.6848 296.891 62.5787 296.863ZM57.7127 295.504L55.2949 294.842C54.9516 294.743 54.7723 294.39 54.8561 294.072C54.9543 293.728 55.3025 293.529 55.6262 293.633L58.0637 294.29C58.3873 294.394 58.5863 294.742 58.4881 295.085C58.4371 295.289 58.2519 295.465 58.0547 295.518C57.9495 295.546 57.8355 295.542 57.7127 295.504ZM53.2569 292.915L52.6017 290.47C52.5119 290.135 52.7193 289.804 53.0545 289.714C53.3898 289.625 53.7345 289.807 53.8244 290.142L54.4795 292.587C54.5694 292.923 54.362 293.253 54.0267 293.343C53.6915 293.433 53.3468 293.25 53.2569 292.915ZM51.9518 288.044L51.3019 285.619C51.2121 285.284 51.4142 284.934 51.7494 284.844C52.0847 284.754 52.4347 284.956 52.5245 285.291L53.1744 287.717C53.2643 288.052 53.0622 288.402 52.7269 288.492C52.3917 288.582 52.0417 288.38 51.9518 288.044ZM50.652 283.193L50.0021 280.768C49.9123 280.433 50.1144 280.083 50.4496 279.993C50.7849 279.903 51.1349 280.105 51.2248 280.44L51.8747 282.866C51.9645 283.201 51.7624 283.551 51.4271 283.641C51.0919 283.731 50.7419 283.529 50.652 283.193ZM49.347 278.323L48.6971 275.897C48.6072 275.562 48.8093 275.212 49.1446 275.122C49.4798 275.032 49.8298 275.235 49.9197 275.57L50.5696 277.995C50.6594 278.33 50.4573 278.68 50.1221 278.77C49.7868 278.86 49.4368 278.658 49.347 278.323ZM48.0472 273.472L47.3973 271.046C47.3074 270.711 47.5095 270.361 47.8448 270.271C48.18 270.182 48.53 270.384 48.6199 270.719L49.2698 273.144C49.3596 273.48 49.1575 273.83 48.8222 273.919C48.487 274.009 48.137 273.807 48.0472 273.472ZM46.7474 268.621L46.0922 266.176C46.0024 265.841 46.2097 265.51 46.545 265.42C46.8802 265.331 47.225 265.513 47.3148 265.848L47.97 268.293C48.0598 268.629 47.8524 268.959 47.5172 269.049C47.1819 269.139 46.8372 268.956 46.7474 268.621ZM45.4423 263.75L44.5916 260.576C44.5335 260.359 44.5937 260.11 44.7644 259.959L45.9768 258.725C46.2303 258.488 46.6313 258.486 46.8684 258.74C47.1198 258.968 47.1216 259.369 46.8734 259.626L45.904 260.583L46.6649 263.423C46.7547 263.758 46.5526 264.108 46.2174 264.198C45.8821 264.288 45.5321 264.086 45.4423 263.75ZM47.7497 257.848C47.5127 257.595 47.5109 257.194 47.7394 256.942L49.527 255.174C49.7753 254.917 50.1764 254.916 50.4134 255.169C50.6648 255.398 50.6666 255.799 50.4184 256.055L48.636 257.843C48.5581 257.921 48.4665 257.973 48.3614 258.001C48.1444 258.06 47.9156 257.994 47.7497 257.848ZM51.2947 254.278C51.0577 254.024 51.0559 253.623 51.3094 253.386L53.072 251.603C53.3203 251.347 53.7214 251.345 53.9584 251.598C54.2151 251.847 54.2169 252.248 53.9634 252.485L52.181 254.273C52.1031 254.35 52.0115 254.403 51.9064 254.431C51.6894 254.489 51.4658 254.443 51.2947 254.278ZM54.8397 250.707C54.6027 250.454 54.6009 250.053 54.8544 249.816L56.617 248.033C56.8653 247.776 57.2663 247.774 57.5034 248.028C57.7601 248.276 57.7619 248.677 57.5084 248.914L55.7457 250.697C55.6547 250.778 55.5565 250.832 55.4514 250.86C55.2542 250.913 55.0108 250.873 54.8397 250.707Z" fill="#45108A"/>
</g>
<g style="mix-blend-mode:screen">
<path d="M339.52 236.608L298.058 225.504L267.674 255.901L309.116 267.009L339.52 236.608ZM337.035 237.273L308.75 265.565L270.178 255.23L298.463 226.939L337.035 237.273Z" fill="#45108A"/>
<path d="M304.817 271.12L263.534 260.053L264.766 258.814L306.049 269.881L304.817 271.12Z" fill="#45108A"/>
<path d="M301.32 274.615L260.037 263.549L261.255 262.335L302.557 273.396L301.32 274.615Z" fill="#45108A"/>
<path d="M278.457 273.024L256.46 267.125L257.672 265.892L279.689 271.786L278.457 273.024Z" fill="#45108A"/>
<path d="M393.034 250.953L351.592 239.844L321.208 270.241L362.65 281.349L393.034 250.953ZM390.524 251.604L362.259 279.89L323.687 269.555L351.978 241.284L390.524 251.604Z" fill="#45108A"/>
<path d="M358.345 285.442L317.062 274.375L318.28 273.161L359.583 284.222L358.345 285.442Z" fill="#45108A"/>
<path d="M354.846 288.958L313.543 277.897L314.775 276.658L356.058 287.724L354.846 288.958Z" fill="#45108A"/>
<path d="M331.989 287.347L309.972 281.453L311.209 280.234L333.226 286.128L331.989 287.347Z" fill="#45108A"/>
<path d="M286.941 289.205L245.479 278.102L215.095 308.499L256.557 319.602L286.941 289.205ZM284.437 289.876L256.146 318.148L217.599 307.828L245.885 279.536L284.437 289.876Z" fill="#45108A"/>
<path d="M252.241 323.714L210.939 312.653L212.171 311.414L253.454 322.48L252.241 323.714Z" fill="#45108A"/>
<path d="M248.722 327.215L207.439 316.149L208.671 314.91L249.954 325.976L248.722 327.215Z" fill="#45108A"/>
<path d="M225.89 325.619L203.868 319.705L205.105 318.486L227.102 324.385L225.89 325.619Z" fill="#45108A"/>
<path d="M340.451 303.549L298.989 292.446L268.6 322.823L310.062 333.926L340.451 303.549ZM337.947 304.22L309.661 332.511L271.09 322.177L299.38 293.905L337.947 304.22Z" fill="#45108A"/>
<path d="M305.754 338.038L264.452 326.977L265.689 325.757L306.972 336.824L305.754 338.038Z" fill="#45108A"/>
<path d="M302.24 341.559L260.957 330.492L262.169 329.259L303.472 340.32L302.24 341.559Z" fill="#45108A"/>
<path d="M279.403 339.943L257.386 334.049L258.604 332.835L280.62 338.729L279.403 339.943Z" fill="#45108A"/>
<path d="M234.079 342.043L192.636 330.934L162.252 361.331L203.694 372.439L234.079 342.043ZM231.594 342.708L203.303 370.98L164.737 360.665L193.022 332.374L231.594 342.708Z" fill="#45108A"/>
<path d="M199.382 376.533L158.099 365.467L159.316 364.253L200.619 375.314L199.382 376.533Z" fill="#45108A"/>
<path d="M195.89 380.048L154.588 368.987L155.82 367.748L197.122 378.809L195.89 380.048Z" fill="#45108A"/>
<path d="M173.035 378.456L151.033 372.537L152.251 371.323L174.268 377.217L173.035 378.456Z" fill="#45108A"/>
<path d="M287.607 356.383L246.165 345.275L215.756 375.657L257.218 386.76L287.607 356.383ZM285.103 357.054L256.817 385.345L218.265 375.005L246.551 346.714L285.103 357.054Z" fill="#45108A"/>
<path d="M252.907 390.871L211.624 379.805L212.842 378.591L254.144 389.652L252.907 390.871Z" fill="#45108A"/>
<path d="M249.408 394.388L208.105 383.326L209.337 382.088L250.62 393.154L249.408 394.388Z" fill="#45108A"/>
<path d="M226.551 392.777L204.534 386.883L205.771 385.664L227.788 391.558L226.551 392.777Z" fill="#45108A"/>
<path d="M312.348 205.337L326.466 209.121C327.058 209.279 327.866 209.062 328.305 208.649C328.718 208.221 328.592 207.748 328 207.589L313.882 203.806C313.31 203.642 312.482 203.864 312.068 204.292C311.635 204.725 311.761 205.198 312.348 205.337ZM325.419 210.183L311.301 206.4C310.709 206.241 309.901 206.458 309.467 206.891C309.054 207.319 309.175 207.772 309.767 207.931L323.885 211.714C324.457 211.878 325.285 211.656 325.699 211.228C326.118 210.82 325.991 210.347 325.419 210.183ZM322.818 212.782L308.701 208.999C308.128 208.835 307.3 209.057 306.886 209.485C306.448 209.898 306.575 210.371 307.167 210.53L321.284 214.313C321.876 214.472 322.684 214.255 323.118 213.822C323.532 213.394 323.41 212.941 322.818 212.782Z" fill="#45108A"/>
<path d="M232.841 414.913L131.93 387.889C125.279 386.099 123.817 380.721 128.653 375.896L302.568 201.957C307.404 197.132 316.757 194.647 323.383 196.422L424.299 223.466C430.945 225.236 432.407 230.614 427.576 235.459L253.655 409.378C248.824 414.223 239.472 416.708 232.841 414.913ZM322.681 197.117C316.577 195.477 307.98 197.781 303.548 202.223L129.608 376.147C125.176 380.589 126.522 385.533 132.626 387.174L233.542 414.218C239.646 415.858 248.249 413.574 252.681 409.132L426.616 235.188C431.067 230.741 429.701 225.802 423.598 224.161L322.681 197.117Z" fill="#45108A"/>
<path d="M409.569 233.86C409.67 234.235 409.236 234.668 408.585 234.842C407.935 235.017 407.323 234.864 407.223 234.489C407.122 234.114 407.55 233.661 408.201 233.487C408.852 233.313 409.469 233.486 409.569 233.86Z" fill="#45108A"/>
<path d="M406.319 228.9C406.253 228.917 406.194 228.933 406.142 228.947L406.327 229.637C406.389 229.607 406.453 229.582 406.518 229.565C411.375 228.285 415.971 229.505 416.746 232.319C416.746 232.319 416.741 232.328 416.732 232.344L417.915 232.027C417.911 232.014 417.91 232.008 417.91 232.008C417.034 228.819 411.84 227.42 406.319 228.9Z" fill="#45108A"/>
<path d="M407.065 231.615C407.006 231.631 406.947 231.647 406.868 231.668L407.053 232.358C407.132 232.337 407.186 232.301 407.245 232.286C409.512 231.678 411.657 232.266 412.025 233.562C412.029 233.575 412.03 233.582 412.03 233.582L413.194 233.27C413.194 233.27 413.199 233.262 413.208 233.245C412.739 231.574 409.984 230.833 407.065 231.615Z" fill="#45108A"/>
<path d="M406.694 230.254C406.628 230.271 406.562 230.289 406.496 230.307L406.681 230.997C406.743 230.966 406.807 230.942 406.873 230.924C410.448 229.988 413.815 230.882 414.365 232.933C414.368 232.946 414.372 232.959 414.375 232.972L415.558 232.655C415.555 232.642 415.553 232.635 415.553 232.635C414.878 230.195 410.913 229.123 406.694 230.254Z" fill="#45108A"/>
<path d="M381.695 227.906L340.959 216.989L342.893 215.055L383.629 225.972L381.695 227.906Z" fill="#45108A"/>
</g>
<g opacity="0.2">
<path opacity="0.09" d="M265.562 153.752L77.2663 341.541C72.5326 346.275 70.7157 352.194 72.2663 357.823C73.9293 363.95 79.3371 368.673 87.1022 370.756L192.978 399.113C193.142 399.174 198.325 400.533 198.519 400.545C205.007 402.124 212.445 401.801 219.213 399.691C224.755 398.207 230.493 394.619 233.838 391.25L421.102 204.499C425.835 199.764 427.633 193.851 426.102 188.217C424.439 182.089 419.031 177.367 411.266 175.284L301.037 145.747C298.739 145.137 295.621 144.62 293.113 144.489C288.985 144.306 284.648 144.686 280.457 145.767C274.407 147.324 269.209 150.091 265.562 153.752Z" fill="black"/>
<path opacity="0.18" d="M265.836 154.078L77.5405 341.866C73.0117 346.419 71.3089 352.054 72.7947 357.362C74.3875 363.149 79.5386 367.623 86.9854 369.622L193.364 398.119C193.707 398.217 198.566 399.473 198.953 399.496C205.553 400.94 213.076 400.382 219.613 398.039C224.602 396.702 230.911 392.327 233.931 389.32L420.137 203.592C424.671 199.059 426.374 193.425 424.883 188.097C423.29 182.31 418.139 177.836 410.692 175.837L301.15 146.497C299.056 145.938 295.524 145.299 293.269 145.163C289.17 144.93 284.876 145.235 280.689 146.251C274.663 147.739 269.455 150.466 265.836 154.078Z" fill="black"/>
<path opacity="0.27" d="M266.123 154.424L77.8274 342.212C73.4733 346.549 71.8845 351.899 73.3108 356.907C74.8782 362.362 79.7726 366.588 86.876 368.489L193.757 397.126C194.259 397.266 198.815 398.413 199.37 398.433C206.107 399.756 213.72 398.984 220.02 396.387C224.457 395.198 231.323 390.062 234.006 387.377L419.18 202.686C423.534 198.349 425.123 192.999 423.691 187.972C422.149 182.531 417.254 178.305 410.131 176.41L301.246 147.232C299.4 146.733 295.436 145.978 293.433 145.838C289.387 145.569 285.087 145.771 280.934 146.757C274.951 148.17 269.702 150.823 266.123 154.424Z" fill="black"/>
<path opacity="0.36" d="M266.393 154.753L78.097 342.541C73.9477 346.696 72.4481 351.748 73.8398 356.468C75.3319 361.564 79.9695 365.541 86.7546 367.359L194.138 396.136C194.819 396.312 199.051 397.356 199.799 397.388C206.648 398.575 214.346 397.569 220.42 394.758C224.285 393.722 231.736 387.773 234.089 385.431L418.21 201.783C422.36 197.628 423.859 192.576 422.473 187.876C421 182.775 416.338 178.783 409.553 176.966L301.329 147.97C299.712 147.537 295.349 146.634 293.584 146.516C289.568 146.197 285.306 146.303 281.162 147.245C275.203 148.588 269.943 151.202 266.393 154.753Z" fill="black"/>
<path opacity="0.45" d="M266.679 155.079L78.3888 342.887C74.4392 346.841 73.0536 351.608 74.3805 356.008C75.8025 360.763 80.1834 364.493 86.6502 366.226L194.536 395.143C195.376 395.362 199.304 396.296 200.241 396.32C207.187 397.397 214.97 396.156 220.831 393.106C224.144 392.219 232.153 385.508 234.169 383.488L417.258 200.878C421.227 196.919 422.613 192.151 421.286 187.751C419.864 182.997 415.463 179.273 408.997 177.539L301.454 148.72C300.061 148.333 295.265 147.314 293.748 147.171C289.79 146.836 285.547 146.853 281.407 147.73C275.491 148.998 270.201 151.578 266.679 155.079Z" fill="black"/>
<path opacity="0.55" d="M266.959 155.426L78.6637 343.215C74.8993 346.992 73.6225 351.455 74.8951 355.574C76.2615 359.963 80.4106 363.459 86.5341 365.094L194.917 394.132C195.942 394.407 199.546 395.237 200.656 395.278C207.733 396.214 215.607 394.759 221.212 391.461C223.992 390.716 232.572 383.218 234.257 381.54L416.294 199.973C420.063 196.215 421.36 191.747 420.068 187.633C418.716 183.219 414.572 179.743 408.424 178.094L301.543 149.457C300.384 149.154 295.164 147.974 293.905 147.847C289.976 147.462 285.751 147.39 281.64 148.217C275.747 149.415 270.441 151.936 266.959 155.426Z" fill="black"/>
<path opacity="0.64" d="M267.241 155.754L78.9503 343.562C75.3803 347.119 74.1979 351.303 75.4307 355.115C76.7321 359.184 80.6193 362.411 86.4244 363.963L195.31 393.141C196.494 393.457 199.794 394.179 201.097 394.232C208.286 395.032 216.245 393.343 221.624 389.831C223.832 389.239 233.003 380.948 234.337 379.619L415.336 199.069C418.926 195.507 420.109 191.323 418.876 187.511C417.579 183.462 413.667 180.22 407.862 178.669L301.638 150.194C300.728 149.952 295.09 148.63 294.088 148.518C290.174 148.109 285.981 147.922 281.879 148.704C276.035 149.847 270.694 152.314 267.241 155.754Z" fill="black"/>
<path opacity="0.73" d="M267.52 156.101L79.2245 343.889C75.8594 347.264 74.766 351.15 75.9643 354.675C77.1904 358.383 80.8458 361.377 86.3076 362.831L195.696 392.148C197.064 392.522 200.015 393.126 201.507 393.17C208.832 393.849 216.876 391.926 222.023 388.18C223.679 387.736 233.406 378.683 234.424 377.671L414.397 198.178C417.756 194.784 418.85 190.898 417.657 187.393C416.431 183.684 412.775 180.69 407.308 179.218L301.726 150.93C301.044 150.753 294.983 149.271 294.244 149.194C290.378 148.729 286.19 148.478 282.117 149.21C276.291 150.263 270.939 152.691 267.52 156.101Z" fill="black"/>
<path opacity="0.82" d="M267.789 156.427L79.4989 344.235C76.3138 347.414 75.3541 351.01 76.4679 354.22C77.6436 357.583 81.0423 360.328 86.191 361.717L196.076 391.156C197.623 391.565 200.251 392.066 201.936 392.122C209.373 392.665 217.488 390.533 222.417 386.528C223.522 386.232 233.82 376.393 234.487 375.728L413.427 197.273C416.607 194.075 417.566 190.478 416.453 187.268C415.277 183.906 411.878 181.16 406.735 179.791L301.834 151.68C301.376 151.549 294.896 149.925 294.39 149.849C290.559 149.354 286.408 149.008 282.344 149.695C276.562 150.674 271.174 153.047 267.789 156.427Z" fill="black"/>
<path opacity="0.91" d="M268.085 156.774L79.809 344.557C76.8091 347.559 75.9385 350.857 77.0177 353.78C78.118 356.782 81.2797 359.275 86.0904 360.585L196.478 390.164C198.184 390.615 200.508 391.007 202.361 391.06C209.935 391.482 218.135 389.116 222.818 384.902C223.39 384.749 234.24 374.128 234.59 373.78L412.478 196.368C415.458 193.371 416.329 190.073 415.25 187.15C414.144 184.128 411.002 181.631 406.177 180.345L301.938 152.416C301.709 152.351 294.806 150.565 294.562 150.525C290.765 149.999 286.647 149.539 282.592 150.181C276.834 151.09 271.436 153.424 268.085 156.774Z" fill="black"/>
<path d="M223.216 383.252L411.512 195.463C417.161 189.807 414.506 183.29 405.607 180.919L294.717 151.201C285.813 148.81 274.012 151.465 268.358 157.101L80.0871 344.904C74.4326 350.541 77.0679 357.063 85.9919 359.448L196.857 389.152C205.781 391.537 217.567 388.908 223.216 383.252Z" fill="black"/>
</g>
<path d="M185.399 368.212L81.7318 340.447C70.0268 337.306 68.5716 326.748 78.4581 316.871L256.893 138.424C266.779 128.547 284.267 123.058 295.972 126.199L399.639 153.964C411.324 157.11 412.799 167.663 402.912 177.54L224.458 355.992C214.571 365.869 197.084 371.358 185.399 368.212Z" fill="url(#paint0_linear_1647_11885)"/>
<path d="M184.981 366.676L81.3142 338.911C76.0958 337.498 72.8929 334.615 71.8562 330.983C71.7717 330.668 69.9051 323.623 69.835 323.282C69.0736 318.942 72.9561 320.417 78.0405 315.335L256.475 136.888C266.362 127.011 283.849 121.522 295.554 124.663L399.221 152.428C404.44 153.841 405.456 148.644 406.493 152.276C406.597 152.586 408.828 160.992 408.893 161.313C409.655 165.653 407.579 170.922 402.495 176.004L224.04 354.456C214.154 364.333 196.666 369.822 184.981 366.676Z" fill="url(#paint1_linear_1647_11885)"/>
<path d="M182.924 358.984L79.252 331.199C67.5523 328.078 66.0971 317.52 75.9835 307.643L254.418 129.197C264.3 119.3 281.792 113.83 293.497 116.971L397.164 144.736C408.849 147.882 410.324 158.435 400.438 168.312L221.983 346.764C212.097 356.641 194.609 362.13 182.924 358.984Z" fill="url(#paint2_linear_1647_11885)"/>
<path style="mix-blend-mode:color-dodge" d="M78.9808 330.194L182.653 357.979C194.333 361.105 211.826 355.636 221.712 345.759L400.167 167.307C405.368 162.109 407.431 156.716 406.506 152.314C408.004 156.88 406.037 162.712 400.436 168.313L221.981 346.764C212.095 356.642 194.608 362.13 182.923 358.984L79.2502 331.2C73.7187 329.723 70.4669 326.579 69.6376 322.616C70.7806 326.093 73.9268 328.843 78.9808 330.194Z" fill="url(#paint3_radial_1647_11885)"/>
<path d="M78.7552 308.528L257.424 129.85C266.093 121.186 281.423 116.402 291.67 119.152L394.79 146.767C405.038 149.517 406.312 158.77 397.663 167.428L218.994 346.107C210.326 354.77 194.995 359.554 184.748 356.805L81.6283 329.189C71.3809 326.44 70.0863 317.191 78.7552 308.528Z" fill="url(#paint4_linear_1647_11885)"/>
<path d="M83.327 309.185L261.095 131.403C268.346 124.155 281.199 120.141 289.76 122.433L390.676 149.477C399.262 151.784 400.343 159.525 393.091 166.773L215.324 344.555C208.052 351.808 195.22 355.817 186.634 353.51L85.7227 326.486C77.1564 324.174 76.0754 316.433 83.327 309.185Z" fill="#1F0D3D"/>
<path d="M289.443 124.249C281.36 122.083 270.036 125.096 264.153 130.984L84.4122 310.71C78.5293 316.598 80.3176 323.114 88.4011 325.281L186.975 351.706C195.058 353.872 206.382 350.859 212.265 344.971L392.006 165.245C397.889 159.357 396.1 152.841 388.012 150.654L289.443 124.249Z" fill="#3D065F"/>
<path d="M200.056 349.618C204.512 348.424 208.409 346.323 211.004 343.704L390.745 163.978C393.112 161.611 394.1 159.148 393.54 157.058C392.97 154.928 390.837 153.28 387.559 152.404L288.986 125.98C285.344 125.011 280.875 125.131 276.379 126.335C271.922 127.529 268.026 129.63 265.411 132.254L85.6898 311.975C83.3229 314.343 82.3344 316.805 82.8944 318.896C83.4651 321.025 85.5777 322.678 88.8755 323.549L187.449 349.974C191.071 350.948 195.56 350.823 200.056 349.618Z" fill="url(#paint5_linear_1647_11885)"/>
<path d="M368.535 208.753L376.804 200.493C377.836 199.455 378.315 197.298 377.877 195.661C377.443 194.044 376.257 193.559 375.224 194.597L366.955 202.857C365.922 203.895 365.444 206.052 365.877 207.669C366.315 209.306 367.502 209.791 368.535 208.753Z" fill="url(#paint6_linear_1647_11885)"/>
<path d="M368.535 208.753L376.804 200.493C377.836 199.455 378.315 197.298 377.877 195.661C377.443 194.044 376.257 193.559 375.224 194.597L366.955 202.857C365.922 203.895 365.444 206.052 365.877 207.669C366.315 209.306 367.502 209.791 368.535 208.753Z" fill="url(#paint7_linear_1647_11885)"/>
<path d="M367.566 208.675C367.743 208.627 367.944 208.51 368.11 208.339L376.394 200.053C377.281 199.182 377.688 197.234 377.308 195.814C377.144 195.203 376.746 194.506 376.194 194.654C376.017 194.702 375.841 194.833 375.655 195.01L367.386 203.27C366.505 204.162 366.077 206.115 366.452 207.515C366.621 208.146 367.014 208.823 367.566 208.675Z" fill="url(#paint8_linear_1647_11885)"/>
<path d="M353.773 223.53L362.037 215.25C363.069 214.213 363.553 212.075 363.115 210.439C362.676 208.802 361.489 208.317 360.457 209.354L352.193 217.634C351.155 218.652 350.676 220.809 351.115 222.446C351.553 224.083 352.74 224.568 353.773 223.53Z" fill="url(#paint9_linear_1647_11885)"/>
<path d="M353.773 223.53L362.037 215.25C363.069 214.213 363.553 212.075 363.115 210.439C362.676 208.802 361.489 208.317 360.457 209.354L352.193 217.634C351.155 218.652 350.676 220.809 351.115 222.446C351.553 224.083 352.74 224.568 353.773 223.53Z" fill="url(#paint10_linear_1647_11885)"/>
<path d="M352.827 223.447C352.985 223.405 353.186 223.287 353.346 223.096L361.635 214.831C362.516 213.939 362.93 212.011 362.549 210.591C362.38 209.96 361.988 209.284 361.435 209.431C361.258 209.479 361.077 209.591 360.891 209.767L352.627 218.048C351.746 218.939 351.313 220.873 351.693 222.292C351.862 222.923 352.255 223.6 352.827 223.447Z" fill="url(#paint11_linear_1647_11885)"/>
<g style="mix-blend-mode:color-dodge">
<path d="M279.918 289.055L400.381 168.115C405.465 163.033 407.541 157.764 406.779 153.424C406.742 153.286 406.308 151.585 405.795 149.672C405.806 149.712 408.157 158.487 408.222 158.807C408.989 163.167 406.908 168.417 401.823 173.499L279.918 289.055Z" fill="#3D065F"/>
</g>
<path style="mix-blend-mode:color-dodge" d="M285.304 270.62C300.233 289.974 335.944 287.422 365.085 264.925C394.211 242.453 405.713 208.557 390.79 189.222C375.866 169.888 340.175 172.435 311.029 194.912C281.908 217.404 270.4 251.281 285.304 270.62Z" fill="url(#paint12_radial_1647_11885)"/>
<path style="mix-blend-mode:color-dodge" d="M172.865 355.529C171.249 368.115 185.32 380.323 204.323 382.776C223.3 385.215 240.009 376.976 241.644 364.385C243.274 351.775 229.183 339.573 210.2 337.114C191.203 334.68 174.495 342.919 172.865 355.529Z" fill="url(#paint13_radial_1647_11885)"/>
<path d="M123.501 349.63L142.056 354.592C141.268 351.654 138.56 348.723 136.033 348.048L126.676 345.546C124.149 344.87 122.714 346.692 123.501 349.63Z" fill="black"/>
<path d="M117.652 304.528C116.804 304.755 115.995 305.205 115.238 305.851C115.199 305.862 115.159 305.873 115.12 305.883C114.706 305.994 114.304 306.229 114.001 306.521C113.685 306.838 113.543 307.257 113.595 307.686C113.628 307.861 113.687 308.028 113.772 308.189C113.742 308.394 113.734 308.6 113.748 308.808C113.111 308.957 112.468 309.003 111.864 308.954C111.348 308.923 110.789 308.967 110.237 309.115C109.448 309.326 108.752 309.724 108.25 310.218L107.115 311.346C106.77 311.713 106.624 312.196 106.746 312.65C106.867 313.103 107.235 313.449 107.712 313.574L116.044 315.801C116.363 315.885 116.724 315.894 117.079 315.799C117.434 315.704 117.723 315.52 117.957 315.289L119.112 314.155C119.676 313.581 119.923 312.923 119.827 312.251C119.728 311.644 119.358 311.13 118.743 310.809C118.71 310.79 118.677 310.77 118.643 310.751C119.111 310.605 119.569 310.419 119.981 310.223C120.189 310.21 120.431 310.166 120.628 310.114C121.036 310.004 121.363 309.832 121.61 309.597C121.941 309.255 122.113 308.87 122.131 308.464C122.523 307.957 123 307.132 122.737 306.23C122.506 305.447 121.783 304.88 120.599 304.563C119.575 304.288 118.599 304.275 117.652 304.528ZM117.916 305.514C118.626 305.324 119.423 305.301 120.333 305.543C122.333 306.064 122.009 307.144 120.993 308.24C121.193 308.356 121.158 308.619 120.89 308.881C120.773 308.997 120.586 309.089 120.369 309.147C120.152 309.205 119.925 309.224 119.732 309.212C119.197 309.504 118.582 309.732 117.97 309.896C117.517 310.017 117.181 310.34 117.274 310.611C117.41 311.039 117.763 311.41 118.283 311.693C118.978 312.078 119.044 312.799 118.391 313.439L117.262 314.587C117.14 314.683 116.973 314.77 116.815 314.813C116.638 314.86 116.449 314.868 116.315 314.841L107.983 312.614C107.685 312.525 107.616 312.269 107.835 312.062L108.965 310.914C109.35 310.536 109.91 310.259 110.501 310.101C110.935 309.984 111.385 309.927 111.796 309.965C112.53 310.022 113.336 309.954 114.105 309.748C114.105 309.748 114.112 309.746 114.125 309.743C114.579 309.621 114.875 309.309 114.807 309.053C114.712 308.698 114.715 308.316 114.862 307.918C114.632 307.768 114.468 307.474 114.722 307.237C114.902 307.041 115.142 306.913 115.379 306.849C115.484 306.821 115.579 306.81 115.665 306.815C116.289 306.225 117.049 305.747 117.916 305.514Z" fill="#A56EF4"/>
<path d="M191.979 326.441C191.927 326.456 191.876 326.476 191.827 326.503C191.203 326.776 190.628 327.078 190.109 327.429C189.879 327.596 189.71 327.832 189.66 328.12C189.625 328.383 189.699 328.659 189.866 328.889L189.998 329.065C189.962 329.088 189.935 329.117 189.915 329.15L188.482 329.323C188.443 329.334 188.397 329.346 188.344 329.36C188.088 329.429 187.878 329.591 187.748 329.816C187.459 330.316 187.274 330.809 187.179 331.321C187.149 331.603 187.223 331.88 187.39 332.109C187.552 332.32 187.822 332.459 188.105 332.489L188.343 332.509L188.142 332.627C187.912 332.794 187.767 333.044 187.718 333.332C187.682 333.595 187.762 333.891 187.943 334.096C188.282 334.491 188.694 334.846 189.189 335.115C189.419 335.264 189.702 335.294 189.938 335.231C189.991 335.217 190.035 335.198 190.071 335.174L191.404 334.627C191.45 334.643 191.495 334.652 191.538 334.654L191.512 334.873C191.462 335.161 191.556 335.432 191.718 335.642C191.905 335.866 192.17 335.986 192.433 336.021C193.072 336.04 193.725 336.034 194.402 335.958C194.459 335.957 194.513 335.95 194.566 335.936C194.802 335.872 195.012 335.71 195.162 335.48L195.635 334.719C195.779 334.68 195.924 334.642 196.068 334.603C196.2 334.568 196.331 334.532 196.463 334.497L197.277 334.934C197.497 335.044 197.76 335.08 197.997 335.016C198.049 335.002 198.1 334.981 198.149 334.954C198.773 334.681 199.348 334.379 199.867 334.029C200.102 333.881 200.266 333.626 200.321 333.358C200.351 333.075 200.277 332.799 200.11 332.569L199.983 332.413C200.016 332.376 200.041 332.341 200.061 332.307L201.494 332.135C201.537 332.137 201.585 332.132 201.637 332.117C201.893 332.049 202.104 331.887 202.228 331.642C202.522 331.162 202.702 330.649 202.797 330.137C202.832 329.874 202.753 329.578 202.591 329.368C202.424 329.138 202.154 328.999 201.877 328.989L201.639 328.968L201.834 328.831C202.064 328.664 202.209 328.414 202.264 328.145C202.294 327.863 202.214 327.567 202.033 327.362C201.694 326.966 201.287 326.632 200.787 326.343C200.562 326.213 200.279 326.183 200.043 326.246C199.99 326.261 199.944 326.273 199.905 326.283L198.577 326.85C198.531 326.835 198.484 326.819 198.438 326.803L198.464 326.585C198.519 326.317 198.42 326.026 198.258 325.816C198.076 325.611 197.806 325.472 197.549 325.456C196.904 325.418 196.251 325.424 195.573 325.5C195.521 325.514 195.468 325.528 195.416 325.542C195.179 325.605 194.964 325.748 194.814 325.978L194.341 326.738C194.197 326.777 194.052 326.816 193.908 326.855C193.776 326.89 193.645 326.925 193.513 326.96L192.704 326.543C192.479 326.413 192.216 326.378 191.979 326.441ZM192.243 327.427L193.428 328.061C193.671 327.968 193.917 327.888 194.167 327.821C194.443 327.747 194.709 327.69 194.966 327.649L195.675 326.508C196.293 326.448 196.896 326.413 197.481 326.468L197.337 327.584C197.572 327.62 197.795 327.666 198.008 327.722C198.212 327.773 198.421 327.843 198.59 327.925L200.302 327.213C200.689 327.447 201.005 327.708 201.251 327.994L199.861 328.958C200.021 329.239 200.1 329.535 200.098 329.846L201.804 329.98C201.738 330.364 201.594 330.748 201.373 331.131L199.535 331.37C199.422 331.527 199.288 331.683 199.132 331.838C198.976 331.992 198.805 332.144 198.619 332.292L199.323 333.181C198.843 333.521 198.303 333.793 197.738 334.05L196.548 333.396C196.305 333.49 196.059 333.57 195.809 333.637C195.546 333.707 195.28 333.764 195.01 333.809L194.301 334.95C193.689 335.029 193.08 335.044 192.5 335.01L192.639 333.873C192.421 333.847 192.199 333.808 191.974 333.756C191.758 333.687 191.562 333.612 191.386 333.533L189.674 334.245C189.291 334.024 188.974 333.763 188.725 333.464L190.115 332.499C189.959 332.231 189.88 331.936 189.878 331.612L188.172 331.477C188.238 331.093 188.382 330.71 188.603 330.326L190.441 330.087C190.547 329.932 190.699 329.786 190.844 329.62C191 329.465 191.171 329.314 191.357 329.166L190.653 328.276C191.138 327.956 191.673 327.665 192.243 327.427ZM195.325 331.907C195.837 331.769 196.318 331.514 196.649 331.171C197.317 330.506 197.121 329.777 196.206 329.515C195.733 329.409 195.189 329.428 194.657 329.571C194.144 329.708 193.658 329.944 193.327 330.286C192.659 330.951 192.86 331.701 193.77 331.943C194.248 332.068 194.792 332.049 195.325 331.907ZM194.061 330.977C194.246 330.801 194.58 330.627 194.915 330.537C195.27 330.442 195.646 330.426 195.915 330.481C195.735 330.677 195.396 330.831 195.061 330.921C194.706 331.016 194.33 331.032 194.061 330.977Z" fill="#A56EF4"/>
<path d="M135.583 314.985C135.405 315.032 135.258 315.114 135.127 315.255L131.762 318.629C131.508 318.867 131.401 319.255 131.491 319.59C131.586 319.945 131.867 320.207 132.211 320.306L134.758 320.976C134.922 321.037 135.11 321.029 135.268 320.987C135.347 320.966 135.417 320.94 135.479 320.909C135.597 321.11 135.807 321.265 136.061 321.345L138.608 322.015C138.767 322.057 138.96 322.069 139.118 322.027C139.197 322.005 139.266 321.973 139.324 321.929C139.467 322.145 139.658 322.305 139.906 322.365L142.458 323.055C142.617 323.097 142.805 323.089 142.963 323.046C143.141 322.999 143.288 322.917 143.424 322.796L151.07 315.125C151.343 314.883 151.431 314.5 151.341 314.165C151.246 313.81 150.984 313.542 150.621 313.449L148.094 312.774C147.91 312.718 147.741 312.72 147.564 312.768C147.406 312.81 147.239 312.897 147.108 313.038L145.189 314.947C145.057 314.771 144.872 314.631 144.643 314.565L142.091 313.875C141.912 313.839 141.744 313.841 141.566 313.889C141.408 313.931 141.242 314.018 141.125 314.134L139.211 316.063C139.074 315.867 138.869 315.732 138.64 315.666L136.093 314.996C135.929 314.935 135.74 314.943 135.583 314.985ZM141.825 314.855L144.372 315.525L138.854 321.041L136.327 320.365L141.825 314.855ZM147.803 313.739L150.355 314.429L142.704 322.08L140.152 321.39L147.803 313.739ZM135.827 315.976L138.354 316.652L134.989 320.026L132.457 319.331L135.827 315.976Z" fill="#A56EF4"/>
<path d="M166.513 318.704C165.428 318.994 164.471 319.525 163.79 320.215C161.135 322.85 164.232 327.388 164.369 327.584C164.583 327.907 164.962 328.059 165.327 328.004C165.451 327.992 167.93 327.623 170.533 326.926C173.235 326.202 175.009 325.409 175.925 324.488C176.729 323.702 177.059 322.725 176.821 321.838C176.583 320.951 175.814 320.29 174.7 319.997C173.785 319.735 172.691 319.753 171.606 320.044C171.294 319.43 170.666 318.901 169.666 318.641C168.731 318.384 167.617 318.408 166.513 318.704ZM166.777 319.689C167.684 319.446 168.624 319.406 169.42 319.615C170.509 319.894 170.997 320.609 170.807 321.399C171.131 321.242 171.471 321.116 171.826 321.021C172.713 320.783 173.653 320.742 174.429 320.957C176.001 321.381 176.359 322.638 175.21 323.791C174.289 324.693 172.266 325.426 170.274 325.959C167.711 326.646 165.187 327.006 165.187 327.006C165.187 327.006 162.42 322.991 164.505 320.911C165.075 320.357 165.909 319.922 166.777 319.689Z" fill="#A56EF4"/>
<path opacity="0.02" d="M211.986 314.485C208.26 315.483 204.716 315.587 201.711 314.786L175.247 307.675L148.768 300.588C145.147 299.614 142.602 297.295 141.783 294.238C140.853 290.768 142.238 286.867 145.589 283.517C148.423 280.687 152.505 278.41 156.804 277.258C160.531 276.259 164.075 276.155 167.079 276.956L193.538 284.048L220.017 291.134C223.638 292.109 226.203 294.423 227.027 297.499C227.952 300.95 226.552 304.875 223.201 308.225C220.387 311.05 216.285 313.333 211.986 314.485Z" fill="black"/>
<path opacity="0.05" d="M146.452 283.835C149.223 281.084 153.217 278.873 157.397 277.753C160.493 276.923 163.486 276.734 166.109 277.215C166.526 277.272 166.998 277.378 167.386 277.486L193.163 284.401L195.347 284.978L218.936 291.296C220.871 291.813 222.825 292.875 223.98 294.108C224.862 295.034 225.529 296.103 225.89 297.295C226.902 300.596 225.624 304.425 222.322 307.72C219.551 310.47 215.582 312.696 211.396 313.796C208.28 314.631 205.288 314.82 202.665 314.339C202.248 314.282 201.776 314.176 201.388 314.069L175.61 307.154L173.426 306.576L149.838 300.258C147.903 299.741 145.968 298.674 144.794 297.446C143.912 296.52 143.25 295.471 142.883 294.259C141.872 290.959 143.155 287.149 146.452 283.835Z" fill="black"/>
<path opacity="0.07" d="M147.34 284.166C150.024 281.482 153.904 279.322 157.972 278.253C160.989 277.445 163.903 277.277 166.456 277.734C166.814 277.807 167.356 277.937 167.694 278.015L192.765 284.739L194.904 285.307L217.856 291.458C219.587 291.924 221.74 293.017 222.813 294.103C223.684 294.99 224.389 295.963 224.774 297.086C225.853 300.242 224.672 303.961 221.424 307.22C218.741 309.904 214.855 312.044 210.792 313.133C207.77 313.922 204.856 314.089 202.303 313.632C201.945 313.559 201.409 313.449 201.065 313.351L175.994 306.627L173.855 306.059L150.903 299.908C149.172 299.442 147.019 298.349 145.952 297.283C145.08 296.396 144.375 295.423 143.985 294.28C142.887 291.129 144.087 287.405 147.34 284.166Z" fill="black"/>
<path opacity="0.1" d="M148.201 284.484C150.816 281.86 154.595 279.791 158.544 278.753C161.482 277.966 164.317 277.819 166.786 278.278C167.119 278.337 167.686 278.481 168.004 278.565L192.389 285.092L194.463 285.657L216.773 291.62C218.32 292.03 220.652 293.159 221.643 294.098C222.499 294.925 223.247 295.824 223.661 296.897C224.82 299.883 223.743 303.511 220.543 306.714C217.928 309.338 214.13 311.413 210.201 312.445C207.262 313.232 204.427 313.379 201.939 312.925C201.626 312.861 201.039 312.723 200.746 312.653L176.356 306.106L174.287 305.561L151.971 299.578C150.424 299.169 148.073 298.044 147.101 297.1C146.226 296.278 145.498 295.374 145.083 294.301C143.924 291.315 145.002 287.687 148.201 284.484Z" fill="black"/>
<path opacity="0.12" d="M149.08 284.821C151.626 282.258 155.317 280.255 159.128 279.255C161.987 278.488 164.743 278.363 167.147 278.818C167.436 278.867 168.047 279.02 168.321 279.095L191.999 285.431L194.029 285.987L215.702 291.782C217.045 292.141 219.59 293.277 220.46 294.079C221.35 294.876 222.097 295.691 222.534 296.694C223.806 299.544 222.805 303.067 219.674 306.21C217.102 308.759 213.437 310.777 209.606 311.782C206.761 312.523 203.985 312.654 201.586 312.219C201.312 312.144 200.706 312.011 200.432 311.936L176.729 305.585L174.705 305.05L153.051 299.249C151.683 298.876 149.138 297.74 148.268 296.938C147.398 296.135 146.637 295.346 146.199 294.343C144.948 291.487 145.923 287.95 149.08 284.821Z" fill="black"/>
<path opacity="0.15" d="M149.942 285.139C152.425 282.656 156.003 280.704 159.715 279.731C162.486 279.03 165.158 278.906 167.498 279.357C167.742 279.397 168.398 279.56 168.627 279.625L191.624 285.785L193.584 286.316L214.601 291.95C215.76 292.252 218.523 293.414 219.291 294.075C220.171 294.832 220.955 295.552 221.417 296.485C222.755 299.191 221.857 302.623 218.774 305.711C216.29 308.194 212.713 310.146 209.02 311.114C206.254 311.834 203.557 311.944 201.237 311.488C200.994 311.447 200.337 311.285 200.089 311.225L177.112 305.06L175.132 304.533L154.115 298.9C152.956 298.598 150.193 297.436 149.424 296.775C148.545 296.017 147.76 295.298 147.299 294.365C145.961 291.659 146.859 288.227 149.942 285.139Z" fill="black"/>
<path opacity="0.17" d="M150.816 285.454C153.237 283.051 156.726 281.165 160.301 280.229C162.973 279.555 165.586 279.447 167.842 279.899C168.041 279.93 168.742 280.102 168.946 280.153L191.236 286.121L193.151 286.644L213.532 292.109C214.506 292.356 217.482 293.524 218.135 294.067C219.004 294.786 219.827 295.411 220.317 296.294C221.736 298.83 220.941 302.171 217.907 305.203C215.491 307.626 212.002 309.512 208.422 310.429C205.755 311.122 203.137 311.211 200.886 310.778C200.682 310.727 199.981 310.556 199.783 310.525L177.487 304.536L175.577 304.034L155.197 298.568C154.217 298.302 151.241 297.134 150.593 296.61C149.719 295.872 148.896 295.247 148.411 294.384C146.992 291.847 147.782 288.486 150.816 285.454Z" fill="black"/>
<path opacity="0.2" d="M151.681 285.793C154.028 283.431 157.41 281.616 160.871 280.731C163.465 280.079 165.999 279.991 168.185 280.42C168.344 280.462 169.09 280.643 169.249 280.684L190.858 286.476L192.704 286.975L212.447 292.273C213.218 292.468 216.427 293.638 216.964 294.064C217.842 294.738 218.683 295.273 219.197 296.087C220.703 298.473 219.99 301.729 217.004 304.706C214.677 307.062 211.295 308.877 207.834 309.762C205.221 310.42 202.687 310.507 200.52 310.073C200.361 310.032 199.615 309.851 199.456 309.809L177.847 304.017L176.001 303.518L156.238 298.225C155.467 298.03 152.278 296.856 151.741 296.429C150.863 295.756 150.022 295.22 149.508 294.407C148.003 292.02 148.696 288.77 151.681 285.793Z" fill="black"/>
<path opacity="0.22" d="M152.556 286.108C154.84 283.826 158.133 282.077 161.457 281.229C163.972 280.597 166.427 280.531 168.529 280.961C168.663 280.989 169.434 281.184 169.548 281.217L190.476 286.832L192.251 287.307L211.378 292.433C211.965 292.571 215.45 293.666 215.803 294.037C216.796 294.51 217.554 295.131 218.072 295.88C219.684 298.111 219.074 301.276 216.137 304.198C213.853 306.479 210.579 308.223 207.236 309.077C204.726 309.728 202.266 309.774 200.164 309.344C200.055 309.331 199.259 309.122 199.145 309.089L178.242 303.488L176.446 303.018L157.32 297.893C156.748 297.729 153.243 296.639 152.91 296.264C151.922 295.81 151.158 295.169 150.621 294.425C149.033 292.209 149.639 289.024 152.556 286.108Z" fill="black"/>
<path opacity="0.25" d="M153.435 286.42C155.637 284.224 158.822 282.546 162.028 281.73C164.464 281.119 166.86 281.069 168.877 281.501C168.967 281.519 169.782 281.723 169.852 281.747L190.073 287.171L191.804 287.637L210.294 292.595C210.677 292.682 214.395 293.778 214.612 294.037C215.629 294.441 216.396 295.017 216.957 295.691C218.651 297.753 218.123 300.832 215.26 303.712C213.039 305.914 209.853 307.592 206.648 308.408C204.212 309.019 201.836 309.064 199.799 308.637C199.729 308.614 198.888 308.395 198.824 308.391L178.603 302.967L176.872 302.501L158.381 297.543C157.999 297.456 154.301 296.354 154.064 296.101C153.047 295.697 152.279 295.12 151.718 294.447C150.025 292.385 150.552 289.306 153.435 286.42Z" fill="black"/>
<path opacity="0.27" d="M154.319 286.757C156.452 284.621 159.524 282.995 162.636 282.224C164.974 281.64 167.291 281.611 169.244 282.039C169.269 282.053 170.154 282.281 170.179 282.296L189.714 287.523L191.375 287.966L209.229 292.756C209.433 292.807 213.338 293.895 213.459 294.032C214.48 294.371 215.271 294.878 215.856 295.482C217.636 297.393 217.211 300.382 214.376 303.212C212.243 305.348 209.165 306.955 206.054 307.725C203.716 308.309 201.399 308.338 199.451 307.93C199.426 307.916 198.541 307.688 198.516 307.673L178.981 302.446L177.315 301.984L159.467 297.213C159.263 297.162 155.352 296.054 155.236 295.937C154.215 295.598 153.424 295.091 152.839 294.487C151.059 292.576 151.484 289.588 154.319 286.757Z" fill="black"/>
<path opacity="0.3" d="M199.095 307.201L177.74 301.489L156.38 295.758C152.077 294.607 151.521 290.719 155.174 287.077C158.807 283.441 165.26 281.416 169.568 282.586L190.923 288.298L212.278 294.01C216.587 295.181 217.122 299.074 213.489 302.71C209.837 306.352 203.403 308.372 199.095 307.201Z" fill="black"/>
<path d="M201.145 305.361L148.207 291.183C142.854 289.743 142.199 284.931 146.713 280.403C151.213 275.9 159.208 273.398 164.556 274.819L217.479 289.022C222.826 290.443 223.507 295.269 218.987 299.777C214.468 304.285 206.472 306.787 201.145 305.361Z" fill="url(#paint14_linear_1647_11885)"/>
<path style="mix-blend-mode:color-dodge" d="M218.66 298.557C214.146 303.085 206.151 305.587 200.818 304.141L147.88 289.963C145.741 289.395 144.36 288.264 143.747 286.843C143.989 288.85 145.477 290.459 148.208 291.186L201.145 305.364C206.473 306.79 214.468 304.288 218.988 299.78C221.686 297.07 222.52 294.268 221.613 292.144C221.833 294.072 220.881 296.356 218.66 298.557Z" fill="url(#paint15_radial_1647_11885)"/>
<path d="M164.265 289.251C164.247 289.185 164.277 289.113 164.355 289.036L171.821 281.562C171.899 281.484 172.002 281.422 172.13 281.373C172.248 281.342 172.369 281.344 172.491 281.382L177.068 282.607C178.295 282.927 179.012 283.369 179.219 283.933C179.44 284.494 179.211 285.112 178.533 285.787C178.133 286.19 177.658 286.493 177.107 286.697C176.556 286.901 176.044 287.017 175.573 287.045C175.868 287.304 176 287.642 175.971 288.058C175.955 288.471 175.736 288.889 175.314 289.312C174.603 290.024 173.696 290.506 172.595 290.759C171.496 291.025 170.354 290.994 169.166 290.664L164.456 289.411C164.349 289.383 164.286 289.329 164.265 289.251ZM170.13 289.37C170.677 289.519 171.214 289.523 171.74 289.382C172.252 289.245 172.682 289.01 173.03 288.677C173.361 288.335 173.479 288.014 173.385 287.715C173.291 287.417 172.979 287.197 172.448 287.058L169.851 286.359L167.533 288.671L170.13 289.37ZM173.467 285.813C174.014 285.962 174.526 285.98 175.003 285.866C175.48 285.752 175.879 285.533 176.2 285.207C176.525 284.894 176.633 284.612 176.523 284.36C176.413 284.107 176.084 283.907 175.537 283.757L173.1 283.1L171.035 285.175L173.467 285.813Z" fill="white"/>
<path d="M177.071 291.926C176.804 291.194 177.21 290.29 178.288 289.212L182.953 284.538C183.044 284.457 183.149 284.401 183.267 284.369C183.386 284.337 183.505 284.334 183.624 284.358L185.081 284.75C185.187 284.778 185.251 284.831 185.272 284.91C185.29 284.976 185.261 285.054 185.187 285.144L180.497 289.804C179.899 290.414 179.649 290.925 179.745 291.336C179.828 291.751 180.232 292.051 180.958 292.237C181.688 292.436 182.399 292.436 183.093 292.236C183.799 292.032 184.453 291.632 185.053 291.034L189.719 286.36C189.81 286.279 189.914 286.223 190.033 286.192C190.164 286.156 190.29 286.151 190.409 286.175L191.847 286.572C191.966 286.596 192.036 286.648 192.057 286.727C192.062 286.796 192.025 286.869 191.947 286.947L187.282 291.621C186.204 292.699 185.009 293.392 183.697 293.701C182.388 294.024 181.028 293.994 179.615 293.612C178.176 293.236 177.328 292.675 177.071 291.926Z" fill="white"/>
<path d="M190.047 296.165C190.029 296.099 190.059 296.028 190.137 295.951L192.718 293.357L193.784 287.555C193.833 287.472 193.861 287.422 193.871 287.405C193.939 287.344 194.033 287.298 194.151 287.267C194.256 287.238 194.353 287.233 194.443 287.252L195.856 287.634C196.055 287.693 196.149 287.809 196.139 287.981L195.449 292.033L201.447 289.412C201.548 289.371 201.658 289.334 201.777 289.302C201.898 289.284 202.019 289.287 202.138 289.311L203.551 289.693C203.657 289.721 203.719 289.768 203.737 289.834C203.754 289.9 203.722 289.965 203.641 290.029C203.599 290.082 203.545 290.118 203.479 290.135L194.947 293.943L192.366 296.537C192.275 296.618 192.17 296.674 192.052 296.706C191.933 296.737 191.813 296.735 191.69 296.697L190.238 296.325C190.132 296.297 190.068 296.244 190.047 296.165Z" fill="white"/>
<path d="M136.923 207.557C136.588 207.647 136.243 207.464 136.148 207.109L135.498 204.684C135.408 204.349 135.61 203.999 135.945 203.909C136.281 203.819 136.631 204.021 136.721 204.356L137.37 206.782C137.466 207.137 137.258 207.467 136.923 207.557ZM135.623 202.706C135.288 202.796 134.938 202.594 134.848 202.258L134.198 199.833C134.108 199.498 134.31 199.148 134.646 199.058C134.981 198.968 135.331 199.17 135.421 199.505L136.071 201.931C136.161 202.266 135.958 202.616 135.623 202.706ZM134.318 197.835C133.983 197.925 133.638 197.743 133.548 197.408L132.893 194.962C132.803 194.627 133.011 194.297 133.346 194.207C133.681 194.117 134.026 194.3 134.116 194.635L134.771 197.08C134.861 197.415 134.653 197.745 134.318 197.835ZM133.018 192.984C132.683 193.074 132.333 192.872 132.243 192.537L131.593 190.111C131.503 189.776 131.706 189.426 132.041 189.336C132.376 189.247 132.726 189.449 132.816 189.784L133.466 192.209C133.556 192.545 133.354 192.895 133.018 192.984ZM131.718 188.133C131.383 188.223 131.033 188.021 130.943 187.686L130.294 185.261C130.204 184.925 130.406 184.575 130.741 184.485C131.076 184.396 131.426 184.598 131.516 184.933L132.166 187.358C132.256 187.694 132.054 188.044 131.718 188.133ZM130.413 183.263C130.078 183.353 129.733 183.17 129.638 182.815L128.988 180.39C128.899 180.055 129.101 179.705 129.436 179.615C129.771 179.525 130.121 179.727 130.211 180.062L130.861 182.488C130.956 182.843 130.749 183.173 130.413 183.263ZM129.114 178.412C128.778 178.502 128.428 178.3 128.339 177.964L127.689 175.539C127.599 175.204 127.801 174.854 128.136 174.764C128.471 174.674 128.821 174.876 128.911 175.211L129.561 177.637C129.651 177.972 129.449 178.322 129.114 178.412ZM127.809 173.541C127.473 173.631 127.129 173.449 127.039 173.114L126.384 170.668C126.294 170.333 126.501 170.003 126.836 169.913C127.172 169.823 127.516 170.006 127.606 170.341L128.261 172.786C128.351 173.121 128.144 173.451 127.809 173.541ZM126.509 168.69C126.173 168.78 125.823 168.578 125.734 168.243L125.084 165.817C124.994 165.482 125.196 165.132 125.531 165.042C125.866 164.953 126.217 165.155 126.306 165.49L126.956 167.915C127.046 168.251 126.844 168.601 126.509 168.69ZM125.209 163.839C124.874 163.929 124.524 163.727 124.434 163.392L123.784 160.967C123.694 160.631 123.896 160.281 124.231 160.191C124.567 160.102 124.917 160.304 125.007 160.639L125.656 163.064C125.746 163.4 125.544 163.75 125.209 163.839ZM123.904 158.969C123.569 159.059 123.224 158.876 123.129 158.521L122.479 156.096C122.389 155.761 122.591 155.411 122.926 155.321C123.262 155.231 123.612 155.433 123.701 155.768L124.351 158.194C124.446 158.549 124.239 158.879 123.904 158.969ZM122.604 154.118C122.269 154.208 121.919 154.006 121.829 153.67L121.179 151.245C121.089 150.91 121.291 150.56 121.627 150.47C121.962 150.38 122.312 150.582 122.402 150.917L123.052 153.343C123.141 153.678 122.939 154.028 122.604 154.118ZM121.299 149.247C120.964 149.337 120.619 149.155 120.529 148.82L119.874 146.374C119.784 146.039 119.992 145.709 120.327 145.619C120.662 145.529 121.007 145.712 121.097 146.047L121.752 148.492C121.842 148.827 121.634 149.157 121.299 149.247ZM119.999 144.396C119.664 144.486 119.314 144.284 119.224 143.949L118.574 141.523C118.484 141.188 118.686 140.838 119.022 140.748C119.357 140.658 119.707 140.861 119.797 141.196L120.447 143.621C120.536 143.957 120.334 144.307 119.999 144.396Z" fill="#7C1DC9"/>
<path d="M277.319 134.915L291.436 138.699C292.009 138.862 292.837 138.641 293.256 138.232C293.689 137.799 293.562 137.326 292.97 137.168L278.853 133.384C278.261 133.226 277.453 133.442 277.039 133.87C276.605 134.303 276.732 134.777 277.319 134.915ZM290.389 139.761L276.252 135.983C275.68 135.819 274.852 136.041 274.438 136.469C274.019 136.877 274.146 137.351 274.718 137.514L288.836 141.298C289.428 141.456 290.236 141.24 290.67 140.806C291.089 140.398 290.962 139.925 290.389 139.761ZM287.789 142.36L273.671 138.577C273.079 138.418 272.271 138.635 271.857 139.063C271.418 139.476 271.545 139.949 272.137 140.108L286.255 143.891C286.847 144.05 287.655 143.833 288.069 143.405C288.502 142.972 288.381 142.519 287.789 142.36Z" fill="#A56EF4"/>
<path opacity="0.02" d="M266.432 298.117L163.989 270.658L307.724 126.3L410.162 153.74L266.432 298.117Z" fill="black"/>
<path opacity="0.05" d="M266.477 296.922L165.471 269.86L307.453 127.24L408.459 154.302L266.477 296.922Z" fill="black"/>
<path opacity="0.07" d="M266.516 295.728L166.948 269.063L307.162 128.206L406.735 154.891L266.516 295.728Z" fill="black"/>
<path opacity="0.1" d="M266.558 294.553L168.417 268.245L306.863 129.151L405.023 155.454L266.558 294.553Z" fill="black"/>
<path opacity="0.12" d="M266.597 293.36L169.894 267.448L306.592 130.112L403.295 156.024L266.597 293.36Z" fill="black"/>
<path opacity="0.15" d="M266.636 292.166L171.371 266.652L306.301 131.078L401.572 156.613L266.636 292.166Z" fill="black"/>
<path opacity="0.17" d="M266.681 290.991L172.823 265.839L306.005 132.024L399.863 157.176L266.681 290.991Z" fill="black"/>
<path opacity="0.2" d="M266.729 289.796L174.309 265.041L305.742 132.983L398.142 157.744L266.729 289.796Z" fill="black"/>
<path opacity="0.22" d="M266.76 288.603L175.778 264.244L305.443 133.949L396.431 158.328L266.76 288.603Z" fill="black"/>
<path opacity="0.25" d="M266.802 287.427L177.247 263.426L305.144 134.894L394.699 158.895L266.802 287.427Z" fill="black"/>
<path opacity="0.27" d="M266.849 286.234L178.732 262.629L304.881 135.855L392.998 159.46L266.849 286.234Z" fill="black"/>
<path opacity="0.3" d="M266.891 285.059L180.201 261.811L304.582 136.8L391.272 160.047L266.891 285.059Z" fill="black"/>
<path d="M263.624 283.188L164.802 256.704L304.115 116.744L402.957 143.223L263.624 283.188Z" fill="url(#paint16_linear_1647_11885)"/>
<path d="M386.633 159.708L287.806 133.203L307.391 113.457L406.233 139.936L386.633 159.708Z" fill="url(#paint17_linear_1647_11885)"/>
<path d="M262.593 267.739L235.045 260.369C232.378 259.646 232.051 257.24 234.295 254.969C236.565 252.712 240.565 251.471 243.226 252.174L270.76 259.57C273.441 260.268 273.774 262.693 271.504 264.95C269.254 267.202 265.26 268.462 262.593 267.739Z" fill="url(#paint18_linear_1647_11885)"/>
<path d="M223.869 247.004L197.888 240.038C194.788 239.198 190.45 240.361 188.18 242.617C185.936 244.889 186.607 247.393 189.726 248.227L215.682 255.179C218.801 256.013 223.139 254.85 225.389 252.599C227.659 250.342 226.963 247.823 223.869 247.004ZM223.197 247.649C225.813 248.343 226.378 250.453 224.499 252.351C222.6 254.255 218.946 255.213 216.35 254.514L190.373 247.567C187.777 246.868 187.192 244.763 189.091 242.86C190.976 240.981 194.643 239.998 197.24 240.697L223.197 247.649Z" fill="url(#paint19_linear_1647_11885)"/>
<path d="M306.759 151.309L287.747 146.216L274.081 159.896L293.074 164.994L306.759 151.309ZM304.427 151.913L292.709 163.633L276.428 159.267L288.126 147.552L304.427 151.913Z" fill="#7C1DC9"/>
<path d="M340.824 165.221L308.4 156.536L309.35 155.584L341.793 164.263L340.824 165.221Z" fill="#7C1DC9"/>
<path d="M289.572 252.629L197.057 227.836L197.354 227.524L289.868 252.317L289.572 252.629Z" fill="#7C1DC9"/>
<path d="M338.075 167.987L305.627 159.287L306.596 158.33L339.02 167.015L338.075 167.987Z" fill="#7C1DC9"/>
<path d="M324.633 167.929L302.821 162.086L303.79 161.129L325.603 166.972L324.633 167.929Z" fill="#7C1DC9"/>
<path d="M281.892 176.17L262.885 171.097L249.214 184.757L268.207 189.855L281.892 176.17ZM279.545 176.799L267.842 188.494L251.561 184.128L263.264 172.433L279.545 176.799Z" fill="#7C1DC9"/>
<path d="M315.945 190.102L283.502 181.422L284.466 180.445L316.915 189.145L315.945 190.102Z" fill="#7C1DC9"/>
<path d="M313.208 192.846L280.765 184.166L281.734 183.209L314.158 191.894L313.208 192.846Z" fill="#7C1DC9"/>
<path d="M299.763 192.812L277.95 186.969L278.92 186.012L300.732 191.855L299.763 192.812Z" fill="#7C1DC9"/>
<path d="M256.939 201.117L237.951 196.039L224.261 209.704L243.273 214.797L256.939 201.117ZM254.592 201.746L242.889 213.441L226.608 209.075L238.311 197.38L254.592 201.746Z" fill="#7C1DC9"/>
<path d="M291.006 215.049L258.582 206.364L259.547 205.387L291.975 214.092L291.006 215.049Z" fill="#7C1DC9"/>
<path d="M288.252 217.795L255.829 209.11L256.778 208.158L289.221 216.838L288.252 217.795Z" fill="#7C1DC9"/>
<path d="M274.807 217.759L253.014 211.91L253.983 210.953L275.776 216.801L274.807 217.759Z" fill="#7C1DC9"/>
<path d="M358.509 174.766C356.275 174.16 355.769 172.351 357.401 170.71C359.037 169.087 362.192 168.242 364.426 168.848C366.679 169.449 367.166 171.263 365.534 172.905C363.898 174.527 360.762 175.367 358.509 174.766ZM364.012 169.276C362.077 168.759 359.371 169.463 357.973 170.873C356.57 172.264 357.007 173.816 358.923 174.339C360.858 174.856 363.559 174.132 364.962 172.741C366.36 171.331 365.922 169.779 364.012 169.276Z" fill="#7C1DC9"/>
<path d="M362.292 172.019L363.298 171.749C363.692 171.644 363.96 171.382 363.902 171.165C363.819 170.934 363.456 170.841 363.061 170.946L362.056 171.216L361.897 170.624C361.839 170.407 361.471 170.295 361.076 170.4C360.682 170.506 360.419 170.788 360.477 171.005L360.636 171.596L359.625 171.846C359.25 171.946 358.987 172.228 359.046 172.445C359.077 172.563 359.183 172.641 359.322 172.688C359.481 172.73 359.669 172.722 359.866 172.669L360.872 172.399L361.031 172.991C361.057 173.09 361.162 173.167 361.302 173.214C361.461 173.256 361.649 173.248 361.846 173.195C362.241 173.089 362.509 172.827 362.45 172.611L362.292 172.019Z" fill="#7C1DC9"/>
<path d="M333.967 199.311C331.734 198.705 331.228 196.896 332.864 195.274C334.496 193.632 337.651 192.786 339.884 193.393C342.138 193.994 342.624 195.808 340.993 197.45C339.356 199.072 336.221 199.912 333.967 199.311ZM339.471 193.821C337.536 193.303 334.834 194.027 333.431 195.418C332.034 196.828 332.471 198.38 334.386 198.903C336.316 199.4 339.023 198.696 340.42 197.286C341.823 195.896 341.386 194.343 339.471 193.821Z" fill="#7C1DC9"/>
<path d="M337.759 196.583L338.765 196.314C339.159 196.208 339.427 195.946 339.364 195.71C339.286 195.498 338.917 195.385 338.523 195.491L337.517 195.761L337.364 195.189C337.301 194.952 336.938 194.859 336.543 194.965C336.149 195.07 335.881 195.332 335.944 195.569L336.098 196.141L335.092 196.41C334.717 196.511 334.449 196.773 334.513 197.009C334.539 197.108 334.65 197.205 334.784 197.233C334.943 197.275 335.131 197.266 335.328 197.214L336.339 196.964L336.492 197.536C336.524 197.654 336.629 197.731 336.769 197.779C336.923 197.801 337.116 197.812 337.313 197.76C337.708 197.654 337.976 197.392 337.912 197.155L337.759 196.583Z" fill="#7C1DC9"/>
<path d="M308.798 224.479C306.544 223.878 306.053 222.044 307.689 220.422C309.321 218.78 312.461 217.96 314.715 218.561C316.943 219.147 317.454 220.976 315.818 222.598C314.186 224.24 311.031 225.085 308.798 224.479ZM314.296 218.969C312.366 218.472 309.659 219.176 308.262 220.586C306.859 221.976 307.296 223.529 309.211 224.051C311.146 224.568 313.848 223.844 315.251 222.454C316.629 221.049 316.211 219.491 314.296 218.969Z" fill="#7C1DC9"/>
<path d="M312.563 221.736L313.569 221.466C313.963 221.361 314.231 221.099 314.167 220.862C314.109 220.645 313.746 220.552 313.352 220.658L312.341 220.908L312.188 220.336C312.13 220.119 311.761 220.006 311.367 220.112C310.972 220.217 310.705 220.479 310.768 220.716L310.921 221.288L309.916 221.557C309.521 221.663 309.253 221.925 309.317 222.162C309.348 222.28 309.473 222.352 309.613 222.399C309.767 222.422 309.96 222.433 310.157 222.38L311.163 222.111L311.316 222.683C311.348 222.801 311.453 222.879 311.592 222.926C311.752 222.968 311.94 222.959 312.137 222.907C312.531 222.801 312.799 222.539 312.736 222.302L312.563 221.736Z" fill="#7C1DC9"/>
<path d="M326.877 126.073L314.402 122.738L315.127 121.106C315.208 120.936 315.102 120.775 314.873 120.709L311.251 119.735C310.953 119.646 310.539 119.757 310.324 119.983C310.085 120.195 310.174 120.447 310.467 120.516L313.706 121.402L309.485 130.734C309.404 130.903 309.511 131.065 309.739 131.13L310.898 131.433C310.829 131.437 310.755 131.45 310.676 131.471C309.73 131.725 309.062 132.39 309.21 132.942C309.378 133.489 310.269 133.736 311.235 133.477C312.201 133.218 312.854 132.578 312.701 132.007C312.69 131.967 312.66 131.933 312.649 131.894L315.156 132.574C315.091 132.592 315.023 132.603 314.954 132.607C313.988 132.866 313.34 133.526 313.488 134.078C313.636 134.63 314.527 134.878 315.493 134.619C316.459 134.36 317.112 133.72 316.964 133.168C316.948 133.109 316.923 133.094 316.907 133.035L317.435 133.19C317.753 133.273 318.167 133.163 318.381 132.936C318.601 132.729 318.532 132.473 318.239 132.404L310.906 130.437L311.771 128.536L320.72 130.936C321.262 131.065 322.007 130.929 322.501 130.564L326.974 127.379C327.649 126.902 327.604 126.259 326.877 126.073Z" fill="url(#paint20_linear_1647_11885)"/>
<path d="M325.516 126.521C323.534 128.51 319.704 129.516 316.992 128.784C314.262 128.057 313.65 125.854 315.637 123.884C317.619 121.895 321.445 120.87 324.176 121.596C326.887 122.328 327.498 124.531 325.516 126.521Z" fill="#F745BE"/>
<path d="M321.576 125.191C321.849 125.315 321.997 125.501 322.021 125.748C322.028 125.985 321.904 126.23 321.647 126.482C321.472 126.67 321.265 126.817 321.025 126.923C320.777 127.046 320.519 127.137 320.253 127.194C319.969 127.242 319.679 127.263 319.382 127.258C319.081 127.24 318.772 127.189 318.454 127.105C318.059 127 317.761 126.861 317.56 126.689C317.346 126.521 317.229 126.32 317.208 126.086L318.331 125.701C318.347 125.866 318.412 126.003 318.526 126.114C318.644 126.237 318.84 126.339 319.115 126.421C319.434 126.504 319.72 126.519 319.973 126.466C320.23 126.425 320.452 126.309 320.641 126.118C320.842 125.923 320.9 125.745 320.815 125.585C320.73 125.425 320.491 125.298 320.1 125.206L319.891 125.135L320.436 124.566L320.69 124.646C321.008 124.73 321.307 124.741 321.587 124.681C321.867 124.62 322.091 124.51 322.26 124.352C322.416 124.198 322.456 124.06 322.382 123.939C322.31 123.831 322.16 123.745 321.932 123.679C321.69 123.617 321.432 123.602 321.158 123.633C320.898 123.66 320.635 123.731 320.37 123.844L320.244 123.138C320.408 123.066 320.592 123.017 320.796 122.99C320.997 122.951 321.201 122.924 321.409 122.911C321.62 122.91 321.841 122.922 322.073 122.944C322.291 122.97 322.498 123.006 322.694 123.053C322.965 123.121 323.18 123.211 323.337 123.324C323.507 123.433 323.631 123.555 323.71 123.689C323.784 123.81 323.8 123.947 323.756 124.099C323.722 124.235 323.627 124.38 323.471 124.535C323.361 124.649 323.234 124.754 323.09 124.848C322.943 124.93 322.779 125.002 322.599 125.065C322.431 125.124 322.259 125.163 322.081 125.182C321.906 125.215 321.738 125.218 321.576 125.191Z" fill="white"/>
<path d="M386.018 147.108L390.243 145.997C390.598 145.902 390.846 145.645 390.788 145.428C390.735 145.231 390.392 145.133 390.017 145.233L385.817 146.359L385.142 143.919C385.084 143.702 384.746 143.623 384.371 143.724C384.017 143.819 383.763 144.056 383.821 144.273L384.491 146.693L380.271 147.824C379.896 147.924 379.648 148.181 379.701 148.378C379.732 148.496 379.838 148.574 379.972 148.601C380.111 148.648 380.299 148.64 380.477 148.593L384.697 147.462L385.352 149.907C385.378 150.006 385.484 150.083 385.618 150.111C385.757 150.158 385.945 150.15 386.123 150.102C386.498 150.002 386.746 149.745 386.693 149.548L386.018 147.108Z" fill="#E6E7E8"/>
<path style="mix-blend-mode:color-dodge" d="M263.376 282.282L165.892 255.587L164.796 256.705L263.619 283.189L406.061 140.003L404.698 140.199L263.376 282.282Z" fill="url(#paint21_radial_1647_11885)"/>
<path opacity="0.02" d="M329.53 210.255L224.953 182.248L255.403 151.939L359.961 179.952L329.53 210.255Z" fill="black"/>
<path opacity="0.05" d="M329.044 209.541L226.098 181.942L255.764 152.414L358.705 179.993L329.044 209.541Z" fill="black"/>
<path opacity="0.07" d="M328.572 208.8L227.248 181.654L256.125 152.887L357.454 180.053L328.572 208.8Z" fill="black"/>
<path opacity="0.1" d="M328.081 208.085L228.393 181.367L256.486 153.381L356.193 180.094L328.081 208.085Z" fill="black"/>
<path opacity="0.12" d="M327.618 207.364L229.527 181.085L256.85 153.855L354.94 180.134L327.618 207.364Z" fill="black"/>
<path opacity="0.15" d="M327.126 206.629L230.672 180.777L257.211 154.328L353.665 180.179L327.126 206.629Z" fill="black"/>
<path opacity="0.17" d="M326.66 205.909L231.822 180.491L257.571 154.803L352.409 180.221L326.66 205.909Z" fill="black"/>
<path opacity="0.2" d="M326.183 205.17L232.967 180.205L257.932 155.297L351.148 180.262L326.183 205.17Z" fill="black"/>
<path opacity="0.22" d="M325.697 204.456L234.118 179.919L258.293 155.772L349.892 180.304L325.697 204.456Z" fill="black"/>
<path opacity="0.25" d="M325.234 203.735L235.246 179.617L258.657 156.246L348.625 180.369L325.234 203.735Z" fill="black"/>
<path opacity="0.27" d="M324.737 203.001L236.391 179.331L259.018 156.74L347.364 180.41L324.737 203.001Z" fill="black"/>
<path opacity="0.3" d="M324.271 202.281L237.541 179.044L259.379 157.215L346.108 180.452L324.271 202.281Z" fill="black"/>
<path d="M328.321 201.47L231.006 175.406L255.508 150.897L352.828 176.981L328.321 201.47Z" fill="url(#paint22_linear_1647_11885)"/>
<path d="M278.279 164.643L259.565 159.639L246.094 173.097L264.813 178.121L278.279 164.643ZM275.966 165.241L264.434 176.785L248.401 172.479L259.939 160.955L275.966 165.241Z" fill="#A56EF4"/>
<path d="M311.807 178.355L279.861 169.795L280.811 168.843L312.757 177.403L311.807 178.355Z" fill="#A56EF4"/>
<path d="M309.099 181.072L277.154 172.512L278.103 171.56L310.049 180.12L309.099 181.072Z" fill="#A56EF4"/>
<path d="M295.875 181.02L274.405 175.276L275.355 174.324L296.824 180.068L295.875 181.02Z" fill="#A56EF4"/>
<g style="mix-blend-mode:screen">
<path d="M329.538 187.43C327.329 186.839 326.849 185.044 328.451 183.452C330.068 181.836 333.164 181.006 335.372 181.598C337.581 182.189 338.082 183.979 336.465 185.595C334.862 187.187 331.747 188.022 329.538 187.43ZM334.959 182.026C333.068 181.518 330.406 182.231 329.038 183.591C327.655 184.976 328.067 186.514 329.957 187.022C331.867 187.525 334.509 186.817 335.893 185.432C337.281 184.066 336.849 182.534 334.959 182.026Z" fill="#A56EF4"/>
<path d="M333.277 184.74L334.263 184.476C334.658 184.37 334.906 184.114 334.843 183.877C334.785 183.66 334.421 183.567 334.047 183.668L333.061 183.932L332.888 183.365C332.83 183.148 332.461 183.036 332.087 183.136C331.692 183.242 331.444 183.498 331.508 183.735L331.661 184.307L330.675 184.571C330.28 184.677 330.012 184.939 330.071 185.156C330.102 185.274 330.208 185.352 330.367 185.393C330.501 185.421 330.694 185.432 330.891 185.38L331.877 185.115L332.031 185.687C332.057 185.786 332.162 185.863 332.321 185.905C332.461 185.952 332.649 185.944 332.846 185.891C333.221 185.791 333.489 185.529 333.431 185.312L333.277 184.74Z" fill="#A56EF4"/>
</g>
<g style="mix-blend-mode:screen">
<path d="M285.488 105.15L217.294 86.8799L173.039 131.138L241.214 149.413L285.488 105.15ZM283.004 105.815L240.848 147.968L175.544 130.467L217.699 88.3141L283.004 105.815Z" fill="#7C1DC9"/>
<path d="M185.323 142.345L158.456 135.151L144.133 149.45L171.025 156.659L185.323 142.345ZM182.819 143.016L170.614 155.205L146.637 148.779L158.842 136.59L182.819 143.016Z" fill="#7C1DC9"/>
<path d="M214.301 150.114L187.434 142.92L173.136 157.234L200.003 164.428L214.301 150.114ZM211.797 150.785L199.592 162.974L175.62 156.568L187.82 144.359L211.797 150.785Z" fill="#7C1DC9"/>
<path d="M243.315 157.896L216.443 150.682L202.125 165.001L229.012 172.19L243.315 157.896ZM240.811 158.567L228.612 170.776L204.635 164.35L216.834 152.141L240.811 158.567Z" fill="#7C1DC9"/>
<path d="M216.819 184.082L132.204 161.399L134.137 159.465L218.753 182.148L216.819 184.082Z" fill="#7C1DC9"/>
<path d="M211.255 189.625L126.64 166.942L128.573 165.008L213.188 187.691L211.255 189.625Z" fill="#7C1DC9"/>
<path d="M165.477 184.497L121.011 172.593L122.939 170.639L167.411 182.563L165.477 184.497Z" fill="#7C1DC9"/>
<path d="M74.217 234.887C73.7472 234.633 73.4246 234.296 73.2992 233.907C73.2358 233.671 73.5182 233.384 73.9323 233.273C74.4844 233.125 75.026 232.937 75.5214 232.657C75.8239 232.681 76.3275 232.589 76.5415 232.362C76.7753 232.13 76.8211 231.907 76.6461 231.806C77.5457 230.825 77.8365 229.859 76.0356 229.37C74.2598 228.894 72.8995 229.576 71.8854 230.524C71.608 230.514 71.2636 230.648 71.0298 230.88C70.796 231.112 70.9541 231.386 71.1541 231.502C71.0362 231.851 71.0274 232.212 71.1067 232.508C71.1701 232.745 70.893 233.051 70.4736 233.143C69.7834 233.328 69.0616 233.394 68.4119 233.336C67.5241 233.257 66.4751 233.601 65.8709 234.186L64.8583 235.218C64.6586 235.419 64.7365 235.631 64.9903 235.711L72.4516 237.685C72.7055 237.765 73.0998 237.659 73.2995 237.458L74.3174 236.445C74.9019 235.866 74.8367 235.228 74.217 234.887Z" fill="#7C1DC9"/>
<path d="M146.552 252.912C146.695 252.761 146.818 252.616 146.921 252.475L148.557 252.27C148.759 251.92 148.886 251.576 148.936 251.238L147.424 251.115C147.419 250.835 147.348 250.572 147.212 250.326L148.46 249.463C148.235 249.2 147.947 248.967 147.597 248.765L146.077 249.405C145.918 249.335 145.739 249.27 145.539 249.211C145.344 249.164 145.143 249.126 144.938 249.097L145.07 248.089C144.554 248.058 144.01 248.077 143.456 248.141L142.84 249.152C142.356 249.239 141.902 249.361 141.44 249.527L140.375 248.946C139.883 249.162 139.402 249.418 138.977 249.722L139.594 250.529C139.432 250.657 139.277 250.79 139.131 250.928C138.998 251.062 138.879 251.199 138.776 251.34L137.14 251.546C136.938 251.896 136.806 252.241 136.742 252.582L138.274 252.7C138.266 252.984 138.338 253.254 138.491 253.509L137.237 254.352C137.45 254.619 137.739 254.858 138.106 255.07L139.625 254.43C139.785 254.5 139.956 254.56 140.138 254.61C140.334 254.656 140.534 254.694 140.74 254.724L140.628 255.726C141.149 255.776 141.693 255.757 142.227 255.699L142.863 254.683C143.327 254.601 143.801 254.474 144.244 254.313L145.303 254.875C145.814 254.653 146.275 254.403 146.726 254.113L146.089 253.311C146.252 253.183 146.406 253.05 146.552 252.912ZM141.755 252.993C140.934 252.769 140.76 252.119 141.359 251.514C141.958 250.91 143.102 250.603 143.923 250.827C144.743 251.051 144.943 251.716 144.344 252.321C143.74 252.905 142.576 253.217 141.755 252.993Z" fill="#7C1DC9"/>
<path d="M86.9133 241.713L89.1917 242.328L92.2061 239.301L89.933 238.706L86.9133 241.713ZM90.3506 242.631L92.629 243.246L97.5623 238.31L95.2839 237.695L90.3506 242.631ZM100.64 236.703L93.7931 243.568L96.0662 244.164L102.919 237.319L100.64 236.703Z" fill="#7C1DC9"/>
<path d="M124.46 243.173C123.48 242.908 122.24 243.092 121.223 243.555C121.375 242.859 120.934 242.237 119.954 241.972C118.56 241.584 116.589 242.112 115.571 243.125C113.706 244.998 116.187 248.582 116.187 248.582C116.187 248.582 123.291 247.566 125.156 245.692C126.174 244.68 125.873 243.556 124.46 243.173Z" fill="#7C1DC9"/>
<path d="M222.064 59.1411L236.206 62.9391C236.793 63.0778 237.606 62.8809 238.04 62.4477C238.454 62.0198 238.327 61.5466 237.755 61.3829L223.598 57.6099C223.025 57.4462 222.197 57.6681 221.784 58.096C221.345 58.5094 221.472 58.9827 222.064 59.1411ZM235.154 63.9819L221.017 60.2036C220.425 60.0452 219.616 60.2618 219.178 60.6753C218.764 61.1031 218.891 61.5764 219.463 61.7401L233.625 65.5328C234.192 65.6768 235.02 65.4549 235.439 65.0467C235.873 64.6135 235.726 64.1455 235.154 63.9819ZM232.553 66.5808L218.416 62.8026C217.824 62.6442 217.016 62.8608 216.577 63.2743C216.163 63.7021 216.29 64.1754 216.882 64.3338L231.019 68.1121C231.591 68.2758 232.42 68.0538 232.839 67.6457C233.272 67.2125 233.145 66.7392 232.553 66.5808Z" fill="#7C1DC9"/>
<path d="M142.404 269.072L41.3288 241.986C34.6634 240.221 33.1959 234.823 38.0268 229.978L212.264 55.7422C217.1 50.9168 226.452 48.4321 233.118 50.1967L334.193 77.2825C340.844 79.0722 342.331 84.4646 337.475 89.2953L163.258 263.526C158.407 268.376 149.055 270.861 142.404 269.072ZM232.402 50.9169C226.293 49.2568 217.676 51.5658 213.224 56.0133L39.0068 230.244C34.5358 234.697 35.9067 239.655 42.0302 241.291L143.106 268.376C149.229 270.012 157.832 267.728 162.283 263.28L336.52 89.044C340.972 84.5965 339.621 79.6325 333.497 77.9974L232.402 50.9169Z" fill="#7C1DC9"/>
<path d="M319.445 87.7046C319.545 88.0792 319.092 88.5177 318.441 88.692C317.79 88.8664 317.179 88.7133 317.078 88.3386C316.978 87.9639 317.426 87.5058 318.076 87.3314C318.727 87.1571 319.344 87.3299 319.445 87.7046Z" fill="#7C1DC9"/>
<path d="M316.199 82.7401C316.133 82.7577 316.068 82.7754 316.002 82.793L316.182 83.4634C316.247 83.4458 316.313 83.4282 316.379 83.4106C321.249 82.1055 325.851 83.3453 326.626 86.1599C326.626 86.1599 326.628 86.1665 326.631 86.1796L327.795 85.8679C327.791 85.8547 327.79 85.8482 327.79 85.8482C326.934 82.6537 321.721 81.2607 316.199 82.7401Z" fill="#7C1DC9"/>
<path d="M316.923 85.4642C316.864 85.48 316.805 85.4959 316.746 85.5117L316.931 86.2019C316.99 86.186 317.044 86.1505 317.122 86.1293C319.39 85.5217 321.534 86.1096 321.883 87.411C321.887 87.4242 321.89 87.4373 321.894 87.4505L323.077 87.1334C323.073 87.1203 323.07 87.1072 323.066 87.094C322.617 85.4179 319.861 84.6769 316.923 85.4642Z" fill="#7C1DC9"/>
<path d="M316.558 84.1015C316.492 84.1191 316.426 84.1367 316.361 84.1543L316.54 84.8248C316.606 84.8071 316.672 84.7895 316.737 84.7719C320.307 83.8156 323.699 84.7241 324.254 86.7946C324.254 86.7946 324.256 86.8012 324.259 86.8144L325.442 86.4973C325.439 86.4842 325.437 86.4776 325.437 86.4776C324.762 84.0377 320.778 82.9707 316.558 84.1015Z" fill="#7C1DC9"/>
<path d="M291.539 81.7384L250.733 70.7976L252.672 68.8832L293.452 79.8096L291.539 81.7384Z" fill="#7C1DC9"/>
<path d="M151.587 221.279L111.443 210.52C106.25 209.121 105.105 204.927 108.869 201.149C112.653 197.367 119.955 195.431 125.143 196.81L165.286 207.569C170.48 208.967 171.625 213.162 167.841 216.944C164.077 220.722 156.775 222.657 151.587 221.279ZM124.096 197.872C119.698 196.684 113.526 198.337 110.327 201.541C107.122 204.724 108.098 208.288 112.49 209.457L152.634 220.216C157.026 221.385 163.203 219.751 166.403 216.548C169.588 213.369 168.612 209.806 164.22 208.637L124.096 197.872Z" fill="#7C1DC9"/>
<path d="M264.422 134.126C264.174 134.066 264.008 133.92 263.96 133.742C263.86 133.368 264.288 132.915 264.939 132.74L274.389 130.229L272.892 124.797C272.791 124.423 273.244 123.984 273.895 123.81C274.546 123.636 275.158 123.789 275.258 124.163L277.126 130.976L265.323 134.096C264.988 134.186 264.676 134.206 264.422 134.126Z" fill="#7C1DC9"/>
<path d="M183.475 112.446C183.221 112.366 183.041 112.246 182.988 112.048L181.125 105.256L192.923 102.116C193.574 101.942 194.191 102.114 194.291 102.489C194.391 102.864 193.958 103.297 193.307 103.471L183.856 105.982L185.354 111.414C185.454 111.789 185.007 112.247 184.356 112.422C184.04 112.506 183.723 112.506 183.475 112.446Z" fill="#7C1DC9"/>
</g>
<g style="mix-blend-mode:screen">
<path d="M106.587 116.054C106.782 116.783 105.93 117.625 104.668 117.963C103.406 118.301 102.222 117.984 102.026 117.255C101.836 116.545 102.683 115.684 103.945 115.345C105.207 115.007 106.391 115.324 106.587 116.054Z" fill="#B4299A"/>
<path d="M114.948 118.296C115.144 119.026 114.291 119.867 113.029 120.205C111.767 120.543 110.584 120.226 110.388 119.497C110.198 118.787 111.045 117.926 112.307 117.588C113.569 117.25 114.753 117.566 114.948 118.296Z" fill="#B4299A"/>
<path d="M117.433 117.905L103.341 114.136L107.353 100.084L102.409 98.7455C102.001 98.6434 101.916 98.3279 102.199 98.0409C102.501 97.7486 103.053 97.6006 103.461 97.7027L109.311 99.2632L105.298 113.315L118.48 116.842C118.893 116.964 118.978 117.279 118.695 117.566C118.393 117.859 117.841 118.007 117.433 117.905Z" fill="#B4299A"/>
<path d="M119.931 115.12L107.112 111.686C106.724 111.578 106.64 111.263 106.922 110.976C107.224 110.684 107.776 110.536 108.164 110.643L120.392 113.919L127.742 108.694L109.341 103.755C108.933 103.653 108.849 103.337 109.131 103.05C109.433 102.758 109.985 102.61 110.393 102.712L129.679 107.879C129.908 107.945 130.024 108.062 130.046 108.225C130.069 108.388 129.948 108.568 129.752 108.705L121.057 114.903C120.734 115.116 120.275 115.218 119.931 115.12Z" fill="#B4299A"/>
<path d="M93.1258 130.018C77.2325 125.759 73.698 112.884 85.2696 101.329C96.8162 89.7601 119.169 83.8131 135.062 88.0718C150.955 92.3306 154.47 105.211 142.918 116.76C131.352 128.335 109.019 134.276 93.1258 130.018ZM133.664 89.4819C118.821 85.5125 97.9868 91.0527 87.1849 101.852C76.3975 112.625 79.6797 124.638 94.5233 128.608C109.347 132.582 130.201 127.037 140.988 116.263C151.771 105.469 148.488 93.4566 133.664 89.4819Z" fill="#B4299A"/>
<path opacity="0.4" d="M87.2114 135.935C66.8311 130.469 62.3047 113.971 77.1442 99.1526C91.9587 84.3197 120.607 76.7069 140.982 82.153C161.342 87.6242 165.869 104.122 151.054 118.955C136.215 133.774 107.586 141.381 87.2114 135.935ZM138.863 84.2636C120.08 79.2363 93.685 86.2665 80.0342 99.9211C66.3637 113.581 70.5269 128.803 89.3103 133.83C108.094 138.857 134.488 131.827 148.159 118.167C161.81 104.513 157.647 89.2908 138.863 84.2636Z" fill="#B4299A"/>
<path opacity="0.1" d="M80.8862 142.237C55.7255 135.495 50.1636 115.131 68.4653 96.828C86.7671 78.5245 122.12 69.1152 147.28 75.8575C172.441 82.5998 178.028 102.977 159.726 121.281C141.425 139.584 106.047 148.979 80.8862 142.237ZM144.48 78.6579C121.439 72.4891 89.0636 81.1005 72.3104 97.8478C55.5625 114.615 60.6648 133.262 83.6866 139.437C106.728 145.605 139.103 136.994 155.856 120.247C172.624 103.474 167.522 84.8268 144.48 78.6579Z" fill="#B4299A"/>
</g>
<path style="mix-blend-mode:screen" d="M149.449 205.721C151.246 212.426 147.261 219.327 140.557 221.123C133.852 222.92 126.952 218.936 125.155 212.231C123.359 205.526 127.343 198.626 134.047 196.829C140.752 195.033 147.653 199.017 149.449 205.721Z" fill="url(#paint23_radial_1647_11885)"/>
<path d="M157.162 283.08C156.827 283.17 156.477 282.968 156.387 282.633L156.006 281.213C155.916 280.878 156.119 280.528 156.454 280.438C156.789 280.348 157.139 280.55 157.229 280.886L157.609 282.305C157.699 282.641 157.497 282.991 157.162 283.08ZM156.131 279.235C155.796 279.325 155.446 279.123 155.356 278.788L154.707 276.362C154.617 276.027 154.819 275.677 155.154 275.587C155.489 275.497 155.839 275.699 155.929 276.035L156.579 278.46C156.669 278.795 156.467 279.145 156.131 279.235ZM154.826 274.365C154.491 274.454 154.146 274.272 154.057 273.937L153.401 271.492C153.312 271.156 153.519 270.826 153.854 270.736C154.189 270.646 154.534 270.829 154.624 271.164L155.279 273.609C155.369 273.944 155.162 274.275 154.826 274.365ZM153.527 269.514C153.191 269.604 152.841 269.401 152.752 269.066L152.102 266.641C152.012 266.306 152.214 265.955 152.549 265.866C152.884 265.776 153.234 265.978 153.324 266.313L153.974 268.739C154.064 269.074 153.862 269.424 153.527 269.514ZM152.227 264.663C151.892 264.753 151.542 264.551 151.452 264.215L150.802 261.79C150.707 261.435 150.914 261.105 151.249 261.015C151.585 260.925 151.929 261.107 152.024 261.462L152.674 263.888C152.764 264.223 152.562 264.573 152.227 264.663ZM150.922 259.792C150.586 259.882 150.236 259.68 150.147 259.345L149.497 256.919C149.407 256.584 149.609 256.234 149.944 256.144C150.279 256.054 150.629 256.256 150.719 256.592L151.369 259.017C151.459 259.352 151.257 259.702 150.922 259.792ZM149.622 254.941C149.287 255.031 148.937 254.829 148.847 254.494L148.197 252.068C148.107 251.733 148.309 251.383 148.644 251.293C148.98 251.203 149.33 251.405 149.42 251.741L150.069 254.166C150.159 254.501 149.957 254.851 149.622 254.941ZM148.317 250.071C147.982 250.16 147.637 249.978 147.547 249.643L146.892 247.198C146.802 246.862 147.009 246.532 147.345 246.442C147.68 246.352 148.025 246.535 148.114 246.87L148.77 249.315C148.859 249.65 148.652 249.981 148.317 250.071ZM147.017 245.22C146.682 245.31 146.332 245.107 146.242 244.772L145.592 242.347C145.502 242.011 145.704 241.661 146.04 241.572C146.375 241.482 146.725 241.684 146.815 242.019L147.465 244.445C147.554 244.78 147.352 245.13 147.017 245.22ZM145.717 240.369C145.382 240.459 145.032 240.256 144.942 239.921L144.287 237.476C144.197 237.141 144.405 236.811 144.74 236.721C145.075 236.631 145.42 236.813 145.51 237.149L146.165 239.594C146.255 239.929 146.052 240.279 145.717 240.369ZM144.412 235.498C144.077 235.588 143.727 235.386 143.637 235.051L142.987 232.625C142.897 232.29 143.099 231.94 143.435 231.85C143.77 231.76 144.12 231.962 144.21 232.298L144.86 234.723C144.949 235.058 144.747 235.408 144.412 235.498ZM143.112 230.647C142.777 230.737 142.427 230.535 142.337 230.2L141.687 227.774C141.598 227.439 141.8 227.089 142.135 226.999C142.47 226.909 142.82 227.111 142.91 227.447L143.56 229.872C143.65 230.207 143.448 230.557 143.112 230.647ZM141.807 225.777C141.472 225.866 141.127 225.684 141.032 225.329L140.382 222.904C140.292 222.568 140.495 222.218 140.83 222.129C141.165 222.039 141.515 222.241 141.605 222.576L142.255 225.001C142.35 225.356 142.142 225.687 141.807 225.777ZM140.507 220.926C140.172 221.015 139.822 220.813 139.732 220.478L139.083 218.053C138.993 217.717 139.195 217.367 139.53 217.278C139.865 217.188 140.215 217.39 140.305 217.725L140.955 220.151C141.045 220.486 140.843 220.836 140.507 220.926Z" fill="#7C1DC9"/>
<path style="mix-blend-mode:screen" d="M169.144 279.214C170.94 285.918 166.956 292.819 160.252 294.615C153.547 296.412 146.646 292.428 144.85 285.723C143.054 279.019 147.038 272.118 153.742 270.321C160.447 268.525 167.348 272.509 169.144 279.214Z" fill="url(#paint24_radial_1647_11885)"/>
<path style="mix-blend-mode:color-dodge" d="M233.581 50.5997C227.472 48.9395 218.854 51.2485 214.403 55.696L40.1855 229.927C35.7145 234.38 37.0855 239.338 43.2089 240.973L144.285 268.059C150.408 269.694 159.011 267.41 163.462 262.963L337.699 88.7267C342.151 84.2792 340.799 79.3152 334.676 77.6801L233.581 50.5997Z" fill="url(#paint25_linear_1647_11885)"/>
<defs>
<linearGradient id="paint0_linear_1647_11885" x1="391.526" y1="96.3645" x2="34.629" y2="191.995" gradientUnits="userSpaceOnUse">
<stop stop-color="#2F054A"/>
<stop offset="1" stop-color="#5824B0"/>
</linearGradient>
<linearGradient id="paint1_linear_1647_11885" x1="344.186" y1="107.401" x2="-12.7156" y2="203.032" gradientUnits="userSpaceOnUse">
<stop offset="0.056" stop-color="#2F0D5E"/>
<stop offset="0.47" stop-color="#311B61"/>
<stop offset="0.53" stop-color="#8770B8"/>
<stop offset="0.626" stop-color="#311B61"/>
<stop offset="0.813" stop-color="#200041"/>
<stop offset="1" stop-color="#200041"/>
</linearGradient>
<linearGradient id="paint2_linear_1647_11885" x1="389.05" y1="87.1344" x2="32.1538" y2="182.765" gradientUnits="userSpaceOnUse">
<stop stop-color="#58098A"/>
<stop offset="1" stop-color="#9E3BDB"/>
</linearGradient>
<radialGradient id="paint3_radial_1647_11885" cx="0" cy="0" r="1" gradientUnits="userSpaceOnUse" gradientTransform="translate(224.894 283.853) rotate(-15) scale(140.439 140.439)">
<stop stop-color="white"/>
<stop offset="1"/>
</radialGradient>
<linearGradient id="paint4_linear_1647_11885" x1="386.034" y1="90.1493" x2="36.27" y2="183.868" gradientUnits="userSpaceOnUse">
<stop stop-color="#2F054A"/>
<stop offset="1" stop-color="#5E1D9A"/>
</linearGradient>
<linearGradient id="paint5_linear_1647_11885" x1="305.146" y1="122.257" x2="330.045" y2="508.323" gradientUnits="userSpaceOnUse">
<stop stop-color="#861EB2"/>
<stop offset="0.429" stop-color="#5F27BD"/>
<stop offset="0.904" stop-color="#3D065F"/>
</linearGradient>
<linearGradient id="paint6_linear_1647_11885" x1="378.466" y1="191.35" x2="366.839" y2="190.516" gradientUnits="userSpaceOnUse">
<stop stop-color="#3D065F"/>
<stop offset="1" stop-color="#5F27BD"/>
</linearGradient>
<linearGradient id="paint7_linear_1647_11885" x1="378.466" y1="191.35" x2="366.839" y2="190.516" gradientUnits="userSpaceOnUse">
<stop stop-color="#2F054A"/>
<stop offset="1" stop-color="#5824B0"/>
</linearGradient>
<linearGradient id="paint8_linear_1647_11885" x1="386.293" y1="268.809" x2="396.3" y2="273.836" gradientUnits="userSpaceOnUse">
<stop offset="0.056" stop-color="#9F79B8"/>
<stop offset="0.495" stop-color="#C1A1D5"/>
<stop offset="0.556" stop-color="white"/>
<stop offset="0.601" stop-color="#D1B4E3"/>
<stop offset="0.813" stop-color="#8969C3"/>
<stop offset="1" stop-color="#B086CC"/>
</linearGradient>
<linearGradient id="paint9_linear_1647_11885" x1="363.702" y1="206.117" x2="352.076" y2="205.283" gradientUnits="userSpaceOnUse">
<stop stop-color="#3D065F"/>
<stop offset="1" stop-color="#5F27BD"/>
</linearGradient>
<linearGradient id="paint10_linear_1647_11885" x1="363.702" y1="206.117" x2="352.076" y2="205.283" gradientUnits="userSpaceOnUse">
<stop stop-color="#2F054A"/>
<stop offset="1" stop-color="#5824B0"/>
</linearGradient>
<linearGradient id="paint11_linear_1647_11885" x1="374.068" y1="294.332" x2="384.076" y2="299.36" gradientUnits="userSpaceOnUse">
<stop offset="0.056" stop-color="#9F79B8"/>
<stop offset="0.495" stop-color="#C1A1D5"/>
<stop offset="0.556" stop-color="white"/>
<stop offset="0.601" stop-color="#D1B4E3"/>
<stop offset="0.813" stop-color="#8969C3"/>
<stop offset="1" stop-color="#B086CC"/>
</linearGradient>
<radialGradient id="paint12_radial_1647_11885" cx="0" cy="0" r="1" gradientUnits="userSpaceOnUse" gradientTransform="translate(338.057 229.924) rotate(142.338) scale(66.6205 44.2239)">
<stop stop-color="#972A74"/>
<stop offset="1"/>
</radialGradient>
<radialGradient id="paint13_radial_1647_11885" cx="0" cy="0" r="1" gradientUnits="userSpaceOnUse" gradientTransform="translate(207.256 359.949) rotate(-172.659) scale(34.6683 23.0144)">
<stop stop-color="#972A74"/>
<stop offset="1"/>
</radialGradient>
<linearGradient id="paint14_linear_1647_11885" x1="142.969" y1="254.925" x2="230.916" y2="276.529" gradientUnits="userSpaceOnUse">
<stop offset="0.035" stop-color="#FFA98C"/>
<stop offset="0.985" stop-color="#AD00BD"/>
</linearGradient>
<radialGradient id="paint15_radial_1647_11885" cx="0" cy="0" r="1" gradientUnits="userSpaceOnUse" gradientTransform="translate(190.712 293.965) rotate(-15) scale(28.8585 28.8586)">
<stop stop-color="white"/>
<stop offset="1"/>
</radialGradient>
<linearGradient id="paint16_linear_1647_11885" x1="304.116" y1="116.743" x2="367.094" y2="179.717" gradientUnits="userSpaceOnUse">
<stop stop-color="#25054D"/>
<stop offset="1" stop-color="#45108A"/>
</linearGradient>
<linearGradient id="paint17_linear_1647_11885" x1="307.398" y1="113.457" x2="390.548" y2="196.601" gradientUnits="userSpaceOnUse">
<stop offset="0.035" stop-color="#9F19AB"/>
<stop offset="1" stop-color="#FF63CE"/>
</linearGradient>
<linearGradient id="paint18_linear_1647_11885" x1="240.436" y1="251.433" x2="251.894" y2="275.037" gradientUnits="userSpaceOnUse">
<stop offset="0.035" stop-color="#9F19AB"/>
<stop offset="1" stop-color="#FF63CE"/>
</linearGradient>
<linearGradient id="paint19_linear_1647_11885" x1="185.882" y1="242.005" x2="222.099" y2="232.301" gradientUnits="userSpaceOnUse">
<stop offset="0.035" stop-color="#9F19AB"/>
<stop offset="1" stop-color="#FF63CE"/>
</linearGradient>
<linearGradient id="paint20_linear_1647_11885" x1="303.729" y1="117.72" x2="331.299" y2="145.288" gradientUnits="userSpaceOnUse">
<stop offset="0.035" stop-color="#9D9EB3"/>
<stop offset="0.581" stop-color="#D4D1D8"/>
<stop offset="1" stop-color="#EEEBF2"/>
</linearGradient>
<radialGradient id="paint21_radial_1647_11885" cx="0" cy="0" r="1" gradientUnits="userSpaceOnUse" gradientTransform="translate(310.493 205.748) rotate(-15) scale(100.472 100.472)">
<stop stop-color="white"/>
<stop offset="1"/>
</radialGradient>
<linearGradient id="paint22_linear_1647_11885" x1="255.506" y1="150.899" x2="317.21" y2="212.598" gradientUnits="userSpaceOnUse">
<stop offset="0.035" stop-color="#6B24D6"/>
<stop offset="1" stop-color="#A56EF4"/>
</linearGradient>
<radialGradient id="paint23_radial_1647_11885" cx="0" cy="0" r="1" gradientUnits="userSpaceOnUse" gradientTransform="translate(137.308 208.978) rotate(-15) scale(12.5755)">
<stop offset="0.101" stop-color="#DC3DAA"/>
<stop offset="0.152" stop-color="#5E0F66"/>
<stop offset="1"/>
</radialGradient>
<radialGradient id="paint24_radial_1647_11885" cx="0" cy="0" r="1" gradientUnits="userSpaceOnUse" gradientTransform="translate(157.002 282.466) rotate(-15) scale(12.5755 12.5755)">
<stop offset="0.101" stop-color="white"/>
<stop offset="0.152" stop-color="#9F19AB"/>
<stop offset="1"/>
</radialGradient>
<linearGradient id="paint25_linear_1647_11885" x1="23.9287" y1="-16.9123" x2="267.966" y2="70.4426" gradientUnits="userSpaceOnUse">
<stop stop-color="#972A74"/>
<stop offset="1"/>
</linearGradient>
</defs>
</svg>
