<svg width="15" height="15" viewBox="0 0 15 15" fill="none" xmlns="http://www.w3.org/2000/svg">
<g clip-path="url(#clip0_1760_13537)">
<rect width="15" height="15" fill="#8C8C8C"/>
<path fill-rule="evenodd" clip-rule="evenodd" d="M0.877014 7.49995C0.877014 5.74342 1.57479 4.05884 2.81685 2.81678C4.0589 1.57473 5.74349 0.876953 7.50001 0.876953C9.25654 0.876953 10.9411 1.57473 12.1832 2.81678C13.4252 4.05884 14.123 5.74342 14.123 7.49995C14.123 9.25648 13.4252 10.9411 12.1832 12.1831C10.9411 13.4252 9.25654 14.123 7.50001 14.123C5.74349 14.123 4.0589 13.4252 2.81685 12.1831C1.57479 10.9411 0.877014 9.25648 0.877014 7.49995ZM7.50001 1.82695C6.40043 1.82699 5.32456 2.14659 4.40327 2.74686C3.48199 3.34713 2.75502 4.2022 2.31078 5.20806C1.86655 6.21391 1.72421 7.32719 1.90108 8.41245C2.07795 9.49772 2.5664 10.5082 3.30701 11.321C3.75657 10.6166 4.37645 10.037 5.10933 9.63571C5.84221 9.2344 6.66445 9.02434 7.50001 9.02495C8.33558 9.02434 9.15781 9.2344 9.8907 9.63571C10.6236 10.037 11.2435 10.6166 11.693 11.321C12.4336 10.5082 12.9221 9.49772 13.099 8.41245C13.2758 7.32719 13.1335 6.21391 12.6892 5.20806C12.245 4.2022 11.518 3.34713 10.5968 2.74686C9.67547 2.14659 8.5996 1.82699 7.50001 1.82695ZM10.982 11.979C10.6284 11.3689 10.1205 10.8625 9.50931 10.5108C8.89813 10.159 8.20518 9.97424 7.50001 9.97495C6.79485 9.97424 6.1019 10.159 5.49072 10.5108C4.87955 10.8625 4.37165 11.3689 4.01801 11.979C5.01285 12.7545 6.2386 13.1748 7.50001 13.173C8.81201 13.173 10.02 12.727 10.982 11.979ZM5.15001 6.50495C5.15001 5.88169 5.3976 5.28396 5.83831 4.84325C6.27902 4.40254 6.87676 4.15495 7.50001 4.15495C8.12327 4.15495 8.721 4.40254 9.16172 4.84325C9.60243 5.28396 9.85001 5.88169 9.85001 6.50495C9.85001 7.12821 9.60243 7.72594 9.16172 8.16665C8.721 8.60737 8.12327 8.85495 7.50001 8.85495C6.87676 8.85495 6.27902 8.60737 5.83831 8.16665C5.3976 7.72594 5.15001 7.12821 5.15001 6.50495ZM7.50001 5.10495C7.31616 5.10495 7.13411 5.14117 6.96426 5.21152C6.7944 5.28188 6.64007 5.385 6.51006 5.515C6.38006 5.64501 6.27694 5.79934 6.20658 5.9692C6.13623 6.13905 6.10001 6.3211 6.10001 6.50495C6.10001 6.6888 6.13623 6.87085 6.20658 7.04071C6.27694 7.21057 6.38006 7.3649 6.51006 7.4949C6.64007 7.6249 6.7944 7.72803 6.96426 7.79838C7.13411 7.86874 7.31616 7.90495 7.50001 7.90495C7.87132 7.90495 8.22741 7.75745 8.48996 7.4949C8.75251 7.23235 8.90001 6.87626 8.90001 6.50495C8.90001 6.13365 8.75251 5.77755 8.48996 5.515C8.22741 5.25245 7.87132 5.10495 7.50001 5.10495Z" fill="white"/>
</g>
<defs>
<clipPath id="clip0_1760_13537">
<rect width="15" height="15" fill="white"/>
</clipPath>
</defs>
</svg>
