<svg width="42" height="38" viewBox="0 0 42 38" fill="none" xmlns="http://www.w3.org/2000/svg">
<g filter="url(#filter0_d_1690_9197)">
<path d="M30.4014 19.6219C31.9248 19.6219 32.6865 20.4554 32.6865 22.1223V26.5896C32.6865 28.2565 31.9248 29.09 30.4014 29.09H25.3091C23.7857 29.09 23.024 28.2565 23.024 26.5896V22.1223C23.024 19.2552 23.209 16.8549 23.5789 14.9213C23.9489 12.9655 24.8956 11.3874 26.4189 10.1873C27.5288 9.32049 28.3993 9.23159 29.0304 9.92057L30.2709 11.2874C31.0543 12.132 30.9346 12.9655 29.9118 13.7878C29.2154 14.3434 28.7475 15.0658 28.5081 15.9548C28.2687 16.8438 28.149 18.0662 28.149 19.6219H30.4014ZM16.6911 19.6219C18.2145 19.6219 18.9762 20.4554 18.9762 22.1223V26.5896C18.9762 28.2565 18.2145 29.09 16.6911 29.09H11.5988C10.0754 29.09 9.31372 28.2565 9.31372 26.5896V22.1223C9.31372 19.2552 9.4987 16.8549 9.86866 14.9213C10.2386 12.9655 11.1853 11.3874 12.7086 10.1873C13.8185 9.32049 14.689 9.23159 15.3201 9.92057L16.5606 11.2874C17.344 12.132 17.2243 12.9655 16.2015 13.7878C15.5051 14.3434 15.0372 15.0658 14.7978 15.9548C14.5585 16.8438 14.4388 18.0662 14.4388 19.6219H16.6911Z" fill="white"/>
<mask id="mask0_1690_9197" style="mask-type:luminance" maskUnits="userSpaceOnUse" x="9" y="9" width="24" height="21">
<path d="M30.4014 19.6219C31.9248 19.6219 32.6865 20.4554 32.6865 22.1223V26.5896C32.6865 28.2565 31.9248 29.09 30.4014 29.09H25.3091C23.7857 29.09 23.024 28.2565 23.024 26.5896V22.1223C23.024 19.2552 23.209 16.8549 23.5789 14.9213C23.9489 12.9655 24.8956 11.3874 26.4189 10.1873C27.5288 9.32049 28.3993 9.23159 29.0304 9.92057L30.2709 11.2874C31.0543 12.132 30.9346 12.9655 29.9118 13.7878C29.2154 14.3434 28.7475 15.0658 28.5081 15.9548C28.2687 16.8438 28.149 18.0662 28.149 19.6219H30.4014ZM16.6911 19.6219C18.2145 19.6219 18.9762 20.4554 18.9762 22.1223V26.5896C18.9762 28.2565 18.2145 29.09 16.6911 29.09H11.5988C10.0754 29.09 9.31372 28.2565 9.31372 26.5896V22.1223C9.31372 19.2552 9.4987 16.8549 9.86866 14.9213C10.2386 12.9655 11.1853 11.3874 12.7086 10.1873C13.8185 9.32049 14.689 9.23159 15.3201 9.92057L16.5606 11.2874C17.344 12.132 17.2243 12.9655 16.2015 13.7878C15.5051 14.3434 15.0372 15.0658 14.7978 15.9548C14.5585 16.8438 14.4388 18.0662 14.4388 19.6219H16.6911Z" fill="white"/>
</mask>
<g mask="url(#mask0_1690_9197)">
<path d="M23.5786 14.9218L24.7503 15.1556L24.7508 15.1531L23.5786 14.9218ZM26.4187 10.1878L25.6934 9.21928L25.6895 9.22243L26.4187 10.1878ZM29.0301 9.92108L29.9057 9.09229L29.9019 9.08816L29.0301 9.92108ZM30.2706 11.2879L29.395 12.1167L29.3994 12.1216L29.4039 12.1265L30.2706 11.2879ZM29.9115 13.7883L30.6465 14.7491L30.6499 14.7463L29.9115 13.7883ZM28.1488 19.6224H26.9549V20.8417H28.1488V19.6224ZM9.86839 14.9218L11.0401 15.1556L11.0405 15.1531L9.86839 14.9218ZM12.7084 10.1878L11.9832 9.21928L11.9792 9.22243L12.7084 10.1878ZM15.3199 9.92108L16.1955 9.09229L16.1917 9.08816L15.3199 9.92108ZM16.5603 11.2879L15.6847 12.1167L15.6892 12.1216L15.6936 12.1265L16.5603 11.2879ZM16.2012 13.7883L16.9362 14.7491L16.9397 14.7463L16.2012 13.7883ZM14.4385 19.6224H13.2447V20.8417H14.4385V19.6224ZM30.4012 19.6224V20.8417C30.9569 20.8417 31.1602 20.9898 31.2422 21.0794C31.3386 21.185 31.4924 21.4572 31.4924 22.1228H32.6862H33.88C33.88 21.1215 33.6529 20.1436 32.9877 19.4156C32.308 18.6719 31.3688 18.4032 30.4012 18.4032V19.6224ZM32.6862 22.1228H31.4924V26.5901H32.6862H33.88V22.1228H32.6862ZM32.6862 26.5901H31.4924C31.4924 27.2557 31.3386 27.528 31.2422 27.6335C31.1602 27.7232 30.9569 27.8713 30.4012 27.8713V29.0905V30.3097C31.3688 30.3097 32.308 30.041 32.9877 29.2973C33.6529 28.5694 33.88 27.5914 33.88 26.5901H32.6862ZM30.4012 29.0905V27.8713H25.3088V29.0905V30.3097H30.4012V29.0905ZM25.3088 29.0905V27.8713C24.753 27.8713 24.5497 27.7232 24.4677 27.6335C24.3713 27.528 24.2175 27.2557 24.2175 26.5901H23.0237H21.8299C21.8299 27.5914 22.057 28.5694 22.7222 29.2973C23.4019 30.041 24.3412 30.3097 25.3088 30.3097V29.0905ZM23.0237 26.5901H24.2175V22.1228H23.0237H21.8299V26.5901H23.0237ZM23.0237 22.1228H24.2175C24.2175 19.3022 24.4001 16.9861 24.7503 15.1556L23.5786 14.9218L22.407 14.688C22.0173 16.7247 21.8299 19.2093 21.8299 22.1228H23.0237ZM23.5786 14.9218L24.7508 15.1531C25.0664 13.4844 25.8582 12.1692 27.1478 11.1531L26.4187 10.1878L25.6895 9.22243C23.9323 10.6068 22.8308 12.4475 22.4065 14.6905L23.5786 14.9218ZM26.4187 10.1878L27.1438 11.1563C27.6182 10.7858 27.9028 10.6964 28.0227 10.6842C28.048 10.6816 28.0623 10.6828 28.0681 10.6836C28.0735 10.6843 28.0756 10.6851 28.0769 10.6856C28.0783 10.6862 28.0849 10.6889 28.0971 10.6976C28.1098 10.7067 28.1306 10.7238 28.1583 10.754L29.0301 9.92108L29.9019 9.08816C29.3488 8.48428 28.614 8.1732 27.7852 8.25785C27.0345 8.33451 26.3289 8.72297 25.6934 9.21928L26.4187 10.1878ZM29.0301 9.92108L28.1545 10.7499L29.395 12.1167L30.2706 11.2879L31.1461 10.4592L29.9057 9.09229L29.0301 9.92108ZM30.2706 11.2879L29.4039 12.1265C29.525 12.257 29.5684 12.3418 29.5819 12.376C29.5916 12.4004 29.5841 12.3912 29.5872 12.3695C29.5913 12.3408 29.5777 12.505 29.1731 12.8303L29.9115 13.7883L30.6499 14.7463C31.2681 14.2493 31.8257 13.5855 31.9496 12.7234C32.0808 11.8094 31.6788 11.0333 31.1372 10.4494L30.2706 11.2879ZM29.9115 13.7883L29.1765 12.8275C28.2733 13.5482 27.6626 14.4962 27.3568 15.632L28.5078 15.9553L29.6589 16.2786C29.8319 15.6363 30.1569 15.1397 30.6465 14.7491L29.9115 13.7883ZM28.5078 15.9553L27.3568 15.632C27.0762 16.6739 26.9549 18.0213 26.9549 19.6224H28.1488H29.3426C29.3426 18.112 29.4607 17.0146 29.6589 16.2786L28.5078 15.9553ZM28.1488 19.6224V20.8417H30.4012V19.6224V18.4032H28.1488V19.6224ZM16.6909 19.6224V20.8417C17.2466 20.8417 17.4499 20.9898 17.5319 21.0794C17.6284 21.185 17.7821 21.4572 17.7821 22.1228H18.9759H20.1697C20.1697 21.1215 19.9426 20.1436 19.2774 19.4156C18.5977 18.6719 17.6585 18.4032 16.6909 18.4032V19.6224ZM18.9759 22.1228H17.7821V26.5901H18.9759H20.1697V22.1228H18.9759ZM18.9759 26.5901H17.7821C17.7821 27.2557 17.6284 27.528 17.5319 27.6335C17.4499 27.7232 17.2466 27.8713 16.6909 27.8713V29.0905V30.3097C17.6585 30.3097 18.5977 30.041 19.2774 29.2973C19.9426 28.5694 20.1697 27.5914 20.1697 26.5901H18.9759ZM16.6909 29.0905V27.8713H11.5985V29.0905V30.3097H16.6909V29.0905ZM11.5985 29.0905V27.8713C11.0427 27.8713 10.8394 27.7232 10.7575 27.6335C10.661 27.528 10.5073 27.2557 10.5073 26.5901H9.31345H8.11963C8.11963 27.5914 8.34674 28.5694 9.01196 29.2973C9.69166 30.041 10.6309 30.3097 11.5985 30.3097V29.0905ZM9.31345 26.5901H10.5073V22.1228H9.31345H8.11963V26.5901H9.31345ZM9.31345 22.1228H10.5073C10.5073 19.3022 10.6898 16.9861 11.0401 15.1556L9.86839 14.9218L8.69673 14.688C8.30704 16.7247 8.11963 19.2093 8.11963 22.1228H9.31345ZM9.86839 14.9218L11.0405 15.1531C11.3562 13.4844 12.148 12.1692 13.4376 11.1531L12.7084 10.1878L11.9792 9.22243C10.2221 10.6068 9.12053 12.4475 8.69624 14.6905L9.86839 14.9218ZM12.7084 10.1878L13.4335 11.1563C13.908 10.7858 14.1926 10.6964 14.3124 10.6842C14.3377 10.6816 14.3521 10.6828 14.3579 10.6836C14.3633 10.6843 14.3654 10.6851 14.3666 10.6856C14.3681 10.6862 14.3746 10.6889 14.3868 10.6976C14.3995 10.7067 14.4203 10.7238 14.448 10.754L15.3199 9.92108L16.1917 9.08816C15.6385 8.48428 14.9037 8.1732 14.0748 8.25785C13.3243 8.33451 12.6187 8.72297 11.9832 9.21928L12.7084 10.1878ZM15.3199 9.92108L14.4443 10.7499L15.6847 12.1167L16.5603 11.2879L17.4359 10.4592L16.1955 9.09229L15.3199 9.92108ZM16.5603 11.2879L15.6936 12.1265C15.8148 12.257 15.8581 12.3418 15.8716 12.376C15.8813 12.4004 15.8738 12.3912 15.8769 12.3695C15.8811 12.3408 15.8674 12.505 15.4628 12.8303L16.2012 13.7883L16.9397 14.7463C17.5579 14.2493 18.1155 13.5855 18.2393 12.7234C18.3706 11.8094 17.9686 11.0333 17.427 10.4494L16.5603 11.2879ZM16.2012 13.7883L15.4663 12.8275C14.563 13.5482 13.9523 14.4962 13.6465 15.632L14.7975 15.9553L15.9486 16.2786C16.1216 15.6363 16.4466 15.1397 16.9362 14.7491L16.2012 13.7883ZM14.7975 15.9553L13.6465 15.632C13.3659 16.6739 13.2447 18.0213 13.2447 19.6224H14.4385H15.6323C15.6323 18.112 15.7504 17.0146 15.9486 16.2786L14.7975 15.9553ZM14.4385 19.6224V20.8417H16.6909V19.6224V18.4032H14.4385V19.6224Z" fill="white" fill-opacity="0.15"/>
</g>
</g>
<defs>
<filter id="filter0_d_1690_9197" x="-10.9184" y="-10.7693" width="63.8371" height="60.0913" filterUnits="userSpaceOnUse" color-interpolation-filters="sRGB">
<feFlood flood-opacity="0" result="BackgroundImageFix"/>
<feColorMatrix in="SourceAlpha" type="matrix" values="0 0 0 0 0 0 0 0 0 0 0 0 0 0 0 0 0 0 127 0" result="hardAlpha"/>
<feOffset/>
<feGaussianBlur stdDeviation="4.33547"/>
<feComposite in2="hardAlpha" operator="out"/>
<feColorMatrix type="matrix" values="0 0 0 0 1 0 0 0 0 1 0 0 0 0 1 0 0 0 0.25 0"/>
<feBlend mode="normal" in2="BackgroundImageFix" result="effect1_dropShadow_1690_9197"/>
<feBlend mode="normal" in="SourceGraphic" in2="effect1_dropShadow_1690_9197" result="shape"/>
</filter>
</defs>
</svg>
